<?xml version="1.0" encoding="utf-8"?>
<!-- Generator: Adobe Illustrator 24.0.0, SVG Export Plug-In . SVG Version: 6.00 Build 0)  -->
<svg version="1.1" id="Layer_1" xmlns="http://www.w3.org/2000/svg" xmlns:xlink="http://www.w3.org/1999/xlink" x="0px" y="0px"
	 viewBox="0 0 476.55 84.59" style="enable-background:new 0 0 476.55 84.59;" xml:space="preserve">
<style type="text/css">
	.st0{fill:#FFFFFF;}
	.st1{fill:#E03A3E;stroke:#E03A3E;stroke-width:0.3;}
	.st2{stroke:#000000;stroke-width:0.1;}
	.st3{fill:#FFD520;stroke:#FFD520;stroke-width:0.3;}
	.st4{stroke:#000000;stroke-width:0.1;stroke-linecap:round;stroke-linejoin:round;}
</style>
<path class="st0" d="M39.38,84.45c21.53,0,39.15-17.45,39.15-38.98c0-21.53-18.34-38.83-39.15-38.81
	C17.85,6.68,0.11,23.94,0.11,45.47C0.11,66.99,17.85,84.45,39.38,84.45z"/>
<path class="st0" d="M57.63,20.78c-5.04,0.77-11.8,1.22-18.88,1.21c0.09-7.75,0.22-13.34,0.37-15.03
	C46.29,8.18,52.81,13.35,57.63,20.78"/>
<path class="st1" d="M66.04,48.61c-7.3,1.11-17.08,1.76-27.32,1.75c-0.01-10.55,0.04-20.73,0.13-28.66
	c7.07,0.01,13.82-0.44,18.86-1.21C62.64,28.1,65.79,38.07,66.04,48.61"/>
<path class="st0" d="M65.4,48.56c-2.02-0.32-3.73-3.7-2.84-7.19c-2.85,1.97-6.07-2.08-5.6-5.83c0.25-1.99,1.55-3.75,3.82-2.93
	c-0.92-3.17-2.08-6.17-3.43-8.94c-2.02,0.26-4.23,0.47-6.57,0.63c2.08,3.15,0.04,6.07-2.87,5.61c-2.11-0.34-4.07-2.55-3.53-5.18
	c-1.71,1.19-5.23,0.72-5.55-3.04c6.46-0.03,12.14-0.25,18.88-1.2c0,0,0,0,0,0c5.44,8.98,7.78,16.85,8.34,28.07
	C65.87,48.56,65.6,48.59,65.4,48.56"/>
<path class="st0" d="M18.61,74.85c-4.02-0.67-6.69-1.54-7.6-2.47c-0.99-1.12-2.3-2.63-3.22-3.81c-2.23-3.27-2.28-3.33-3.26-5.21
	c-1.71-3.62-1.74-3.69-2.42-5.7c-1.13-3.91-1.15-3.99-1.5-6.11c-0.22-1.85-0.42-4.32-0.5-6.18l0.03-1.69
	C0.1,45.32,4.09,46.89,11,48.05c-0.02,0.55-0.02,1.1-0.02,1.65C10.99,59.88,13.89,68.69,18.61,74.85"/>
<path class="st0" d="M39.25,84.44c-0.18,0-0.42,0-0.61-0.01c-0.36-0.01-0.72-0.02-1.08-0.03c-2.35-0.13-3.89-0.36-5.91-0.73
	c-5.08-1.16-9.58-4.3-13.08-8.9c3.45,0.58,7.88,1.01,13.03,1.24c2.44,0.11,4.89,0.16,7.3,0.16C39.01,81.4,39.13,84.44,39.25,84.44"
	/>
<path class="st1" d="M38.92,76.18c-2.41,0-4.86-0.05-7.3-0.16c-5.15-0.22-9.57-0.66-13.02-1.24c-4.68-6.16-7.55-14.94-7.57-25.07
	c0-0.44,0-0.89,0.01-1.33c4.69,0.78,10.73,1.38,17.74,1.68c3.32,0.14,6.65,0.21,9.94,0.22c0,0.44,0,0.89,0,1.33
	C38.74,61.75,38.81,70.34,38.92,76.18"/>
<path class="st1" d="M38.86,76.72c-0.34,1.35-2.23,2.64-4.91,1.55c1.25,1.65,0.17,3.08-2.04,2.68c-1.71-0.31-3.75-1.69-3.91-3.07
	c-2.12-0.16-4.05-0.36-5.78-0.6c1.63,1.9,3.46,3.45,5.43,4.6c0.24-0.1,0.6-0.07,1.77,0.34c1.49,0.52,2.89,1.29,4.38,1.82
	c0,0,0,0,0,0.01c-1.17-0.18-1.32-0.2-2.15-0.36c-2.81-0.81-8.05-2.31-13.07-8.89c0,0,0,0,0,0c0,0,0,0,0,0c0,0,0,0,0,0
	c6.05,0.93,11.94,1.34,20.34,1.39C38.9,76.34,38.9,76.56,38.86,76.72"/>
<path class="st0" d="M18.59,74.79C18.59,74.79,18.58,74.79,18.59,74.79c-5.39-7.72-7.51-15.11-7.57-26.36
	c3.05,1.01,3.88,5.46,3.1,7.96c2.9-1.12,6.54,3.89,5.26,7.24c-0.59,1.54-2.11,1.97-3.71,1.04c0.86,2.92,1.98,5.6,3.32,7.96
	c2.05,0.28,4.35,0.53,6.87,0.72c-2.02-2.49-0.4-4.53,2.3-4.39c2.32,0.12,5.38,2.04,4.73,4.67c2.09-0.94,5.62-0.17,6.04,2.56
	c-2.54-0.02-6.37-0.05-11.29-0.39C24.6,75.59,21.61,75.02,18.59,74.79"/>
<path class="st1" d="M18.58,74.78c-4.46-0.8-6.39-1.43-7.64-2.48c-0.9-1.02-2.1-2.39-2.94-3.46c0.15,0.19,0.26,0.32,0.67,0.81
	c-0.41-0.51-2.45-3.11-2.59-4.26c1.11-0.18,4.68,5.39,4.71,5.45c1.08,0.4,2.49,0.78,4.19,1.13c-1.6-2.41-2.94-5.12-3.97-8.07
	c-2.43,1.23-5.53-5.2-4.55-7.91c0.2-0.55,0.84-1.7,2.49-0.46c-1.24-2.86-0.91-7.1,2.08-7.09C11.1,57.9,12.41,66.01,18.58,74.78"/>
<path class="st2" d="M58.25,79.54c-2.65,1.36-3.2,1.65-6.04,2.71c-0.84,0.27-1.95,0.62-2.8,0.86c5.46-1.47,10.31-4.6,14.15-8.94
	c-0.82,1.81-1.37,2.84-4.23,4.74C58.98,79.13,58.62,79.34,58.25,79.54"/>
<path class="st3" d="M59.33,78.91c2.35-1.63,3.34-2.59,4.23-4.74c5.62-6.36,9.05-15.35,9.03-25.61c0-0.43-0.01-0.86-0.02-1.29
	c1.77-0.47,3.2-0.98,4.21-1.53c0.01,0.43,0.02,0.86,0.02,1.29C76.83,60.8,69.85,72.56,59.33,78.91"/>
<path class="st2" d="M47.6,68.82c-2.6-2.61-2.6-2.61-8.85-8.53c-0.01-2.73-0.02-5.64-0.03-8.68c0-0.43,0-0.86,0-1.29
	c3.39,0,6.72-0.07,9.94-0.2c0,0.43,0.01,0.86,0.01,1.29C48.68,57.96,48.29,63.87,47.6,68.82"/>
<path class="st3" d="M40.92,84.41l-0.25,0.01c-0.54,0.02-0.79,0.02-1.01,0.02l-0.41,0c-0.23-0.01-0.42-9.66-0.5-24.15
	c5.85,5.53,6.46,6.11,8.85,8.52C46.28,78.32,43.83,84.28,40.92,84.41"/>
<path class="st2" d="M42.77,84.29c-0.31,0.03-0.72,0.06-1.03,0.08c-0.24,0.01-0.57,0.03-0.82,0.04c2.91-0.13,5.36-6.07,6.68-15.57
	c2.82,2.96,4.07,4.41,5.43,6.63C50.37,80.72,46.8,83.93,42.77,84.29"/>
<path class="st3" d="M53.03,75.48c-1.34-2.11-2.16-3.23-5.43-6.63c0.69-4.95,1.08-10.87,1.07-17.43c0-0.43,0-0.86-0.01-1.29
	c3.22-0.13,6.31-0.33,9.2-0.59c0.01,0.43,0.01,0.86,0.01,1.29C57.89,60.89,56.05,69.51,53.03,75.48"/>
<path class="st2" d="M53.81,80.27c0.49-1.55,0.45-2.46-0.77-4.81c3.02-5.97,4.85-14.58,4.84-24.63c0-0.43,0-0.86-0.01-1.29
	c1.09-0.1,2.14-0.2,3.17-0.31c1.44,1.69,3.22,3.8,4.78,6.03C64.73,66.42,60.21,75.42,53.81,80.27"/>
<path class="st3" d="M45.27,83.98c-0.29,0.04-0.68,0.1-0.97,0.14c-0.91,0.11-0.91,0.11-1.39,0.15l-0.15,0.01
	c4.04-0.36,7.62-3.58,10.27-8.83c1.05,2.11,1.39,3.07,0.77,4.81C51.24,82.22,48.35,83.51,45.27,83.98"/>
<path class="st3" d="M49.41,83.11l-0.94,0.24c-1.57,0.35-1.57,0.35-2.42,0.5l-0.76,0.13c7.62-1.19,14-7.25,17.62-16.26
	c1,2.67,1.31,3.91,0.64,6.45C59.73,78.52,54.88,81.64,49.41,83.11"/>
<path class="st2" d="M48.47,83.35c-1.57,0.35-1.57,0.35-2.42,0.5l-0.76,0.13c3.07-0.48,5.94-1.75,8.51-3.68
	c-0.9,1.33-1.51,1.92-4.38,2.82L48.47,83.35"/>
<path class="st2" d="M63.56,74.18c0.53-2.23,0.52-3.48-0.64-6.45c2.06-5.12,3.23-11.2,3.22-17.87c0-0.43-0.01-0.86-0.02-1.29
	c2.47-0.38,4.65-0.81,6.46-1.29c0.01,0.43,0.02,0.86,0.02,1.29C72.61,58.83,69.18,67.81,63.56,74.18"/>
<path class="st3" d="M58.25,79.54c0.35-0.2,0.7-0.4,1.04-0.6l-0.4,0.24L58.25,79.54"/>
<path class="st3" d="M62.87,67.72c-1.38-2.81-2.31-4.3-5.47-8.18c0.32-2.75,0.48-5.66,0.48-8.71c0-0.43,0-0.86-0.01-1.29
	c2.96-0.26,5.72-0.59,8.19-0.96c0.01,0.43,0.02,0.86,0.02,1.29C66.08,56.53,64.92,62.6,62.87,67.72"/>
<path class="st2" d="M57.39,59.57c-2.26-2.59-3.39-3.89-8.73-9.45c3.02-0.15,5.41-0.27,9.2-0.61c0.01,0.44,0.01,0.87,0.01,1.31
	C57.88,53.89,57.71,56.81,57.39,59.57"/>
<path class="st3" d="M15.8,19.22c1.36-3.06,2.36-4.58,5.26-7.06c5.39-3.24,11.58-5.21,18.17-5.49C30.16,7.49,21.92,12.2,15.8,19.22"
	/>
<path class="st2" d="M5.01,47.1c-1.59-0.46-2.81-0.96-3.64-1.48c0.43-14.1,8.27-26.62,19.68-33.47c-2.7,2.4-3.9,3.82-5.26,7.06
	C9.39,26.58,5.3,36.47,5.01,47.1"/>
<path class="st3" d="M38.72,50.32c-3.29,0-6.62-0.07-9.94-0.22c-0.1,0-0.2-0.01-0.3-0.01c0.05-6.96,0.62-13.74,1.56-19.82
	c2.83,3.55,4.31,5.27,8.69,9.84C38.72,43.43,38.72,46.86,38.72,50.32"/>
<path class="st3" d="M30.05,30.25c-2.65-3.68-3.78-5.6-4.88-9c3.64-7.67,8.59-13.11,14.05-14.58C35.33,8.86,31.93,18.14,30.05,30.25
	"/>
<path class="st2" d="M28.48,50.09c-3.41-0.15-6.58-0.37-9.47-0.65c0.16-10.46,2.49-20.46,6.16-28.19c1.12,3.26,2.02,5.11,4.88,9
	C29.1,36.33,28.54,43.12,28.48,50.09"/>
<path class="st3" d="M19.01,49.44c-1.09-0.1-2.13-0.22-3.14-0.34c-1.31-2-2.93-4.49-4.28-7.38c1.67-11.38,6.84-21.55,13.87-28.02
	c-0.94,2.58-1.12,4.12-0.31,7.58C21.5,29.01,19.17,38.99,19.01,49.44"/>
<path class="st2" d="M25.16,21.28c-0.7-3.18-0.76-4.81,0.31-7.58c4.07-3.75,8.76-6.25,13.76-7.03
	C33.75,8.13,28.79,13.59,25.16,21.28"/>
<path class="st2" d="M15.24,28.52c-0.57-3.79-0.57-5.76,0.56-9.31c6.12-7.02,14.36-11.73,23.42-12.55l0,0
	c-2.16,0.36-2.55,0.43-4.16,1.06C26.7,10.71,19.54,18.49,15.24,28.52"/>
<path class="st3" d="M25.49,13.65c1.31-2.28,2.18-3.37,5.47-5.11c2.64-0.98,5.41-1.62,8.26-1.88C34.24,7.44,29.55,9.93,25.49,13.65"
	/>
<path class="st3" d="M10.97,48.41c-2.34-0.39-4.34-0.83-5.96-1.31C5.3,36.47,9.39,26.57,15.8,19.22c-1,3.3-1.23,5.2-0.56,9.31
	C12.68,34.53,11.13,41.34,10.97,48.41"/>
<path class="st2" d="M21.09,12.14c2.86-2.06,4.47-3.04,8.93-4.4c2.95-0.7,6.03-1.07,9.2-1.07l0,0C32.65,6.95,26.48,8.91,21.09,12.14
	"/>
<path class="st3" d="M1.37,45.63c-0.82-0.51-1.24-1.05-1.22-1.59l0.07-1.36c1.13-17.04,13.46-31.06,29.8-34.94
	c-3.69,1.17-5.74,2.04-8.93,4.4C9.66,18.99,1.81,31.51,1.37,45.63"/>
<path class="st2" d="M19.01,49.44c-2.96-0.28-5.64-0.63-7.98-1.02c0.16-7.07,1.7-13.87,4.26-19.87c0.99,3.94,1.79,6.04,4.57,10.71
	C19.36,42.56,19.06,45.97,19.01,49.44"/>
<path class="st3" d="M19.01,49.46c0.05-3.49,0.35-6.92,0.85-10.24c2.39,3.56,3.86,5.66,8.62,10.87
	C25.22,49.93,22.86,49.81,19.01,49.46"/>
<path class="st2" d="M30.96,8.54c2.17-0.88,4.05-1.64,8.26-1.88l0,0C36.37,6.92,33.61,7.57,30.96,8.54"/>
<path class="st4" d="M77.04,45.61c1-0.58,1.46-1.16,1.44-1.74c0.54,16.3-8.64,28.94-19.5,35.25l-0.04,0.02l0.41-0.25
	c10.54-6.35,17.52-18.11,17.5-31.9c0-0.43-0.01-0.86-0.02-1.29C76.9,45.67,76.97,45.64,77.04,45.61c0.01,0.42,0.02,0.85,0.02,1.28"
	/>
<path class="st1" d="M57.77,20.47C57.77,20.47,57.77,20.47,57.77,20.47C57.77,20.47,57.77,20.47,57.77,20.47
	c0.01,0,0.02,0,0.03-0.01h0c0,0,0.01,0,0.02,0c0.38-0.06,0.74-0.12,1.08-0.18c2.23-0.41,7.09-1.48,7.09-2.95
	c0,0,2.17,1.98,3.62,4.68c0.17,0.29,0.32,0.6,0.44,0.91c0.13,0.31,0.22,0.6,0.26,0.85c0.01,0.02,0.02,0.03,0.03,0.05
	c0.01,0.12,0.01,0.23,0,0.34c0,0.04,0,0.08-0.01,0.12c-0.08,0.84-0.6,0.86-1.16,0.61c-0.06-0.02-0.12-0.04-0.18-0.07
	c-2-0.9-2.66-2.74-3.05-3.5c-1.02,0.32-2.7,1.05-4.1,1.33c-0.16,0.03-0.46,0.1-0.63,0.13c1.65,2.72,3.22,5.96,4.35,9.1
	c1.96-2.02,5.04,1.73,5.18,5.34c0.09,2.12-0.87,4.01-2.81,3.33c1.55,2.88,1.06,7.09-1.89,8.02c-0.49-9.46-2.09-17.85-8.32-28.08l0,0
	c0,0,0,0,0,0"/>
<path class="st1" d="M58.12,13.22c-0.01-0.01-0.02-0.01-0.03-0.02c0.01,0,0.02,0,0.02,0c-0.01-0.03-0.02-0.06-0.02-0.09
	c0.03-0.04,0.07-0.09,0.09-0.12c0.05-0.01,0.09-0.01,0.13-0.01l-0.01-0.01c0,0,0.28-1.19,4.76,1.9c-7.61-5.94-15.33-7.63-19.9-8.08
	c0.48,0.14,0.85,0.29,1.12,0.42c0.24,0.12,0.41,0.23,0.53,0.33c0.01,0,0.02,0,0.02,0c0.56,0.06,1.06,0.16,1.51,0.27v0c0,0,0,0,0,0
	c0.16,0.06,0.33,0.12,0.49,0.18C46.86,8,46.88,8.01,46.9,8.02c0.14,0.05,0.29,0.11,0.43,0.17c0.04,0.01,0.07,0.03,0.11,0.04
	c0.13,0.05,0.27,0.11,0.4,0.17c0.04,0.02,0.08,0.03,0.12,0.05c0.17,0.08,0.34,0.15,0.51,0.24l0,0.01c1.38,0.67,2.49,1.43,2.49,2
	c-0.21,0.12-0.27,0.16-0.87,0c2.31,1.64,5.61,4.74,7.57,7.02c1.34-0.25,3.34-0.54,4.27-0.85C61.86,16.94,58.52,14.43,58.12,13.22z"
	/>
<path class="st0" d="M65.96,17.36c-0.96-0.9-1.93-1.73-2.9-2.49c-1.81-1.25-2.94-1.8-3.64-2.01l0.01-0.01c0,0-2.23-0.72-0.97,0.99
	l0.01-0.01c0.97,1.29,3.39,3.09,3.45,3.04c-0.92,0.31-2.93,0.6-4.27,0.85c-1.95-2.28-5.26-5.38-7.57-7.02
	c0.61,0.16,0.67,0.13,0.87,0c-0.01-0.58-1.12-1.33-2.49-2l0-0.01c-0.17-0.08-0.34-0.16-0.51-0.24c-0.04-0.02-0.08-0.04-0.12-0.05
	c-0.13-0.06-0.27-0.12-0.4-0.17c-0.04-0.01-0.07-0.03-0.11-0.04c-0.14-0.06-0.29-0.11-0.43-0.17C46.88,8.01,46.86,8,46.83,7.99
	c-0.16-0.06-0.33-0.12-0.49-0.18c0,0,0,0,0,0c-0.45-0.11-0.95-0.21-1.51-0.27c0,0-0.01,0-0.02,0c0.03,0.03,0.05,0.05,0.08,0.08
	l-0.15-0.07c0.03,0,0.05,0,0.07-0.01c-0.12-0.1-0.29-0.22-0.53-0.33c-0.27-0.14-0.64-0.28-1.12-0.42c-1.11-0.11-2.04-0.14-2.73-0.15
	c-0.52-0.02-0.94-0.02-1.03,0.01c-0.01,0-0.01,0.01-0.01,0.01c-0.16,0.01-0.25,0.01-0.25,0.01l0.17,0.06
	c-0.1-0.02-0.2-0.03-0.3-0.05c0.24,0.04,0.49,0.09,0.73,0.14c0.61,0.2,1.87,0.54,2.83,0.79c5.85,2.06,11.12,6.67,15.2,12.87
	c0.06-0.01,0.12-0.02,0.18-0.03c3.62-0.61,5.63-1.28,7.07-1.94c0,0,0.01,0,0.01,0c1.04-0.57,0.92-1.14,0.92-1.14L65.96,17.36z"/>
<path class="st1" d="M57.73,20.49L57.73,20.49C57.73,20.49,57.73,20.49,57.73,20.49C57.73,20.49,57.73,20.49,57.73,20.49
	C57.73,20.49,57.73,20.49,57.73,20.49c-6.35-9.36-12.2-12.16-17.51-13.54c0.14,0.04,0.28,0.08,0.41,0.13
	c-0.25-0.07-0.5-0.13-0.72-0.19c-0.06-0.02-0.12-0.04-0.18-0.06c0.16,0.04,0.32,0.08,0.49,0.12c-0.18-0.05-0.37-0.1-0.56-0.15
	c-0.07-0.02-0.12-0.04-0.15-0.05c0.02,0.01,0.03,0.02,0.05,0.03c-0.12-0.03-0.25-0.06-0.37-0.08l0,0l0,0
	c1.14,1.26,2.73,1.79,3.12,1.9c-0.11,0.47-0.03,1.41,1.61,2.6c0.26,0.18,0.5,0.33,0.74,0.45c2.53,1.32,3.09,0.29,3.21-0.12
	c0.01-0.01,0.03-0.02,0.04-0.03c0.77,0.57,2.28,1.78,3.94,3.67c0.96,1.15,1.86,2.15,2.54,3.16c-1.56,0.2-3.64,0.38-5.69,0.53
	c-0.12-2.49-1.91-3.73-3.04-4.15c-2.47-0.92-3.28,1.99-2.21,4.03c-1.95-1.06-4.27-0.11-4.59,2.97
	C46.57,21.66,51.86,21.32,57.73,20.49C57.73,20.49,57.73,20.49,57.73,20.49C57.73,20.49,57.73,20.49,57.73,20.49"/>
<path class="st2" d="M38.73,40.11c-3.83-4.02-5.89-6.28-8.69-9.84c1.88-12.12,5.28-21.41,9.18-23.61l0,0l0,0
	C38.97,9.52,38.78,23.47,38.73,40.11"/>
<g>
	<path d="M123.98,83.63L106.2,46.41h-0.14l-1.9,31.4c-0.21,3.56,2.46,4.33,5.6,4.47v1.35H95.21v-1.35c5.09,0,5.72-1.12,6.07-7.47
		l1.67-27.15c0.28-4.61,0.14-5.86-4.19-6.14v-1.25h10.56l16.81,35.17l16.74-35.17h10.25v1.25c-3.42,0.28-4.74,0.35-4.6,2.72
		l2.23,31.61c0.42,6.42,0.98,6.42,6.07,6.42v1.35h-17.93v-1.35c3.28,0,6.49-0.91,6.21-4.61l-2.02-31.26h-0.14l-17.37,37.22H123.98z"
		/>
	<path d="M184.84,61.28h-12.07l5.93-16.14L184.84,61.28z M186.02,64.38l4.67,12.67c0.28,0.7,0.77,1.74,0.77,2.86
		c0,1.95-1.46,2.37-5.44,2.37h-1.81v1.35h19.18v-1.35c-3.49,0-4.95-0.7-6.35-4.39l-14.58-38.62h-6.07l0.63,1.53l-12.7,34.59
		c-2.23,6.06-3,6.82-7.53,6.89v1.35h16.12v-1.35h-1.12c-3.84,0-5.65-0.7-5.65-2.58c0-0.97,0.91-3.06,1.39-4.39l4.05-10.93H186.02z"
		/>
	<path d="M215.88,41.15c1.26-0.14,2.17-0.14,3.51-0.14c10.8,0,13.74,5.02,13.74,11.5c0,8.37-5.12,11.64-12.9,11.64
		c-1.61,0-2.66,0.07-4.35-0.14V41.15z M215.88,65.36c1.12,0.07,2.03,0.14,3.58,0.14c1.89,0,3.01-0.07,4.77-0.14
		c1.68,1.11,4.14,3.12,7.22,6.17l4.59,4.57c6.18,6.2,9.31,8.84,21.52,8.28v-1.25c-5.37-0.35-9.63-2.92-13.74-7.01l-5.5-5.48
		c-3.25-3.26-5.33-5.21-7.92-7.26c5.71-1.67,9.23-6.06,9.23-11.29c0-7.11-5.74-12.44-18.7-12.44c-4.56,0-5.95,0.07-8.79,0.21
		c-2.85,0.13-7.1,0.41-8.77,0.41v1.35h1.53c4.05,0,5.23,1.26,5.23,5.58v29.31c0,4.64-1.46,5.75-5.58,5.75h-1.19v1.35h19.74v-1.35
		h-1.61c-3.93,0-5.61-1.04-5.61-5.2V65.36z"/>
	<path d="M281.44,46.65c2.23-3.83,0.91-5.01-3.55-5.01v-1.35h15.72v1.35c-4.73,0.35-6.74,2.23-8.69,5.5l-11.56,19.56v10.44
		c0,3.69,1.32,5.15,5.57,5.15h0.91v1.35h-19.19v-1.35h1.34c4.36,0,5.63-1.6,5.63-5.01v-9.81l-12.48-19.35
		c-3.41-5.36-5-6.33-9.52-6.47v-1.35h18.55v1.35c-5.48,0-5.83,1.32-3.73,4.52l11.2,17.19L281.44,46.65z"/>
	<path d="M324.2,83.63h-31.14v-1.35h2.3c3.21,0,4.39-1.04,4.39-4.59V46.86c0-3.69-1.12-5.23-5.51-5.23h-0.98v-1.35h20.54v1.35h-2.58
		c-4.53,0-5.72,0.49-5.72,4.81v32.12c0,1.88,0.77,2.58,2.79,2.58h10.25c4.12,0,5.37-1.6,9.76-7.7h1.26L324.2,83.63z"/>
	<path d="M356,61.28h-12.07l5.93-16.14L356,61.28z M357.18,64.38l4.67,12.67c0.28,0.7,0.77,1.74,0.77,2.86
		c0,1.95-1.46,2.37-5.44,2.37h-1.81v1.35h19.18v-1.35c-3.49,0-4.95-0.7-6.35-4.39l-14.58-38.62h-6.07l0.63,1.53l-12.7,34.59
		c-2.23,6.06-3,6.82-7.53,6.89v1.35h16.12v-1.35h-1.12c-3.84,0-5.65-0.7-5.65-2.58c0-0.97,0.91-3.06,1.4-4.39l4.05-10.93H357.18z"/>
	<path d="M419.79,84.14l-36.07-37.77v29.86c0,5.01,1.11,6.05,7.03,6.05v1.35H374.6v-1.35h0.28c4.32,0,5.72-1.46,5.72-4.66V43.38
		c-1.6-1.11-3.42-1.67-5.86-1.74v-1.35h10.93l32.8,34.24V46.79c0-4.25-1.25-5.02-6.82-5.16v-1.35h16.3v1.35
		c-5.23,0-6.35,0.91-6.35,3.62v38.88H419.79z"/>
	<path d="M440.93,41.29c0.84-0.07,2.72-0.28,5.59-0.28c9.78,0,14.74,2.44,17.95,5.64c4.12,4.11,5.59,9.81,5.59,14.96
		c0,7.17-3.21,12.53-5.8,15.03c-4.33,4.31-8.24,5.64-17.6,5.64c-5.52,0-5.73-0.97-5.73-3.83V41.29z M435.18,77.2
		c0,4.04-1.74,5.08-5.51,5.08h-1.19v1.35h22.29c17.67,0,25.77-12.63,25.77-23.13c0-11.48-8.11-20.84-26.54-20.84
		c-3.63,0-7.89,0.07-11.71,0.21c-3.81,0.13-7.23,0.27-9.81,0.41v1.24h1.39c4.12,0,5.3,1.12,5.3,5.65V77.2z"/>
	<path d="M124.24,11.28v0.62c-2.25,0.03-3.06,0.94-3.06,3.09v9.08c0,4.17-2.66,8.64-9.95,8.64c-6.42,0-9.72-3.67-9.72-8.47v-9.82
		c0-2.15-0.61-2.49-2.89-2.52v-0.62h8.65v0.62h-0.3c-1.85,0-2.65,0.5-2.65,2.45v9.34c0,4.54,2.65,7.26,7.66,7.26
		c3.8,0,7.66-1.58,7.66-7.29v-7.83c0-3.23-0.5-3.8-3.29-3.93v-0.62H124.24z"/>
	<path d="M157.07,32.47L139.68,14.2v14.46c0,2.43,0.54,2.93,3.39,2.93v0.62h-7.78v-0.62h0.13c2.09,0,2.76-0.71,2.76-2.26V12.75
		c-0.77-0.54-1.65-0.81-2.83-0.84v-0.62h5.27l15.81,16.53V14.4c0-2.06-0.6-2.43-3.29-2.49v-0.62h7.85v0.62
		c-2.52,0-3.06,0.44-3.06,1.75v18.81H157.07z"/>
	<path d="M182.71,32.22h-8.18v-0.62c2.09-0.1,2.52-0.64,2.52-2.9V14.34c0-1.82-0.64-2.33-2.52-2.43v-0.62h8.18v0.62
		c-2.12,0-2.86,0.47-2.86,2.73v14.29c0,1.99,0.54,2.66,2.86,2.66V32.22z"/>
	<path d="M205.27,32.72l-7.3-18.19c-0.84-2.12-1.25-2.62-3.3-2.62v-0.62h9.26v0.62c-3.09,0.07-3.83,0.77-3.19,2.32l6.05,15.06
		l5.31-13.88c0.37-0.94,0.57-1.61,0.57-2.08c0-1.01-0.84-1.41-3.13-1.41v-0.62h7.8v0.62c-1.75,0-2.66,0.81-3.46,2.89l-6.93,17.92
		H205.27z"/>
	<path d="M243.75,24.64h-0.62c-0.27-2.4-0.91-2.67-2.3-2.67h-5.71v7.2c0,1.56,0.57,1.86,1.82,1.86h5.2c2.35,0,3.05-0.91,3.89-3.83
		h0.61l-0.54,5.01h-17.89v-0.62h0.94c2.69,0,3.16-0.74,3.16-2.77V14.61c0-1.89-0.44-2.7-2.69-2.7h-0.74v-0.62h16.17l0.27,4.67h-0.61
		c-0.44-2.87-1.27-3.48-2.48-3.48h-7.13v8.31h6.05c1.22,0,1.79-0.57,1.96-2.53h0.62V24.64z"/>
	<path d="M266.23,11.66c0.6-0.07,1.04-0.07,1.68-0.07c5.17,0,6.58,2.43,6.58,5.56c0,4.04-2.45,5.63-6.18,5.63
		c-0.77,0-1.28,0.03-2.08-0.07V11.66z M266.23,23.34c0.54,0.03,0.97,0.07,1.71,0.07c0.91,0,1.44-0.03,2.28-0.07
		c0.81,0.54,1.98,1.52,3.46,3.01l2.22,2.23c3,2.99,4.52,4.27,10.4,4v-0.61c-2.59-0.17-4.64-1.42-6.63-3.41l-2.66-2.66
		c-1.59-1.59-2.6-2.53-3.84-3.49c2.76-0.81,4.49-2.93,4.49-5.46c0-3.44-2.8-5.98-9.02-5.98c-2.18,0-2.86,0.03-4.24,0.1
		c-1.38,0.08-3.43,0.21-4.24,0.21v0.62h0.74c1.95,0,2.52,0.61,2.52,2.69v14.18c0,2.27-0.71,2.81-2.69,2.81h-0.57v0.62h9.52v-0.62
		h-0.77c-1.88,0-2.69-0.51-2.69-2.54V23.34z"/>
	<path d="M295.42,27.06c0.7,2.99,3.04,4.73,5.65,4.73c2.25,0,4.63-1.31,4.63-3.96c0-4.83-10.75-6.31-10.75-12.18
		c0-2.78,2.53-4.87,5.95-4.87c2.82,0,3.39,0.84,4.56,0.84c0.27,0,0.4-0.07,0.6-0.34h0.53l0.57,4.27h-0.57
		c-0.93-2.42-3.08-3.96-5.39-3.96c-2.21,0-3.76,1.27-3.76,3.15c0,4.76,10.75,6.04,10.75,12.21c0,3.29-2.9,5.76-6.83,5.76
		c-1.84,0-4.19-0.93-4.66-0.93c-0.3,0-0.53,0.17-0.67,0.43h-0.57l-0.7-5.16H295.42z"/>
	<path d="M331.82,32.22h-8.18v-0.62c2.09-0.1,2.52-0.64,2.52-2.9V14.34c0-1.82-0.64-2.33-2.52-2.43v-0.62h8.18v0.62
		c-2.12,0-2.86,0.47-2.86,2.73v14.29c0,1.99,0.54,2.66,2.86,2.66V32.22z"/>
	<path d="M355.74,29.13c0,1.82,0.61,2.46,2.66,2.46h1.25v0.62h-10.61v-0.62h1.24c2.05,0,2.66-0.64,2.66-2.46V12.47h-5.85
		c-1.35,0-1.95,0.78-2.46,3.74h-0.61l0.54-5.43h0.64c0.03,0.2,0.17,0.33,0.37,0.4c0.2,0.07,0.44,0.1,0.67,0.1h16.19
		c0.47,0,0.98-0.1,1.04-0.5h0.64l0.54,5.43h-0.61c-0.5-2.97-1.11-3.74-2.46-3.74h-5.85V29.13z"/>
	<path d="M392.52,14.34c1.08-1.85,0.44-2.43-1.73-2.43v-0.62h7.61v0.62c-2.28,0.17-3.26,1.08-4.2,2.66l-5.62,9.47v5.06
		c0,1.79,0.64,2.49,2.71,2.49h0.44v0.62h-9.24v-0.62h0.63c2.06,0,2.65-0.78,2.65-2.43v-4.75l-5.94-9.37
		c-1.65-2.6-2.43-3.07-4.62-3.14v-0.62h8.94v0.62c-2.59,0-2.76,0.64-1.76,2.19l5.34,8.33L392.52,14.34z"/>
	<path d="M445.3,22.27c0,4.78-2.63,9.64-8.12,9.64c-5.42,0-9.7-4.45-9.7-10.75c0-4.04,2.36-9.57,8.29-9.57
		C441.33,11.59,445.3,16.01,445.3,22.27z M448.48,21.16c0-6.06-5.47-10.38-11.83-10.38c-7.18,0-12.34,4.72-12.34,11.42
		c0,6.3,5.57,10.51,12.17,10.51C443.01,32.72,448.48,27.97,448.48,21.16z"/>
	<path d="M471.22,24.16h-0.56c-0.07-1.96-0.78-2.57-2.39-2.57h-6.24v7.4c0,1.89,0.4,2.6,2.93,2.6v0.62h-8.19v-0.62
		c2.09-0.14,2.46-0.57,2.46-3.31v-13.2c0-2.16-0.17-3.14-2.52-3.17v-0.62h15.08v3.96h-0.56c-0.03-1.96-0.71-2.77-2.79-2.77h-6.4
		v7.94h6.67c1.25,0,1.85-0.71,1.96-2.16h0.56V24.16z"/>
	<rect x="427.75" y="40.23" width="0.79" height="1.3"/>
</g>
</svg>
