<?xml version="1.0" encoding="utf-8"?>
<!-- Generator: Adobe Illustrator 24.0.0, SVG Export Plug-In . SVG Version: 6.00 Build 0)  -->
<svg version="1.1" id="Layer_1" xmlns="http://www.w3.org/2000/svg" xmlns:xlink="http://www.w3.org/1999/xlink" x="0px" y="0px"
	 viewBox="0 0 252 62" style="enable-background:new 0 0 252 62;" xml:space="preserve">
<style type="text/css">
	.st0{fill:#D4D88D;}
	.st1{fill:#B2BB1E;}
</style>
<path d="M89.26,42.52c-0.62,0-2.78,0.09-3.27,0.09v-0.57c0.93-0.22,1.5-1.06,1.5-1.77v-6.62H77.02v6.62c0,0.71,0.58,1.5,1.55,1.77
	v0.57c-0.49,0-2.69-0.09-3.31-0.09c-0.53,0-2.6,0.09-3.09,0.09v-0.57c0.93-0.22,1.5-1.06,1.5-1.77V26.44c0-0.66-0.53-1.5-1.5-1.77
	V24.1c0.49,0,2.56,0.09,3.09,0.09c0.61,0,2.82-0.09,3.31-0.09v0.57c-0.93,0.22-1.55,1.06-1.55,1.77v5.44H87.5v-5.44
	c0-0.71-0.53-1.54-1.5-1.77V24.1c0.49,0,2.65,0.09,3.27,0.09c0.53,0,2.65-0.09,3.13-0.09v0.57c-0.93,0.22-1.55,1.06-1.55,1.77v13.83
	c0,0.66,0.58,1.5,1.55,1.77v0.57C91.91,42.6,89.79,42.52,89.26,42.52"/>
<path d="M111.94,42.12c-0.71,0.48-1.63,1.23-1.63,1.23c-0.62-0.57-1.81-1.76-2.03-3.4c-1.54,1.55-3.7,2.95-6.44,2.95
	c-3.79,0-5.42-2.42-5.42-5.38V28.8c0-1.41-0.79-2.07-2.25-2.39v-0.49l5.12-2.03h0.48v11.16c0,3.13,0.66,5.61,3.8,5.61
	c1.98,0,3.71-1.33,4.59-2.43V28.8c0-1.41-0.79-2.07-2.25-2.39v-0.49l5.12-2.03h0.49v14.82c0,1.41,0.44,1.76,0.97,1.76
	c0.31,0,0.8-0.05,1.02-0.18l0.31,0.7C113.79,41.01,112.87,41.5,111.94,42.12"/>
<path d="M141.31,42.52c-0.57,0-3.04,0.09-3.57,0.09v-0.53c0.93-0.4,1.94-0.88,1.94-1.72v-8.6c0-3.13-0.18-5.61-3.31-5.61
	c-1.76,0-3.48,1.02-4.5,2.03c0.04,0.35,0.04,0.75,0.04,1.1v11.08c0,0.88,0.93,1.28,1.98,1.72v0.53c-0.57,0-3.13-0.09-3.71-0.09
	c-0.57,0-3.04,0.09-3.57,0.09v-0.53c0.93-0.4,1.94-0.88,1.94-1.72v-8.6c0-3.13-0.18-5.61-3.31-5.61c-1.98,0-3.53,1.33-4.41,2.43
	v11.78c0,0.88,0.92,1.28,1.98,1.72v0.53c-0.58,0-3.13-0.09-3.71-0.09c-0.57,0-3.05,0.09-3.57,0.09v-0.53
	c0.93-0.4,1.94-0.88,1.94-1.72V28.8c0-1.41-0.79-2.07-2.25-2.38v-0.49l4.94-2.03h0.48l0.18,2.87c1.59-1.5,3.4-2.87,6.13-2.87
	c2.6,0,3.97,1.19,4.55,2.87c1.59-1.5,3.88-2.87,6.57-2.87c3.79,0,4.94,2.43,4.94,5.38v11.08c0,0.88,0.92,1.28,1.98,1.72v0.53
	C144.44,42.6,141.88,42.52,141.31,42.52"/>
<path d="M161.56,42.12c-0.71,0.48-1.63,1.23-1.63,1.23c-0.62-0.57-1.37-1.54-1.81-2.78c-1.28,1.41-3.36,2.34-5.69,2.34
	c-3.36,0-5.74-1.59-5.74-5.16c0-3.35,3.18-5.07,6.4-5.65c0.88-0.13,3.71-0.18,4.67-0.18v-2.87c0-1.98-1.23-3.62-3.92-3.62
	c-2.16,0-3.62,1.06-4.68,2.91h-0.57v-3.58c1.68-0.48,3.62-0.88,6.22-0.88c5.25,0,6.31,2.69,6.31,5.65v9.18
	c0,1.41,0.44,1.76,0.97,1.76c0.31,0,0.79-0.05,1.02-0.18l0.31,0.7C163.42,41.01,162.49,41.5,161.56,42.12 M157.77,33.34h-2.6
	c-2.61,0-4.9,1.41-4.9,4.24c0,2.03,1.37,3.22,3.04,3.22c1.77,0,3.53-0.97,4.46-2.47V33.34z"/>
<path d="M180.5,42.52c-0.57,0-3.05,0.09-3.57,0.09v-0.53c0.93-0.4,1.94-0.88,1.94-1.72v-8.6c0-3.13-1.24-5.61-4.37-5.61
	c-1.99,0-3.71,1.33-4.59,2.43v11.78c0,0.88,0.93,1.28,1.99,1.72v0.53c-0.57,0-3.13-0.09-3.71-0.09c-0.57,0-3.04,0.09-3.57,0.09
	v-0.53c0.93-0.4,1.94-0.88,1.94-1.72V28.8c0-1.41-0.79-2.07-2.25-2.38v-0.49l4.94-2.03h0.48l0.18,2.87c1.59-1.5,3.57-2.87,6.31-2.87
	c3.79,0,6,2.43,6,5.38v11.08c0,0.88,0.93,1.28,1.99,1.72v0.53C183.63,42.6,181.07,42.52,180.5,42.52"/>
<path d="M189.85,42.52c-0.57,0-3.04,0.09-3.57,0.09v-0.53c0.93-0.4,1.94-0.88,1.94-1.72V28.8c0-1.41-0.79-2.07-2.25-2.38v-0.49
	l5.12-2.03h0.48v16.46c0,0.88,0.92,1.28,1.98,1.72v0.53C192.98,42.6,190.42,42.52,189.85,42.52"/>
<path d="M202.16,42.91c-2.12,0-4.19-1.01-4.19-5.16V25.88h-2.74v-1.06l2.38-0.71c1.28-1.14,1.9-2.91,2.25-4.98h1.46v5.07h5.43v1.68
	h-5.43v11.29c0,2.34,0.75,3.13,2.12,3.13c1.32,0,2.16-0.66,2.73-1.28l0.71,0.66C206.4,40.62,204.67,42.91,202.16,42.91"/>
<path d="M212.75,42.52c-0.57,0-3.05,0.09-3.57,0.09v-0.53c0.93-0.4,1.94-0.88,1.94-1.72V28.8c0-1.41-0.79-2.07-2.25-2.38v-0.49
	l5.12-2.03h0.49v16.46c0,0.88,0.93,1.28,1.99,1.72v0.53C215.88,42.6,213.32,42.52,212.75,42.52"/>
<path d="M234.68,31.93h-12.53c-0.57,5.07,2.25,8.87,6.44,8.87c2.38,0,4.01-0.4,5.12-1.54l0.75,0.84c-0.97,1.15-2.96,2.82-6.44,2.82
	c-6.22,0-9.53-3.79-9.53-9.53c0-5.82,4.01-9.48,8.82-9.48c4.67,0,7.72,3.31,7.5,7.1C234.81,31.31,234.77,31.71,234.68,31.93
	 M227.36,25.48c-2.91,0-4.63,2.69-5.03,4.94h8.91C231.55,28.22,230.14,25.48,227.36,25.48"/>
<path d="M243.64,42.91c-1.81,0-4.06-0.44-5.56-0.88v-3.88h0.57c1.23,2.21,2.64,3.18,4.94,3.18c2.52,0,3.88-0.93,3.88-2.56
	c0-1.06-0.53-1.77-1.46-2.2l-5.47-2.69c-1.76-0.89-2.87-2.25-2.87-4.41c0-3.62,3.27-5.56,6.75-5.56c1.81,0,4.06,0.44,5.56,0.88v3.75
	h-0.57c-0.97-1.72-2.6-3.05-4.9-3.05c-2.16,0-3.53,1.15-3.53,2.78c0,1.41,0.53,2.12,1.98,2.82l5.56,2.69
	c0.97,0.48,2.16,1.67,2.16,3.71C250.7,40.97,247.96,42.91,243.64,42.91"/>
<g>
	<path d="M73.33,13.31h1.42l2.02,3.3h0.01v-3.3h1.04v4.74h-1.37l-2.07-3.38h-0.01v3.38h-1.04V13.31z"/>
	<path d="M80.55,13.31h0.86l2.06,4.74H82.3l-0.41-1h-1.84l-0.4,1H78.5L80.55,13.31z M80.95,14.69l-0.58,1.47h1.16L80.95,14.69z"/>
	<path d="M84.46,14.24h-1.35v-0.92h3.75v0.92h-1.35v3.82h-1.04V14.24z"/>
	<path d="M87.58,13.31h1.04v4.74h-1.04V13.31z"/>
	<path d="M92.08,13.19c1.48,0,2.56,0.97,2.56,2.49c0,1.52-1.08,2.49-2.56,2.49c-1.48,0-2.56-0.97-2.56-2.49
		C89.52,14.16,90.6,13.19,92.08,13.19z M92.08,17.21c0.89,0,1.47-0.64,1.47-1.53c0-0.88-0.58-1.53-1.47-1.53
		c-0.89,0-1.47,0.64-1.47,1.53C90.61,16.57,91.19,17.21,92.08,17.21z"/>
	<path d="M95.55,13.31h1.42l2.02,3.3H99v-3.3h1.04v4.74h-1.37l-2.07-3.38H96.6v3.38h-1.04V13.31z"/>
	<path d="M102.77,13.31h0.86l2.06,4.74h-1.18l-0.41-1h-1.84l-0.4,1h-1.15L102.77,13.31z M103.18,14.69l-0.58,1.47h1.16L103.18,14.69
		z"/>
	<path d="M106.42,13.31h1.04v3.78h1.94v0.96h-2.98V13.31z"/>
</g>
<g>
	<path d="M111.86,13.31h3.22v0.96h-2.18v0.88h2.06v0.96h-2.06v0.96h2.3v0.96h-3.34V13.31z"/>
	<path d="M116.24,13.31h1.42l2.02,3.3h0.01v-3.3h1.04v4.74h-1.37l-2.07-3.38h-0.01v3.38h-1.04V13.31z"/>
	<path d="M121.9,13.31h1.57c1.53,0,2.81,0.65,2.81,2.38c0,1.53-1.25,2.36-2.67,2.36h-1.71V13.31z M122.95,17.09h0.54
		c0.97,0,1.7-0.37,1.7-1.45c0-0.93-0.74-1.37-1.63-1.37h-0.62V17.09z"/>
	<path d="M129.49,13.19c1.48,0,2.56,0.97,2.56,2.49c0,1.52-1.08,2.49-2.56,2.49c-1.48,0-2.56-0.97-2.56-2.49
		C126.93,14.16,128.01,13.19,129.49,13.19z M129.49,17.21c0.89,0,1.47-0.64,1.47-1.53c0-0.88-0.58-1.53-1.47-1.53
		c-0.89,0-1.47,0.64-1.47,1.53C128.02,16.57,128.6,17.21,129.49,17.21z"/>
	<path d="M132.47,13.31h1.14l0.76,3.04h0.01l0.99-3.04h0.97l0.98,3.12h0.01l0.8-3.12h1.06l-1.39,4.74h-0.93l-1.04-3.28h-0.01
		l-1.04,3.28h-0.9L132.47,13.31z"/>
	<path d="M139.86,13.31h1.58l1.09,3.09h0.01l1.1-3.09h1.57v4.74h-1.04v-3.64h-0.01l-1.25,3.64h-0.8l-1.2-3.64h-0.01v3.64h-1.04
		V13.31z"/>
	<path d="M146.42,13.31h3.22v0.96h-2.18v0.88h2.06v0.96h-2.06v0.96h2.3v0.96h-3.34V13.31z"/>
	<path d="M150.81,13.31h1.42l2.02,3.3h0.01v-3.3h1.05v4.74h-1.37l-2.07-3.38h-0.01v3.38h-1.04V13.31z"/>
	<path d="M157.39,14.24h-1.35v-0.92h3.75v0.92h-1.35v3.82h-1.04V14.24z"/>
</g>
<g>
	<path d="M162.21,13.31h3.18v0.96h-2.14v0.96h1.98v0.96h-1.98v1.85h-1.04V13.31z"/>
	<path d="M168.65,13.19c1.48,0,2.56,0.97,2.56,2.49c0,1.52-1.08,2.49-2.56,2.49c-1.48,0-2.56-0.97-2.56-2.49
		C166.09,14.16,167.17,13.19,168.65,13.19z M168.65,17.21c0.89,0,1.47-0.64,1.47-1.53c0-0.88-0.58-1.53-1.47-1.53
		c-0.89,0-1.47,0.64-1.47,1.53C167.17,16.57,167.76,17.21,168.65,17.21z"/>
	<path d="M172.12,13.31h1.84c0.97,0,1.79,0.33,1.79,1.44c0,0.66-0.36,1.18-1.03,1.3l1.21,2h-1.25l-0.99-1.9h-0.52v1.9h-1.04V13.31z
		 M173.16,15.28h0.62c0.38,0,0.88-0.01,0.88-0.53c0-0.48-0.43-0.55-0.81-0.55h-0.68V15.28z"/>
</g>
<g>
	<path d="M179.23,14.24h-1.35v-0.92h3.75v0.92h-1.35v3.82h-1.04V14.24z"/>
	<path d="M182.36,13.31h1.04v1.77h2.03v-1.77h1.04v4.74h-1.04v-2.05h-2.03v2.05h-1.04V13.31z"/>
	<path d="M187.68,13.31h3.22v0.96h-2.18v0.88h2.06v0.96h-2.06v0.96h2.3v0.96h-3.34V13.31z"/>
</g>
<path class="st0" d="M34.24,30.93c0,1.79-1.45,3.24-3.25,3.24c-1.78,0-3.24-1.45-3.24-3.24c0-1.79,1.46-3.24,3.24-3.24
	C32.8,27.69,34.24,29.14,34.24,30.93"/>
<path class="st0" d="M29.04,2.51c-0.09-1.62,0.54-1.91,1.97-1.91c1.42,0,2.06,0.3,1.96,1.92l-1.35,19.78
	c-0.06,0.45-0.25,1.42-0.64,1.42c-0.4,0-0.59-0.98-0.64-1.42L29.04,2.51z"/>
<path class="st1" d="M49.71,9.45c1.08-1.21,1.74-0.97,2.75,0.04c1,1.01,1.25,1.67,0.03,2.74L37.54,25.26
	c-0.35,0.27-1.18,0.83-1.46,0.55c-0.28-0.28,0.28-1.11,0.55-1.46L49.71,9.45z"/>
<path class="st1" d="M59.42,28.97c1.62-0.09,1.91,0.54,1.91,1.97c0,1.42-0.3,2.06-1.92,1.96l-19.78-1.35
	c-0.44-0.06-1.42-0.25-1.42-0.64c0-0.4,0.99-0.59,1.42-0.64L59.42,28.97z"/>
<path class="st1" d="M52.49,49.64c1.21,1.08,0.97,1.74-0.04,2.74c-1,1-1.67,1.25-2.74,0.03L36.68,37.47
	c-0.27-0.35-0.83-1.18-0.55-1.46c0.28-0.28,1.11,0.28,1.46,0.55L52.49,49.64z"/>
<path class="st1" d="M32.97,59.35c0.09,1.62-0.54,1.91-1.97,1.91c-1.42,0-2.06-0.3-1.96-1.92l1.35-19.78
	c0.05-0.44,0.25-1.42,0.64-1.42c0.4,0,0.59,0.99,0.64,1.42L32.97,59.35z"/>
<path class="st1" d="M12.3,52.42c-1.08,1.21-1.74,0.97-2.74-0.04c-1-1.01-1.24-1.67-0.03-2.74L24.46,36.6
	c0.35-0.27,1.18-0.83,1.46-0.55c0.28,0.28-0.28,1.11-0.55,1.46L12.3,52.42z"/>
<path class="st1" d="M2.58,32.89c-1.62,0.09-1.91-0.54-1.91-1.97c0-1.42,0.3-2.06,1.92-1.96l19.78,1.35
	c0.44,0.05,1.42,0.25,1.42,0.64c0,0.4-0.99,0.59-1.42,0.64L2.58,32.89z"/>
<path class="st1" d="M9.52,12.22c-1.21-1.08-0.97-1.74,0.04-2.74c1-1,1.67-1.25,2.74-0.03l13.03,14.94
	c0.28,0.35,0.83,1.18,0.55,1.46c-0.28,0.28-1.11-0.28-1.46-0.55L9.52,12.22z"/>
<path class="st1" d="M34.57,21.83c-0.19,0.61-0.25,1.26-0.44,1.87c-0.18,0.57-0.29,0.74-0.85,0.56c-0.89-0.29,0.12-3.47,0.27-3.93
	c1.3-4.06,7.05-8.05,8.19-11.61c0.64-2.01-0.35-4.23-2.46-4.9c-1.82-0.58-2.59,0.51-3.24,0.3c-0.19-0.06-0.27-0.29-0.21-0.48
	c0.28-0.89,2.23-2.17,5.79-1.04c2.9,0.93,4.58,4.04,3.65,6.94C43.72,14.45,36.61,15.42,34.57,21.83"/>
<path class="st1" d="M39.96,27.01c-0.57,0.3-1.07,0.72-1.63,1.01c-0.52,0.27-0.73,0.32-0.99-0.2c-0.43-0.83,2.54-2.36,2.97-2.59
	c3.79-1.96,10.68-0.71,14-2.42c1.87-0.97,2.75-3.24,1.73-5.2c-0.88-1.7-2.19-1.47-2.51-2.08c-0.09-0.17,0.02-0.4,0.2-0.49
	c0.83-0.43,3.11,0.04,4.83,3.37c1.39,2.7,0.38,6.1-2.33,7.49C51.65,28.27,45.94,23.93,39.96,27.01"/>
<path class="st1" d="M40.1,34.5c-0.61-0.19-1.26-0.25-1.87-0.44c-0.57-0.18-0.74-0.29-0.56-0.84c0.28-0.89,3.46,0.12,3.93,0.27
	c4.07,1.3,8.05,7.05,11.61,8.19c2.01,0.64,4.23-0.35,4.9-2.46c0.58-1.82-0.51-2.59-0.31-3.24c0.06-0.19,0.29-0.27,0.48-0.21
	c0.89,0.28,2.17,2.23,1.03,5.8c-0.93,2.9-4.04,4.58-6.94,3.65C47.48,43.65,46.51,36.54,40.1,34.5"/>
<path class="st1" d="M34.92,39.89c-0.3-0.57-0.72-1.07-1.01-1.63c-0.28-0.52-0.32-0.72,0.2-0.99c0.83-0.43,2.36,2.54,2.59,2.97
	c1.96,3.79,0.71,10.68,2.42,14c0.97,1.88,3.24,2.75,5.2,1.73c1.7-0.87,1.47-2.19,2.07-2.51c0.17-0.09,0.4,0.02,0.49,0.2
	c0.43,0.83-0.05,3.11-3.37,4.83c-2.7,1.39-6.1,0.38-7.49-2.33C33.66,51.58,38,45.86,34.92,39.89"/>
<path class="st1" d="M27.44,40.04c0.19-0.61,0.25-1.27,0.44-1.87c0.18-0.57,0.29-0.74,0.84-0.56c0.89,0.29-0.12,3.47-0.27,3.93
	c-1.3,4.07-7.05,8.05-8.19,11.61c-0.64,2.01,0.35,4.24,2.46,4.9c1.82,0.58,2.59-0.51,3.24-0.31c0.19,0.06,0.27,0.29,0.21,0.49
	c-0.28,0.89-2.24,2.17-5.8,1.03c-2.9-0.93-4.58-4.04-3.65-6.94C18.28,47.41,25.39,46.44,27.44,40.04"/>
<path class="st1" d="M22.04,34.85c0.57-0.3,1.07-0.72,1.63-1.01c0.53-0.28,0.73-0.32,0.99,0.2c0.43,0.83-2.54,2.36-2.97,2.59
	c-3.8,1.96-10.68,0.71-14,2.42c-1.87,0.97-2.75,3.24-1.73,5.2c0.88,1.7,2.19,1.47,2.51,2.07c0.09,0.17-0.02,0.4-0.2,0.49
	c-0.82,0.43-3.11-0.05-4.83-3.37c-1.39-2.71-0.38-6.09,2.33-7.49C10.35,33.59,16.07,37.93,22.04,34.85"/>
<path class="st1" d="M21.9,27.36c0.61,0.19,1.26,0.25,1.87,0.44c0.57,0.18,0.74,0.29,0.56,0.84c-0.29,0.89-3.47-0.12-3.93-0.27
	c-4.07-1.3-8.05-7.05-11.61-8.19c-2.01-0.64-4.23,0.35-4.9,2.46c-0.58,1.82,0.51,2.59,0.31,3.24c-0.06,0.19-0.29,0.27-0.48,0.2
	c-0.89-0.28-2.17-2.24-1.03-5.79c0.93-2.9,4.04-4.58,6.94-3.65C14.52,18.21,15.49,25.32,21.9,27.36"/>
<path class="st1" d="M27.08,21.97c0.3,0.57,0.72,1.07,1.01,1.63c0.27,0.52,0.32,0.73-0.2,0.99c-0.83,0.43-2.36-2.54-2.59-2.98
	c-1.96-3.79-0.71-10.67-2.42-14c-0.97-1.87-3.24-2.75-5.2-1.73c-1.7,0.87-1.47,2.19-2.07,2.51c-0.17,0.09-0.4-0.02-0.49-0.2
	c-0.43-0.83,0.05-3.11,3.37-4.83c2.7-1.39,6.1-0.38,7.49,2.32C28.34,10.28,24,16,27.08,21.97"/>
</svg>
