<?xml version="1.0" encoding="utf-8"?>
<!-- Generator: Adobe Illustrator 24.0.0, SVG Export Plug-In . SVG Version: 6.00 Build 0)  -->
<svg version="1.1" id="Layer_1" xmlns="http://www.w3.org/2000/svg" xmlns:xlink="http://www.w3.org/1999/xlink" x="0px" y="0px"
	 viewBox="0 0 367 123.6" style="enable-background:new 0 0 367 123.6;" xml:space="preserve">
<style type="text/css">
	.st0{fill:#CD1543;}
	.st1{fill:url(#SVGID_1_);}
	.st2{fill:#FFFFFF;}
</style>
<g>
	<path class="st0" d="M127.19,47.09c4.29,1.54,2.47,6.16,1.49,9.41l-6.22,20.88l-7.65-24.7c-0.77-2.51-1.15-4.33-0.82-5.76h-7.76
		v0.17c3.03,1.6,1.93,5.31,0.88,8.79l-6.44,21.68l-8.19-26.52c-0.33-1.09-0.88-2.85-0.66-4.11h-8.03v0.17
		c2.75,1.94,3.58,5.65,4.57,8.79l6.49,21.05c1.81,5.88,2.31,5.48,7.31,9.24l8.58-28.81l6.05,19.62c1.82,5.87,2.21,5.59,7.26,9.18
		l11.6-39.24h-8.47V47.09z"/>
	<path class="st0" d="M137.53,47.09c2.81,1.09,2.42,5.25,2.42,7.87v21.5c0,2.56,0.33,6.79-2.42,7.82v0.17h10.45v-0.17
		c-2.75-1.09-2.42-5.25-2.42-7.82v-21.5c0-2.57-0.33-6.79,2.42-7.87v-0.17h-10.45V47.09z"/>
	<path class="st0" d="M157.6,55.31c0-3.93,3.96-5.19,7.1-5.19c3.08,0,6.49,1.31,8.64,3.59v-6.45c-2.64-0.86-5.45-1.26-8.2-1.26
		c-6.71,0-13.8,2.74-13.8,9.93c0,12.09,18.92,10.5,18.92,19.39c0,3.99-4.73,5.93-7.86,5.93c-4.29,0-8.8-1.82-12.05-4.73l1.6,7.13
		c3.14,1.2,6.49,1.71,9.84,1.71c8.58,0,14.74-5.71,14.74-11.81C176.53,63.01,157.6,63.12,157.6,55.31z"/>
	<path class="st0" d="M198.82,80.64c-8.47,0-13.97-7.48-13.97-15.86c0-8.27,5.28-14.03,12.87-14.03c3.63,0,7.15,1.25,10.18,3.25
		v-6.56c-3.25-0.8-6.66-1.43-10.01-1.43c-11.28,0-19.31,7.82-19.31,19.62c0,12.21,8.03,19.74,21.01,19.74c2.86,0,5.72-0.45,8.3-1.71
		l2.81-6.61h-0.17C207.07,79.09,202.95,80.64,198.82,80.64z"/>
	<path class="st0" d="M230.54,45.96c-11.55-0.29-20.62,8.78-20.62,19.62c0,11.7,9.19,19.8,20.08,19.8
		c10.95,0,20.24-8.44,20.24-20.08C250.23,55.03,242.09,45.9,230.54,45.96z M230.27,81.26c-8.63,0-14.08-8.21-14.08-16.2
		c0-8.61,5.45-15,13.98-15c8.68,0,13.8,8.04,13.8,16.37C243.96,74.93,238.62,81.26,230.27,81.26z"/>
	<path class="st0" d="M278.48,47.09c2.92,1.71,2.86,4,2.86,7.19V75.9l-20.13-26.35l-0.77-1.14c-0.38-0.46-0.61-0.74-0.82-1.43v-0.05
		h-8.03v0.17c2.86,1.71,2.86,4,2.86,7.19v22.76c0,3.19,0,5.47-2.91,7.24v0.17h9.74v-0.17c-2.92-1.77-2.86-4.05-2.86-7.24V54.97
		l18.87,24.81c2.42,3.25,4.12,5.14,8.03,6.51v-32c0-3.19,0-5.48,2.86-7.19v-0.17h-9.68V47.09z"/>
	<path class="st0" d="M296.21,55.31c0-3.93,3.96-5.19,7.1-5.19c3.08,0,6.49,1.31,8.63,3.59v-6.45c-2.64-0.86-5.44-1.26-8.2-1.26
		c-6.7,0-13.8,2.74-13.8,9.93c0,12.09,18.92,10.5,18.92,19.39c0,3.99-4.73,5.93-7.87,5.93c-4.29,0-8.79-1.82-12.04-4.73l1.6,7.13
		c3.14,1.2,6.5,1.71,9.85,1.71c8.58,0,14.74-5.71,14.74-11.81C315.13,63.01,296.21,63.12,296.21,55.31z"/>
	<path class="st0" d="M317.21,47.09c2.8,1.09,2.42,5.25,2.42,7.87v21.5c0,2.56,0.33,6.79-2.42,7.82v0.17h10.45v-0.17
		c-2.75-1.09-2.42-5.25-2.42-7.82v-21.5c0-2.57-0.33-6.79,2.42-7.87v-0.17h-10.45V47.09z"/>
	<path class="st0" d="M357.32,46.93v0.17c2.92,1.71,2.86,4,2.86,7.19V75.9l-20.13-26.35l-0.77-1.14c-0.38-0.46-0.6-0.74-0.82-1.43
		v-0.05h-8.03v0.17c2.86,1.71,2.86,4,2.86,7.19v22.76c0,3.19,0,5.47-2.91,7.24v0.17h9.74v-0.17c-2.92-1.77-2.86-4.05-2.86-7.24
		V54.97l18.86,24.81c2.42,3.25,4.13,5.14,8.03,6.51v-32c0-3.19,0-5.48,2.86-7.19v-0.17H357.32z"/>
</g>
<g>
	<path d="M99.26,100.68c0.4,0,0.76-0.07,1.08-0.2c0.32-0.14,0.58-0.33,0.8-0.57c0.22-0.24,0.39-0.54,0.5-0.88
		c0.12-0.34,0.17-0.71,0.17-1.12v-6.08h1.48v6.08c0,0.59-0.09,1.13-0.28,1.63c-0.19,0.5-0.46,0.93-0.8,1.29
		c-0.35,0.36-0.77,0.65-1.27,0.85c-0.5,0.21-1.06,0.31-1.69,0.31c-0.63,0-1.19-0.1-1.69-0.31c-0.5-0.21-0.92-0.49-1.27-0.85
		c-0.35-0.36-0.62-0.79-0.81-1.29c-0.19-0.5-0.28-1.04-0.28-1.63v-6.08h1.49v6.08c0,0.41,0.06,0.79,0.17,1.13s0.28,0.63,0.5,0.88
		c0.22,0.25,0.49,0.44,0.8,0.57C98.5,100.61,98.86,100.68,99.26,100.68z"/>
	<path d="M114.24,91.82v10.05h-0.76c-0.12,0-0.21-0.02-0.29-0.06c-0.08-0.04-0.16-0.11-0.24-0.2l-5.68-7.34
		c0.01,0.13,0.02,0.25,0.02,0.37c0.01,0.12,0.01,0.24,0.01,0.34v6.89h-1.31V91.82h0.77c0.13,0,0.23,0.02,0.29,0.05
		s0.14,0.1,0.22,0.21l5.69,7.35c-0.01-0.13-0.02-0.27-0.03-0.4c-0.01-0.13-0.01-0.25-0.01-0.36v-6.85H114.24z"/>
	<path d="M118.62,101.87h-1.5V91.82h1.5V101.87z"/>
	<path d="M129.78,91.82l-4.09,10.05h-1.34l-4.09-10.05h1.19c0.13,0,0.24,0.03,0.32,0.1c0.08,0.07,0.14,0.15,0.19,0.25l2.72,6.83
		c0.07,0.17,0.13,0.35,0.19,0.55c0.06,0.2,0.12,0.41,0.17,0.63c0.05-0.22,0.1-0.43,0.15-0.63c0.06-0.2,0.12-0.39,0.18-0.55
		l2.71-6.83c0.03-0.09,0.09-0.17,0.18-0.24c0.09-0.07,0.19-0.11,0.32-0.11H129.78z"/>
	<path d="M137.65,100.66l-0.01,1.21h-6.23V91.82h6.23v1.21h-4.73v3.19h3.81v1.17h-3.81v3.28H137.65z"/>
	<path d="M147.42,101.87h-1.33c-0.27,0-0.46-0.1-0.58-0.31l-2.49-3.49c-0.08-0.12-0.17-0.2-0.26-0.25
		c-0.09-0.05-0.23-0.07-0.42-0.07h-0.97v4.12h-1.49V91.82h2.9c0.65,0,1.21,0.07,1.68,0.2s0.86,0.32,1.16,0.57s0.53,0.54,0.68,0.89
		c0.15,0.34,0.22,0.73,0.22,1.16c0,0.35-0.05,0.68-0.16,0.99c-0.11,0.31-0.26,0.58-0.47,0.83c-0.21,0.25-0.46,0.46-0.76,0.63
		c-0.3,0.18-0.64,0.31-1.02,0.41c0.19,0.11,0.35,0.27,0.48,0.47L147.42,101.87z M142.73,96.66c0.38,0,0.72-0.05,1.01-0.14
		c0.29-0.09,0.54-0.23,0.73-0.4s0.34-0.37,0.44-0.61c0.1-0.24,0.15-0.5,0.15-0.78c0-0.58-0.19-1.01-0.57-1.31
		c-0.38-0.29-0.95-0.44-1.71-0.44h-1.41v3.67H142.73z"/>
	<path d="M154.34,93.46c-0.05,0.08-0.1,0.14-0.15,0.18c-0.05,0.04-0.12,0.06-0.2,0.06c-0.08,0-0.18-0.04-0.29-0.12
		c-0.11-0.08-0.24-0.16-0.4-0.26s-0.35-0.18-0.58-0.26c-0.22-0.08-0.49-0.12-0.8-0.12c-0.29,0-0.55,0.04-0.77,0.12
		c-0.22,0.08-0.41,0.18-0.56,0.32s-0.26,0.29-0.34,0.47s-0.12,0.37-0.12,0.58c0,0.27,0.07,0.5,0.21,0.67
		c0.14,0.18,0.32,0.33,0.54,0.46c0.22,0.13,0.48,0.24,0.76,0.33c0.28,0.09,0.58,0.19,0.88,0.29s0.59,0.22,0.88,0.35
		c0.28,0.13,0.54,0.29,0.76,0.49c0.22,0.2,0.41,0.44,0.54,0.73c0.14,0.29,0.21,0.64,0.21,1.05c0,0.44-0.08,0.86-0.23,1.25
		c-0.15,0.39-0.37,0.73-0.66,1.02c-0.29,0.29-0.65,0.52-1.07,0.68c-0.42,0.17-0.9,0.25-1.44,0.25c-0.32,0-0.63-0.03-0.94-0.09
		c-0.3-0.06-0.59-0.15-0.86-0.27c-0.27-0.11-0.52-0.25-0.76-0.41s-0.45-0.34-0.63-0.54l0.43-0.71c0.04-0.06,0.09-0.1,0.15-0.14
		c0.06-0.04,0.12-0.06,0.2-0.06c0.1,0,0.21,0.05,0.34,0.15c0.13,0.1,0.29,0.22,0.48,0.34c0.19,0.12,0.42,0.24,0.68,0.34
		c0.26,0.1,0.58,0.15,0.96,0.15c0.31,0,0.58-0.04,0.83-0.12c0.24-0.08,0.45-0.2,0.61-0.35c0.17-0.15,0.29-0.33,0.38-0.55
		c0.09-0.21,0.13-0.45,0.13-0.71c0-0.29-0.07-0.54-0.2-0.72c-0.14-0.19-0.32-0.34-0.54-0.47s-0.48-0.23-0.76-0.32
		c-0.29-0.09-0.58-0.18-0.88-0.28c-0.3-0.1-0.59-0.21-0.88-0.33c-0.29-0.13-0.54-0.29-0.76-0.49c-0.22-0.2-0.4-0.46-0.54-0.76
		c-0.13-0.31-0.2-0.68-0.2-1.13c0-0.36,0.07-0.71,0.21-1.04c0.14-0.34,0.34-0.63,0.61-0.89c0.27-0.26,0.6-0.47,0.99-0.62
		c0.39-0.16,0.84-0.23,1.34-0.23c0.56,0,1.08,0.09,1.56,0.27s0.89,0.44,1.24,0.77L154.34,93.46z"/>
	<path d="M158.6,101.87h-1.5V91.82h1.5V101.87z"/>
	<path d="M168.22,93.07h-3.19v8.81h-1.48v-8.81h-3.21v-1.25h7.88V93.07z"/>
	<path d="M174.32,97.9v3.98h-1.48V97.9l-3.68-6.08h1.31c0.13,0,0.24,0.03,0.32,0.09c0.08,0.06,0.14,0.15,0.2,0.25l2.18,3.76
		c0.09,0.17,0.17,0.34,0.24,0.49c0.07,0.15,0.14,0.31,0.19,0.46c0.05-0.15,0.11-0.3,0.18-0.46c0.07-0.15,0.15-0.32,0.23-0.49
		l2.18-3.76c0.05-0.08,0.11-0.16,0.19-0.23c0.08-0.07,0.19-0.11,0.31-0.11H178L174.32,97.9z"/>
	<path d="M192.77,96.85c0,0.75-0.12,1.44-0.36,2.07s-0.58,1.17-1.02,1.62s-0.96,0.81-1.57,1.06c-0.61,0.25-1.29,0.38-2.04,0.38
		c-0.74,0-1.42-0.13-2.03-0.38c-0.61-0.25-1.14-0.61-1.57-1.06c-0.44-0.46-0.78-1-1.02-1.62c-0.24-0.63-0.36-1.32-0.36-2.07
		c0-0.75,0.12-1.44,0.36-2.07c0.24-0.63,0.58-1.17,1.02-1.63c0.44-0.46,0.96-0.81,1.57-1.06c0.61-0.25,1.29-0.38,2.03-0.38
		c0.75,0,1.42,0.13,2.04,0.38c0.61,0.25,1.14,0.61,1.57,1.06c0.44,0.45,0.78,1,1.02,1.63S192.77,96.1,192.77,96.85z M191.24,96.85
		c0-0.6-0.08-1.13-0.25-1.61s-0.4-0.88-0.7-1.21c-0.3-0.33-0.67-0.59-1.09-0.76c-0.43-0.18-0.9-0.27-1.43-0.27s-1,0.09-1.43,0.27
		c-0.43,0.18-0.79,0.43-1.1,0.76s-0.54,0.74-0.7,1.21s-0.25,1.01-0.25,1.61c0,0.6,0.08,1.14,0.25,1.61s0.4,0.88,0.7,1.21
		c0.3,0.33,0.67,0.58,1.1,0.76s0.9,0.26,1.43,0.26s1-0.09,1.43-0.26c0.43-0.17,0.79-0.43,1.09-0.76c0.3-0.33,0.53-0.73,0.7-1.21
		S191.24,97.45,191.24,96.85z"/>
	<path d="M196.46,93.03v3.37h4.03v1.21h-4.03v4.26h-1.5V91.82h6.23v1.21H196.46z"/>
	<path d="M220.32,91.82l-3.14,10.05h-1.34l-2.45-7.46c-0.06-0.15-0.1-0.33-0.15-0.54c-0.05,0.21-0.1,0.39-0.15,0.54l-2.48,7.46
		h-1.34l-3.14-10.05h1.25c0.13,0,0.24,0.03,0.33,0.09c0.09,0.06,0.15,0.15,0.18,0.25l1.98,6.73c0.04,0.13,0.07,0.27,0.1,0.43
		s0.06,0.32,0.09,0.48c0.03-0.17,0.07-0.33,0.1-0.48s0.08-0.3,0.12-0.43l2.27-6.73c0.03-0.09,0.09-0.17,0.18-0.24
		c0.09-0.07,0.2-0.11,0.33-0.11h0.43c0.13,0,0.24,0.03,0.32,0.1s0.14,0.15,0.18,0.25l2.26,6.73c0.08,0.26,0.16,0.55,0.22,0.88
		c0.06-0.32,0.12-0.61,0.18-0.88l1.99-6.73c0.02-0.09,0.08-0.17,0.17-0.24c0.09-0.07,0.2-0.11,0.33-0.11H220.32z"/>
	<path d="M223.54,101.87h-1.5V91.82h1.5V101.87z"/>
	<path d="M231.53,93.46c-0.05,0.08-0.1,0.14-0.15,0.18c-0.05,0.04-0.12,0.06-0.2,0.06c-0.08,0-0.18-0.04-0.29-0.12
		c-0.11-0.08-0.24-0.16-0.4-0.26s-0.35-0.18-0.58-0.26c-0.22-0.08-0.49-0.12-0.8-0.12c-0.29,0-0.55,0.04-0.77,0.12
		c-0.22,0.08-0.41,0.18-0.56,0.32s-0.26,0.29-0.34,0.47s-0.12,0.37-0.12,0.58c0,0.27,0.07,0.5,0.21,0.67
		c0.14,0.18,0.32,0.33,0.54,0.46c0.22,0.13,0.48,0.24,0.76,0.33c0.28,0.09,0.58,0.19,0.88,0.29s0.59,0.22,0.88,0.35
		c0.28,0.13,0.54,0.29,0.76,0.49c0.22,0.2,0.41,0.44,0.54,0.73c0.14,0.29,0.21,0.64,0.21,1.05c0,0.44-0.08,0.86-0.23,1.25
		c-0.15,0.39-0.37,0.73-0.66,1.02c-0.29,0.29-0.65,0.52-1.07,0.68c-0.42,0.17-0.9,0.25-1.44,0.25c-0.32,0-0.63-0.03-0.94-0.09
		c-0.3-0.06-0.59-0.15-0.86-0.27c-0.27-0.11-0.52-0.25-0.76-0.41s-0.45-0.34-0.63-0.54l0.43-0.71c0.04-0.06,0.09-0.1,0.15-0.14
		c0.06-0.04,0.12-0.06,0.2-0.06c0.1,0,0.21,0.05,0.34,0.15c0.13,0.1,0.29,0.22,0.48,0.34c0.19,0.12,0.42,0.24,0.68,0.34
		c0.26,0.1,0.58,0.15,0.96,0.15c0.31,0,0.58-0.04,0.83-0.12c0.24-0.08,0.45-0.2,0.61-0.35c0.17-0.15,0.29-0.33,0.38-0.55
		c0.09-0.21,0.13-0.45,0.13-0.71c0-0.29-0.07-0.54-0.2-0.72c-0.14-0.19-0.32-0.34-0.54-0.47s-0.48-0.23-0.76-0.32
		c-0.29-0.09-0.58-0.18-0.88-0.28c-0.3-0.1-0.59-0.21-0.88-0.33c-0.29-0.13-0.54-0.29-0.76-0.49c-0.22-0.2-0.4-0.46-0.54-0.76
		c-0.13-0.31-0.2-0.68-0.2-1.13c0-0.36,0.07-0.71,0.21-1.04c0.14-0.34,0.34-0.63,0.61-0.89c0.27-0.26,0.6-0.47,0.99-0.62
		c0.39-0.16,0.84-0.23,1.34-0.23c0.56,0,1.08,0.09,1.56,0.27s0.89,0.44,1.24,0.77L231.53,93.46z"/>
	<path d="M241.29,99.72c0.08,0,0.16,0.03,0.22,0.1l0.59,0.64c-0.41,0.49-0.91,0.86-1.5,1.13c-0.59,0.27-1.3,0.4-2.13,0.4
		c-0.73,0-1.39-0.13-1.98-0.38c-0.59-0.25-1.09-0.6-1.51-1.06c-0.42-0.45-0.74-0.99-0.97-1.62c-0.23-0.63-0.34-1.32-0.34-2.08
		c0-0.76,0.12-1.45,0.36-2.08s0.58-1.17,1.01-1.62c0.43-0.45,0.95-0.81,1.56-1.06s1.27-0.38,2.01-0.38c0.71,0,1.35,0.12,1.9,0.35
		s1.04,0.54,1.45,0.93l-0.49,0.69c-0.03,0.05-0.07,0.09-0.12,0.13c-0.05,0.03-0.11,0.05-0.19,0.05c-0.09,0-0.19-0.04-0.31-0.13
		s-0.28-0.19-0.47-0.3c-0.19-0.11-0.43-0.21-0.72-0.3c-0.29-0.09-0.64-0.13-1.06-0.13c-0.5,0-0.96,0.09-1.37,0.26
		c-0.42,0.17-0.77,0.43-1.07,0.76s-0.53,0.73-0.7,1.21c-0.17,0.48-0.25,1.02-0.25,1.62c0,0.61,0.09,1.15,0.26,1.63
		c0.17,0.48,0.41,0.88,0.71,1.21s0.66,0.58,1.07,0.76c0.41,0.17,0.85,0.26,1.33,0.26c0.29,0,0.55-0.02,0.78-0.05
		c0.23-0.03,0.44-0.09,0.64-0.16s0.38-0.16,0.55-0.27c0.17-0.11,0.34-0.24,0.51-0.4c0.04-0.03,0.08-0.06,0.12-0.08
		C241.2,99.73,241.24,99.72,241.29,99.72z"/>
	<path d="M253.07,96.85c0,0.75-0.12,1.44-0.36,2.07s-0.58,1.17-1.02,1.62s-0.96,0.81-1.57,1.06c-0.61,0.25-1.29,0.38-2.04,0.38
		c-0.74,0-1.42-0.13-2.03-0.38c-0.61-0.25-1.14-0.61-1.57-1.06c-0.44-0.46-0.78-1-1.02-1.62c-0.24-0.63-0.36-1.32-0.36-2.07
		c0-0.75,0.12-1.44,0.36-2.07c0.24-0.63,0.58-1.17,1.02-1.63c0.44-0.46,0.96-0.81,1.57-1.06c0.61-0.25,1.29-0.38,2.03-0.38
		c0.75,0,1.42,0.13,2.04,0.38c0.61,0.25,1.14,0.61,1.57,1.06c0.44,0.45,0.78,1,1.02,1.63S253.07,96.1,253.07,96.85z M251.54,96.85
		c0-0.6-0.08-1.13-0.25-1.61s-0.4-0.88-0.7-1.21c-0.3-0.33-0.67-0.59-1.09-0.76c-0.43-0.18-0.9-0.27-1.43-0.27s-1,0.09-1.43,0.27
		c-0.43,0.18-0.79,0.43-1.1,0.76s-0.54,0.74-0.7,1.21s-0.25,1.01-0.25,1.61c0,0.6,0.08,1.14,0.25,1.61s0.4,0.88,0.7,1.21
		c0.3,0.33,0.67,0.58,1.1,0.76s0.9,0.26,1.43,0.26s1-0.09,1.43-0.26c0.43-0.17,0.79-0.43,1.09-0.76c0.3-0.33,0.53-0.73,0.7-1.21
		S251.54,97.45,251.54,96.85z"/>
	<path d="M263.45,91.82v10.05h-0.76c-0.12,0-0.21-0.02-0.29-0.06c-0.08-0.04-0.16-0.11-0.24-0.2l-5.68-7.34
		c0.01,0.13,0.02,0.25,0.02,0.37c0.01,0.12,0.01,0.24,0.01,0.34v6.89h-1.31V91.82h0.77c0.13,0,0.23,0.02,0.29,0.05
		s0.14,0.1,0.22,0.21l5.69,7.35c-0.01-0.13-0.02-0.27-0.03-0.4c-0.01-0.13-0.01-0.25-0.01-0.36v-6.85H263.45z"/>
	<path d="M271.45,93.46c-0.05,0.08-0.1,0.14-0.15,0.18c-0.05,0.04-0.12,0.06-0.2,0.06c-0.08,0-0.18-0.04-0.29-0.12
		c-0.11-0.08-0.24-0.16-0.4-0.26s-0.35-0.18-0.58-0.26c-0.22-0.08-0.49-0.12-0.8-0.12c-0.29,0-0.55,0.04-0.77,0.12
		c-0.22,0.08-0.41,0.18-0.56,0.32s-0.26,0.29-0.34,0.47s-0.12,0.37-0.12,0.58c0,0.27,0.07,0.5,0.21,0.67
		c0.14,0.18,0.32,0.33,0.54,0.46c0.22,0.13,0.48,0.24,0.76,0.33c0.28,0.09,0.58,0.19,0.88,0.29s0.59,0.22,0.88,0.35
		c0.28,0.13,0.54,0.29,0.76,0.49c0.22,0.2,0.41,0.44,0.54,0.73c0.14,0.29,0.21,0.64,0.21,1.05c0,0.44-0.08,0.86-0.23,1.25
		c-0.15,0.39-0.37,0.73-0.66,1.02c-0.29,0.29-0.65,0.52-1.07,0.68c-0.42,0.17-0.9,0.25-1.44,0.25c-0.32,0-0.63-0.03-0.94-0.09
		c-0.3-0.06-0.59-0.15-0.86-0.27c-0.27-0.11-0.52-0.25-0.76-0.41s-0.45-0.34-0.63-0.54l0.43-0.71c0.04-0.06,0.09-0.1,0.15-0.14
		c0.06-0.04,0.12-0.06,0.2-0.06c0.1,0,0.21,0.05,0.34,0.15c0.13,0.1,0.29,0.22,0.48,0.34c0.19,0.12,0.42,0.24,0.68,0.34
		c0.26,0.1,0.58,0.15,0.96,0.15c0.31,0,0.58-0.04,0.83-0.12c0.24-0.08,0.45-0.2,0.61-0.35c0.17-0.15,0.29-0.33,0.38-0.55
		c0.09-0.21,0.13-0.45,0.13-0.71c0-0.29-0.07-0.54-0.2-0.72c-0.14-0.19-0.32-0.34-0.54-0.47s-0.48-0.23-0.76-0.32
		c-0.29-0.09-0.58-0.18-0.88-0.28c-0.3-0.1-0.59-0.21-0.88-0.33c-0.29-0.13-0.54-0.29-0.76-0.49c-0.22-0.2-0.4-0.46-0.54-0.76
		c-0.13-0.31-0.2-0.68-0.2-1.13c0-0.36,0.07-0.71,0.21-1.04c0.14-0.34,0.34-0.63,0.61-0.89c0.27-0.26,0.6-0.47,0.99-0.62
		c0.39-0.16,0.84-0.23,1.34-0.23c0.56,0,1.08,0.09,1.56,0.27s0.89,0.44,1.24,0.77L271.45,93.46z"/>
	<path d="M275.72,101.87h-1.5V91.82h1.5V101.87z"/>
	<path d="M286.82,91.82v10.05h-0.76c-0.12,0-0.21-0.02-0.29-0.06c-0.08-0.04-0.16-0.11-0.24-0.2l-5.68-7.34
		c0.01,0.13,0.02,0.25,0.02,0.37c0.01,0.12,0.01,0.24,0.01,0.34v6.89h-1.31V91.82h0.77c0.13,0,0.23,0.02,0.29,0.05
		s0.14,0.1,0.22,0.21l5.69,7.35c-0.01-0.13-0.02-0.27-0.03-0.4c-0.01-0.13-0.01-0.25-0.01-0.36v-6.85H286.82z"/>
	<path d="M289.39,96.58h5.61v0.99h-5.61V96.58z"/>
	<path d="M308.14,91.82v10.05h-1.3v-7.15c0-0.11,0-0.22,0.01-0.34c0.01-0.12,0.01-0.25,0.02-0.37l-3.35,6.14
		c-0.12,0.23-0.3,0.34-0.54,0.34h-0.21c-0.24,0-0.42-0.11-0.53-0.34l-3.41-6.16c0.03,0.26,0.04,0.51,0.04,0.74v7.15h-1.31V91.82
		h1.11c0.13,0,0.23,0.01,0.3,0.04c0.07,0.03,0.14,0.1,0.21,0.21l3.36,6.02c0.07,0.12,0.13,0.25,0.18,0.38
		c0.06,0.13,0.11,0.27,0.16,0.41c0.1-0.28,0.21-0.54,0.34-0.8l3.3-6.01c0.06-0.12,0.13-0.19,0.2-0.21c0.07-0.03,0.17-0.04,0.3-0.04
		H308.14z"/>
	<path d="M319.29,101.87h-1.15c-0.13,0-0.24-0.03-0.32-0.1s-0.14-0.15-0.18-0.25l-0.89-2.33h-4.43l-0.89,2.33
		c-0.03,0.09-0.09,0.17-0.18,0.24c-0.09,0.07-0.2,0.11-0.32,0.11h-1.15l4-10.05h1.5L319.29,101.87z M316.35,98.13l-1.49-3.9
		c-0.11-0.27-0.21-0.6-0.32-1.01c-0.05,0.2-0.1,0.39-0.16,0.56s-0.11,0.33-0.16,0.46l-1.48,3.88H316.35z"/>
	<path d="M329.71,96.85c0,0.75-0.12,1.43-0.36,2.05s-0.58,1.14-1.02,1.58c-0.44,0.44-0.96,0.78-1.58,1.03
		c-0.61,0.24-1.29,0.36-2.04,0.36h-3.78V91.82h3.78c0.75,0,1.43,0.12,2.04,0.36c0.61,0.24,1.14,0.58,1.58,1.03
		c0.44,0.44,0.78,0.97,1.02,1.59S329.71,96.1,329.71,96.85z M328.18,96.85c0-0.6-0.08-1.13-0.25-1.61c-0.16-0.47-0.4-0.88-0.7-1.2
		c-0.3-0.33-0.67-0.58-1.09-0.75s-0.9-0.26-1.43-0.26h-2.28v7.64h2.28c0.53,0,1-0.09,1.43-0.26s0.79-0.42,1.09-0.75
		c0.3-0.33,0.53-0.73,0.7-1.2C328.1,97.99,328.18,97.45,328.18,96.85z"/>
	<path d="M333.52,101.87h-1.5V91.82h1.5V101.87z"/>
	<path d="M341.51,93.46c-0.05,0.08-0.1,0.14-0.15,0.18c-0.05,0.04-0.12,0.06-0.2,0.06c-0.08,0-0.18-0.04-0.29-0.12
		c-0.11-0.08-0.24-0.16-0.4-0.26s-0.35-0.18-0.58-0.26c-0.22-0.08-0.49-0.12-0.8-0.12c-0.29,0-0.55,0.04-0.77,0.12
		c-0.22,0.08-0.41,0.18-0.56,0.32s-0.26,0.29-0.34,0.47s-0.12,0.37-0.12,0.58c0,0.27,0.07,0.5,0.21,0.67
		c0.14,0.18,0.32,0.33,0.54,0.46c0.22,0.13,0.48,0.24,0.76,0.33c0.28,0.09,0.58,0.19,0.88,0.29s0.59,0.22,0.88,0.35
		c0.28,0.13,0.54,0.29,0.76,0.49c0.22,0.2,0.41,0.44,0.54,0.73c0.14,0.29,0.21,0.64,0.21,1.05c0,0.44-0.08,0.86-0.23,1.25
		c-0.15,0.39-0.37,0.73-0.66,1.02c-0.29,0.29-0.65,0.52-1.07,0.68c-0.42,0.17-0.9,0.25-1.44,0.25c-0.32,0-0.63-0.03-0.94-0.09
		c-0.3-0.06-0.59-0.15-0.86-0.27c-0.27-0.11-0.52-0.25-0.76-0.41s-0.45-0.34-0.63-0.54l0.43-0.71c0.04-0.06,0.09-0.1,0.15-0.14
		c0.06-0.04,0.12-0.06,0.2-0.06c0.1,0,0.21,0.05,0.34,0.15c0.13,0.1,0.29,0.22,0.48,0.34c0.19,0.12,0.42,0.24,0.68,0.34
		c0.26,0.1,0.58,0.15,0.96,0.15c0.31,0,0.58-0.04,0.83-0.12c0.24-0.08,0.45-0.2,0.61-0.35c0.17-0.15,0.29-0.33,0.38-0.55
		c0.09-0.21,0.13-0.45,0.13-0.71c0-0.29-0.07-0.54-0.2-0.72c-0.14-0.19-0.32-0.34-0.54-0.47s-0.48-0.23-0.76-0.32
		c-0.29-0.09-0.58-0.18-0.88-0.28c-0.3-0.1-0.59-0.21-0.88-0.33c-0.29-0.13-0.54-0.29-0.76-0.49c-0.22-0.2-0.4-0.46-0.54-0.76
		c-0.13-0.31-0.2-0.68-0.2-1.13c0-0.36,0.07-0.71,0.21-1.04c0.14-0.34,0.34-0.63,0.61-0.89c0.27-0.26,0.6-0.47,0.99-0.62
		c0.39-0.16,0.84-0.23,1.34-0.23c0.56,0,1.08,0.09,1.56,0.27s0.89,0.44,1.24,0.77L341.51,93.46z"/>
	<path d="M353.61,96.85c0,0.75-0.12,1.44-0.36,2.07s-0.58,1.17-1.02,1.62s-0.96,0.81-1.57,1.06c-0.61,0.25-1.29,0.38-2.04,0.38
		c-0.74,0-1.42-0.13-2.03-0.38c-0.61-0.25-1.14-0.61-1.57-1.06c-0.44-0.46-0.78-1-1.02-1.62c-0.24-0.63-0.36-1.32-0.36-2.07
		c0-0.75,0.12-1.44,0.36-2.07c0.24-0.63,0.58-1.17,1.02-1.63c0.44-0.46,0.96-0.81,1.57-1.06c0.61-0.25,1.29-0.38,2.03-0.38
		c0.75,0,1.42,0.13,2.04,0.38c0.61,0.25,1.14,0.61,1.57,1.06c0.44,0.45,0.78,1,1.02,1.63S353.61,96.1,353.61,96.85z M352.09,96.85
		c0-0.6-0.08-1.13-0.25-1.61s-0.4-0.88-0.7-1.21c-0.3-0.33-0.67-0.59-1.09-0.76c-0.43-0.18-0.9-0.27-1.43-0.27s-1,0.09-1.43,0.27
		c-0.43,0.18-0.79,0.43-1.1,0.76s-0.54,0.74-0.7,1.21s-0.25,1.01-0.25,1.61c0,0.6,0.08,1.14,0.25,1.61s0.4,0.88,0.7,1.21
		c0.3,0.33,0.67,0.58,1.1,0.76s0.9,0.26,1.43,0.26s1-0.09,1.43-0.26c0.43-0.17,0.79-0.43,1.09-0.76c0.3-0.33,0.53-0.73,0.7-1.21
		S352.09,97.45,352.09,96.85z"/>
	<path d="M364.04,91.82v10.05h-0.76c-0.12,0-0.21-0.02-0.29-0.06c-0.08-0.04-0.16-0.11-0.24-0.2l-5.68-7.34
		c0.01,0.13,0.02,0.25,0.02,0.37c0.01,0.12,0.01,0.24,0.01,0.34v6.89h-1.31V91.82h0.77c0.13,0,0.23,0.02,0.29,0.05
		s0.14,0.1,0.22,0.21l5.69,7.35c-0.01-0.13-0.02-0.27-0.03-0.4c-0.01-0.13-0.01-0.25-0.01-0.36v-6.85H364.04z"/>
</g>
<g>
	
		<radialGradient id="SVGID_1_" cx="180.1448" cy="-6.9211" r="41.8242" gradientTransform="matrix(1.2292 0 0 1.2292 -182.1273 70.3058)" gradientUnits="userSpaceOnUse">
		<stop  offset="0.25" style="stop-color:#FFFFFF"/>
		<stop  offset="0.84" style="stop-color:#D0B38D"/>
	</radialGradient>
	<path class="st1" d="M39.3,123.2c-0.23-0.06-0.91-0.77-1.49-1.64l-0.09-0.13l-0.15-0.04c-25.67-5.98-39.96-45.38-36.74-77
		c0.37-3.65,0.98-7.09,1.82-10.27c0.86-3.26,1.96-6.3,3.29-9.05c1.48-3.07,3.27-5.76,5.32-8c4.26-4.67,9.53-7.18,15.24-7.26
		c0.13,0,0.5-0.01,0.53-0.36c1-2.03,3.57-3.46,5.49-3.72l0.27-0.04l0.07-0.26C32.9,5.21,34.12,0.4,39.3,0.4
		c5.19,0,6.44,4.96,6.46,5.01l0.06,0.26l0.27,0.04c1.92,0.27,4.48,1.71,5.48,3.74c0.03,0.35,0.4,0.36,0.53,0.36
		c5.71,0.08,10.98,2.59,15.25,7.26c2.34,2.54,4.37,5.74,6.01,9.5l0.33,0.78c2.07,4.96,3.44,10.69,4.09,17.04
		c3.22,31.62-11.08,71.02-36.74,77l-0.15,0.04l-0.09,0.13C40.21,122.44,39.53,123.14,39.3,123.2z"/>
	<path d="M78.14,44.35c-0.27-2.61-0.66-5.22-1.22-7.79c-0.51-2.36-1.16-4.7-1.97-6.98c-0.86-2.4-1.89-4.76-3.15-6.97
		c-1.18-2.08-2.57-4.04-4.19-5.81c-4.31-4.72-9.63-7.32-15.52-7.4l-0.13,0c-0.96-2.1-3.6-3.8-5.89-4.12c0,0-1.23-5.26-6.77-5.28
		c-5.53,0.03-6.77,5.28-6.77,5.28C30.24,5.6,27.6,7.31,26.64,9.4l-0.13,0c-5.9,0.08-11.22,2.68-15.52,7.4
		c-1.62,1.77-3,3.73-4.19,5.81c-1.26,2.22-2.29,4.57-3.15,6.97c-0.81,2.28-1.46,4.61-1.97,6.98c-0.56,2.57-0.96,5.17-1.22,7.79
		c-3.26,32.03,11.14,71.39,37.05,77.43c0.39,0.59,1.3,1.81,1.79,1.81s1.4-1.22,1.79-1.81C67,115.74,81.4,76.38,78.14,44.35z
		 M39.3,1.24c4.55,0,5.55,3.87,5.56,3.91c-2.26,0.15-4.37,1.52-5.46,3.5c-0.02,0.03-0.06,0.13-0.1,0.13c-0.05,0-0.08-0.1-0.1-0.13
		c-1.09-1.97-3.2-3.34-5.46-3.5C33.75,5.1,34.75,1.24,39.3,1.24z M36.66,7.31c1.09,0.67,1.95,1.74,2.26,2.98
		c0.09,0.37,0.23,0.59,0.38,0.59s0.29-0.22,0.38-0.59c0.31-1.25,1.16-2.31,2.26-2.98c3.3-2.04,7.05-0.69,8.55,2.24
		c-0.77,0.13-1.44,0.32-2.36,0.59c-1.33,0.46-2.43,1.02-3.37,1.87c-2.1,1.91-3.96,4.87-4.31,8.63c-0.94,10.36,10.93,8.73,11.53,8.68
		c1.53,0,2.69-2.42,2.69-5.62c0-3.21-1.19-5.62-2.69-5.62c-0.92,0-2.51,0.74-2.66,3.61c-0.1,2.02,0.88,4.7,2.16,4.86
		c0.66,0.09,1.27-1.08,1.45-2.27c0.17-1.03,0.08-2.65-0.84-2.88c-0.29-0.07-0.58,0.1-0.66,0.4c-0.07,0.26,0.57,0.71,0.55,1.9
		c-0.04,1.77-1.82,0.89-1.58-1.93c0.21-2.5,1.49-2.34,1.54-2.34c0.71,0,1.79,1.49,1.79,4.27c0,2.47-1.2,5.14-3.48,3.75
		c-1.92-1.41-2.68-4.64-2.15-7.15c0.24-1.15,1.23-4.28,4.43-4.28c4.62,0,8.92,2.42,12.35,6.94c-0.38,1.21-2.75,5.81-10.31,10.21
		c-0.16,0.08-0.4,0.22-0.41,0.21c-2.31-0.94-4.47-1.52-6.99-1.38c-2.23,0.13-4.4,0.53-6.57,1.04c-0.43,0.1-0.86,0.21-1.3,0.21l0,0
		c-0.44,0-0.88-0.11-1.3-0.21c-2.17-0.51-4.34-0.92-6.57-1.04c-2.52-0.14-4.68,0.44-6.99,1.38c-0.01,0.01-0.25-0.13-0.41-0.21
		c-7.56-4.4-9.94-9-10.31-10.21c3.43-4.51,7.73-6.94,12.35-6.94c3.2,0,4.19,3.13,4.43,4.28c0.53,2.5-0.23,5.74-2.15,7.15
		c-2.28,1.39-3.48-1.27-3.48-3.75c0-2.78,1.07-4.27,1.79-4.27c0.05,0,1.33-0.16,1.54,2.34c0.24,2.81-1.54,3.7-1.58,1.93
		c-0.02-1.19,0.61-1.64,0.55-1.9c-0.07-0.29-0.37-0.47-0.66-0.4c-0.92,0.23-1.01,1.85-0.84,2.88c0.19,1.18,0.79,2.35,1.45,2.27
		c1.27-0.17,2.26-2.85,2.16-4.86c-0.15-2.87-1.74-3.61-2.66-3.61c-1.5,0-2.69,2.42-2.69,5.62c0,3.2,1.16,5.62,2.69,5.62
		c0.6,0.05,12.48,1.68,11.53-8.68c-0.34-3.77-2.21-6.72-4.31-8.63c-0.94-0.85-2.03-1.41-3.37-1.87c-0.92-0.28-1.6-0.46-2.36-0.59
		C29.61,6.62,33.36,5.27,36.66,7.31z M14.2,50.72c-0.29,1.98-0.41,3.65-0.45,4.68c-0.15,3.73,0.03,7.5,0.55,11.22
		c0.49,3.52,1.28,7,2.35,10.37c1.47,4.6,3.48,9,5.85,13.2c-2.42,2.21-6.06,3.07-7.28,3.31c-6.56-13.05-9.9-29.88-9.16-45.06
		C7.6,49.22,10.48,50.4,14.2,50.72z M6.11,47.61c0.62-10.36,3.25-18.48,7.06-23.89c0.68,1.76,3.64,6.16,10.47,10.17
		c-5.81,3.49-8.43,10.71-9.31,16.09C10.46,49.64,7.5,48.34,6.11,47.61z M22.89,90.87c4.35,7.51,8.67,11.99,11.96,14.35
		c-1.19,3.02-4.02,5.4-5.01,6.17c-5.68-3.82-10.48-9.87-14.26-17.18C17.03,93.91,20.45,93.02,22.89,90.87z M35.51,105.68
		c1.76,1.28,3.55,2.01,3.79,2.08c0.23-0.07,2.03-0.8,3.79-2.08c1.24,2.94,3.83,5.22,5,6.15c-1.62,1.03-3.31,1.88-5.07,2.52
		c-0.01-0.06-0.02-0.12-0.03-0.19c-0.36-1.87-2.8-2.25-3.7-2.25c-0.89,0-3.33,0.38-3.7,2.25c-0.01,0.06-0.02,0.12-0.03,0.19
		c-1.76-0.64-3.44-1.5-5.07-2.52C31.69,110.9,34.27,108.62,35.51,105.68z M43.74,105.22c3.29-2.36,7.61-6.84,11.96-14.35
		c2.44,2.15,5.86,3.04,7.31,3.34c-3.78,7.31-8.58,13.36-14.26,17.18C47.76,110.62,44.93,108.24,43.74,105.22z M56.09,90.19
		c2.38-4.19,4.39-8.6,5.85-13.2c1.07-3.37,1.86-6.85,2.35-10.37c0.52-3.72,0.7-7.49,0.55-11.22c-0.04-1.04-0.16-2.7-0.45-4.68
		c3.73-0.33,6.6-1.5,8.14-2.28c0.74,15.18-2.6,32.02-9.16,45.06C62.15,93.27,58.52,92.4,56.09,90.19z M64.28,49.97
		c-0.88-5.38-3.55-12.46-9.31-16.09c6.83-4.01,9.79-8.41,10.47-10.17c3.81,5.41,6.44,13.54,7.06,23.89
		C71.1,48.34,68.13,49.64,64.28,49.97z M35.08,119.51c-2.94-0.97-5.74-2.39-8.31-4.15c-1.63-1.12-3.17-2.37-4.6-3.71
		c-1.17-1.1-2.28-2.27-3.33-3.5c-0.71-0.83-1.4-1.69-2.06-2.57c-3.18-4.2-5.79-8.89-7.89-13.72c-2.03-4.66-3.63-9.51-4.85-14.44
		C2.79,72.39,1.94,67.25,1.5,62.07c-0.44-5.09-0.52-10.25-0.1-15.35c0.23-2.74,0.55-5.47,1.05-8.17c0.49-2.69,1.14-5.35,2.02-7.94
		c0.81-2.37,1.78-4.69,2.98-6.89c1.23-2.25,2.69-4.42,4.46-6.28c1.65-1.73,3.51-3.25,5.61-4.39c0.88-0.48,1.79-0.89,2.74-1.23
		c0.48-0.17,0.96-0.33,1.45-0.46c0.45-0.12,1.01-0.31,1.46-0.37c1.19-0.22,2.41-0.3,3.63-0.3c0.99,0,3.39,0.16,5.5,1.48
		c2.33,1.65,4.36,4.39,4.72,8.56c0.56,6.39-5.96,7.4-7.24,7.39c-0.2,0-0.3-0.19,0.34-0.84c1.5-1.92,1.99-4.86,1.48-7.23
		c-0.62-2.94-2.69-5.23-5.69-5.22c-4.49,0.01-8.51,2.26-11.49,5.51c-2.91,3.17-4.9,7.11-6.33,11.14
		c-1.83,5.18-2.75,10.64-3.12,16.11c-0.34,5.02-0.2,10.07,0.32,15.07c0.53,5.06,1.45,10.09,2.76,15c1.27,4.78,2.92,9.46,4.99,13.95
		c2.09,4.51,4.63,8.88,7.76,12.78c3.15,3.91,7.03,7.43,11.52,9.73c1.01,0.52,2.05,0.98,3.13,1.36c-0.06,1.67,0.37,3.16,0.94,4.39
		C35.69,119.74,35.67,119.71,35.08,119.51z M39.74,121.7c-0.02,0.02-0.22,0.27-0.44,0.3c-0.22-0.03-0.42-0.28-0.44-0.3
		c-1.11-1.39-2.76-4.1-2.14-7.32c0.18-0.91,1.7-1.32,2.58-1.33c0.88,0.01,2.41,0.42,2.58,1.33C42.5,117.6,40.85,120.31,39.74,121.7z
		 M77.1,62.07c-0.44,5.17-1.29,10.32-2.54,15.36c-1.22,4.93-2.82,9.78-4.85,14.44c-2.1,4.82-4.72,9.52-7.89,13.72
		c-0.66,0.87-1.35,1.73-2.06,2.57c-1.05,1.22-2.16,2.39-3.33,3.5c-1.43,1.34-2.97,2.59-4.6,3.71c-2.57,1.76-5.37,3.18-8.31,4.15
		c-0.6,0.2-0.61,0.23-1.32,0.39c0.58-1.23,1-2.72,0.94-4.39c1.07-0.38,2.11-0.84,3.13-1.36c4.49-2.3,8.37-5.83,11.52-9.73
		c3.14-3.89,5.67-8.27,7.76-12.78c2.08-4.49,3.72-9.18,4.99-13.95c1.31-4.92,2.23-9.94,2.76-15c0.52-5,0.66-10.05,0.32-15.07
		c-0.37-5.47-1.29-10.93-3.12-16.11c-1.42-4.03-3.42-7.97-6.33-11.14c-2.99-3.25-7-5.51-11.49-5.51c-3-0.01-5.07,2.29-5.69,5.22
		c-0.5,2.36-0.01,5.3,1.48,7.23c0.63,0.66,0.53,0.84,0.34,0.84c-1.28,0.01-7.8-1-7.24-7.39c0.36-4.17,2.4-6.91,4.72-8.56
		c2.11-1.33,4.51-1.48,5.5-1.48c1.22,0,2.43,0.07,3.63,0.3c0.48,0.07,1.02,0.24,1.46,0.37c0.49,0.13,0.98,0.29,1.45,0.46
		c0.94,0.34,1.86,0.75,2.74,1.23c2.11,1.15,3.96,2.66,5.61,4.39c1.77,1.86,3.23,4.03,4.46,6.28c1.2,2.2,2.17,4.52,2.98,6.89
		c0.88,2.59,1.53,5.25,2.02,7.94c0.49,2.7,0.82,5.43,1.05,8.17C77.62,51.83,77.54,56.98,77.1,62.07z"/>
	<path class="st0" d="M63.44,55.61c-0.16-3.81-1.27-15.43-9.18-20.47c-1.71-1.09-3.95-1.57-6.21-1.71c-3.88-0.25-6.76,1.23-8.7,1.29
		h-0.1c-1.94-0.05-4.84-1.54-8.72-1.29c-2.25,0.15-4.48,0.63-6.19,1.71c-7.91,5.04-9.02,16.66-9.18,20.47
		c-0.57,13.47,3.69,23.98,5.01,26.88c5.47,12.05,12.08,20.57,18.6,23.46l0.52,0.23l0.53-0.23c6.52-2.9,13.13-11.41,18.6-23.46
		C59.74,79.59,64,69.08,63.44,55.61z"/>
	<path class="st2" d="M51.05,46.47v2.63l0.53-0.08c0.01,0,0.11-0.01,0.25-0.01c0.29,0,0.83,0.05,1.16,0.39
		c0.32,0.32,0.42,0.86,0.3,1.57C53.28,51,48,73.9,47,78.26c-1.16-5.52-7.45-35.65-7.45-35.65l-0.03-0.13h-1.25l-0.02,0.14
		c0,0-4.55,29.33-5.46,35.2C31.6,72.74,26.52,51,26.52,51c-0.01-0.14-0.02-0.27-0.02-0.39c0-0.62,0.15-1.07,0.44-1.35
		c0.39-0.37,0.97-0.32,1.02-0.31l0.52,0.07l0-2.54h-8.84v2.49l0.39,0.06c0.19,0.04,1.18,0.28,1.34,1.18
		c0,0.02,10.34,44.38,10.78,46.26l0.03,0.12h1.55l0.02-0.13c0.05-0.31,4.26-27.84,5.04-33c1,5.13,6.36,32.7,6.42,33l0.03,0.13h1.39
		L56.9,50.17c0.24-0.96,1.08-1.07,1.44-1.07c0.05,0,0.09,0,0.1,0l0.51,0.04v-2.68H51.05z"/>
</g>
</svg>
