<svg xmlns="http://www.w3.org/2000/svg" viewBox="0 0 490.176 153.621"><path fill="#003E7E" d="M333.957 45.621v2.222H204.271v2.965h129.686v2.22h2.961v-7.407h-2.961zm7.408 0h2.959v7.407h-2.959v-7.407zm140.784 2.222H351.74v-2.222h-2.964v7.407h2.964v-2.22h130.409v-2.965zM333.957 95.765v2.227H204.271v2.964h129.686v2.223h2.961v-7.414h-2.961zm7.408 0h2.959v7.414h-2.959v-7.414zm140.784 2.227H351.74v-2.227h-2.964v7.414h2.964v-2.223h130.409v-2.964zM206.47 17.542c-.945-3.343-1.387-3.766-3.244-3.766v-1.605h9.703v1.605c-1.188 0-2.193 0-2.193 1.207 0 .422.064.782.365 1.887l3.277 11.772 5.244-16.472h2.158l5.541 16.472 2.809-11.065c.131-.5.303-1.312.303-1.812 0-1.923-1.727-1.958-2.668-1.989v-1.605h7.666v1.605c-2.33.211-2.57.668-3.48 4.266l-4.66 18.105h-2.301l-5.711-16.934-5.369 16.934h-2.266l-5.174-18.605zm41.206-5.371h11.353v1.605c-2.975 0-3.309.887-3.309 2.766v14.805c0 1.777.268 2.77 3.309 2.77v1.605h-11.353v-1.605c2.973 0 3.31-.887 3.31-2.77V16.542c0-1.805-.27-2.766-3.31-2.766v-1.605zm25.143 15.043h1.527c.641 2.711 2.26 7.016 6.451 7.016 2.299 0 3.719-1.531 3.719-3.418 0-2.242-1.725-3.129-5.205-4.836-5.647-2.776-6.492-5.551-6.492-7.617 0-3.02 2.4-6.613 6.797-6.613 2.129 0 4.123 1.137 5.439 2.773.17-.425.334-1.031.545-2.066h1.553v6.586H285.6c-.344-1.146-1.631-5.375-5.748-5.375-1.998 0-3.281 1.215-3.281 2.957 0 2.208 1.893 3.094 5.002 4.625 3.684 1.812 7.199 3.59 7.199 7.719 0 2.664-2.195 7.184-7.229 7.184-2.232 0-4.801-.957-6.527-3.238-.164.391-.506 1.141-.67 2.383h-1.527v-8.08zm49.414 8.254h-1.559c-.367-1.527-.873-2.273-1.142-2.666-.85.959-2.941 3.346-7.236 3.346-6.016 0-11.256-4.945-11.256-12.094 0-6.617 4.67-12.308 11.562-12.308 4.02 0 6.049 1.957 6.93 2.879.338-.672.537-1.418.711-2.172h1.484l.27 8.684h-1.59c-.916-4.625-4.086-7.473-7.432-7.473-3.719 0-6.596 3.098-6.596 9.931 0 9.315 4.666 10.491 6.559 10.491 4.293 0 7.065-4.27 7.703-7.508h1.592v8.89zm25.218-23.722c10.1 0 12.6 7.93 12.6 12.203 0 6.258-4.287 12.199-12.467 12.199-8.885 0-12.506-6.688-12.506-12.238 0-6.081 4.055-12.164 12.373-12.164zm.166 22.339c6.859 0 7.096-7.788 7.096-10.207 0-4.809-1.353-10.07-7.129-10.07-6.115 0-7.164 5.585-7.164 10.07 0 2.594.197 10.207 7.197 10.207zm27.481-3.487c0 2.46.066 3.519 3.346 3.519v1.605h-8.315v-1.605c3.176 0 3.147-1.133 3.147-3.519v-12.02c0-3.133-.068-4.448-3.113-4.801v-1.605h6.525L389.419 28V17.263c0-2.278-.096-3.485-3.203-3.485v-1.605h8.344v1.605c-3.277 0-3.311.961-3.311 3.485v18.672h-1.521l-14.629-18.317v12.98h-.001zm31.768-3.384h1.523c.639 2.711 2.26 7.016 6.451 7.016 2.301 0 3.719-1.531 3.719-3.418 0-2.242-1.725-3.129-5.203-4.836-5.646-2.776-6.49-5.551-6.49-7.617 0-3.02 2.396-6.613 6.793-6.613 2.129 0 4.125 1.137 5.44 2.773.17-.425.334-1.031.541-2.066h1.557v6.586h-1.557c-.338-1.146-1.625-5.375-5.746-5.375-1.996 0-3.277 1.215-3.277 2.957 0 2.208 1.894 3.094 5 4.625 3.685 1.812 7.199 3.59 7.199 7.719 0 2.664-2.195 7.184-7.229 7.184-2.23 0-4.801-.957-6.527-3.238-.164.391-.504 1.141-.67 2.383h-1.523v-8.08h-.001zm27.853-15.043h11.35v1.605c-2.971 0-3.307.887-3.307 2.766v14.805c0 1.777.27 2.77 3.307 2.77v1.605h-11.35v-1.605c2.971 0 3.305-.887 3.305-2.77V16.542c0-1.805-.268-2.766-3.305-2.766v-1.605zm28.187 18.427c0 2.46.068 3.519 3.348 3.519v1.605h-8.312v-1.605c3.174 0 3.147-1.133 3.147-3.519v-12.02c0-3.133-.07-4.448-3.115-4.801v-1.605h6.523L477.231 28V17.263c0-2.278-.096-3.485-3.203-3.485v-1.605h8.342v1.605c-3.275 0-3.309.961-3.309 3.485v18.672h-1.523l-14.632-18.318v12.981zm-251.395 51.14c0 1.633.166 2.773 3.213 2.773v1.602h-11.098v-1.602c2.881 0 3.147-1.035 3.147-2.773V66.937c0-1.668-.201-2.772-3.147-2.772v-1.599h11.098v1.599c-2.943 0-3.213 1.03-3.213 2.772v5.801h10.373v-5.801c0-1.668-.174-2.772-3.143-2.772v-1.599h11.016v1.599c-2.943 0-3.146 1.104-3.146 2.772v14.801c0 1.562.135 2.773 3.146 2.773v1.602h-11.016v-1.602c2.873 0 3.143-1.035 3.143-2.773v-7.082h-10.373v7.082zm28.215-19.172h11.348v1.599c-2.969 0-3.303.89-3.303 2.772v14.801c0 1.773.264 2.773 3.303 2.773v1.602h-11.348v-1.602c2.971 0 3.307-.887 3.307-2.773V66.937c0-1.812-.266-2.772-3.307-2.772v-1.599zm21.794 15.043h1.521c.645 2.703 2.262 7.008 6.451 7.008 2.303 0 3.719-1.531 3.719-3.418 0-2.238-1.723-3.125-5.203-4.83-5.647-2.774-6.488-5.557-6.488-7.615 0-3.026 2.395-6.617 6.793-6.617 2.127 0 4.123 1.137 5.438 2.773.17-.426.334-1.031.547-2.062h1.551v6.578h-1.551c-.346-1.137-1.627-5.371-5.75-5.371-1.994 0-3.279 1.215-3.279 2.957 0 2.203 1.896 3.094 5 4.625 3.684 1.809 7.201 3.591 7.201 7.715 0 2.668-2.195 7.188-7.229 7.188-2.232 0-4.803-.961-6.529-3.238-.164.391-.506 1.141-.67 2.383h-1.521l-.001-8.076zm30.75-13.125c-2.031 0-4.562 0-4.762 4.762h-1.559v-6.68h22.102v6.68h-1.553c-.441-4.762-2.875-4.762-4.295-4.762h-2.836v17.254c0 1.738.201 2.773 3.24 2.773v1.602H291.39v-1.602c2.941 0 3.24-.926 3.24-2.773V64.484h-2.36zm36.424-2.348c10.102 0 12.605 7.934 12.605 12.199 0 6.262-4.297 12.203-12.471 12.203-8.889 0-12.5-6.688-12.5-12.238 0-6.082 4.053-12.164 12.366-12.164zm.171 22.336c6.855 0 7.092-7.789 7.092-10.21 0-4.797-1.35-10.062-7.129-10.062-6.115 0-7.164 5.581-7.164 10.062 0 2.602.201 10.21 7.201 10.21zm27.936-2.734c0 1.738.24 2.773 3.279 2.773v1.602h-11.213v-1.602c2.9 0 3.207-.926 3.207-2.773V66.867c0-1.777-.236-2.772-3.207-2.772v-1.642l5.164-.176c.846 0 2.605-.102 4.498-.035 1.922.07 3.986.211 5.406.605 2.328.641 4.869 2.492 4.869 6.012 0 2.312-1.289 4.621-4.908 5.656 1.728 1.066 2.473 2.313 4.695 5.902 2.1 3.385 2.74 3.951 4.402 4.094v1.602h-5.984c-.881-1.074-1.857-2.777-2.836-4.443l-1.523-2.635c-1.889-3.273-2.025-3.453-5.002-3.453h-.848v6.156h.001zm0-8.077h1.055c2.092 0 5.877-.036 5.877-4.837 0-4.77-4.156-4.691-6.932-4.624v9.461zm24.637-11.095h11.352v1.599c-2.971 0-3.309.89-3.309 2.772v14.801c0 1.773.269 2.773 3.309 2.773v1.602h-11.352v-1.602c2.975 0 3.309-.887 3.309-2.773V66.937c0-1.812-.266-2.772-3.309-2.772v-1.599zm40.685 23.293h-1.557c-.367-1.527-.877-2.273-1.144-2.664-.852.961-2.945 3.344-7.236 3.344-6.014 0-11.254-4.945-11.254-12.098 0-6.612 4.67-12.305 11.559-12.305 4.019 0 6.049 1.958 6.932 2.879.336-.676.541-1.421.707-2.168h1.486l.271 8.681h-1.59c-.914-4.626-4.086-7.474-7.432-7.474-3.719 0-6.596 3.098-6.596 9.926 0 9.32 4.67 10.492 6.557 10.492 4.297 0 7.066-4.27 7.707-7.503h1.59v8.89zm14.498-4.801c-.24.645-.479 1.316-.479 1.848 0 1.605 1.793 1.605 2.568 1.605v1.602h-7.705v-1.602c1.758 0 2.672-.785 4.057-4.625l6.455-17.783h1.555l6.824 18.35c1.115 2.988 1.488 4.059 3.752 4.059v1.602h-10.547v-1.602c1.391 0 2.572 0 2.572-1.141 0-.211-.031-.602-.205-1.066l-1.043-2.773h-7.268l-.536 1.526zm1.18-3.234h6.012l-3.07-8.219-2.942 8.219zm44.029 8.289h-19.935v-1.602c2.977 0 3.244-.961 3.244-2.773V66.937c0-1.742-.203-2.772-3.244-2.772v-1.599h11.252v1.599c-2.943 0-3.277.89-3.277 2.772v13.555c0 2.668 0 3.699 3.113 3.699 2.561 0 6.824 0 7.465-5.941h1.52l-.138 7.863zm-277.082 41.886h1.518c.643 2.703 2.268 7.004 6.461 7.004 2.295 0 3.715-1.527 3.715-3.41 0-2.246-1.717-3.133-5.207-4.84-5.643-2.77-6.486-5.547-6.486-7.609 0-3.027 2.398-6.617 6.793-6.617 2.131 0 4.123 1.143 5.443 2.77.166-.426.336-1.023.539-2.059h1.555v6.582h-1.555c-.338-1.141-1.621-5.371-5.742-5.371-1.996 0-3.281 1.207-3.281 2.949 0 2.207 1.891 3.094 5.004 4.625 3.682 1.812 7.195 3.594 7.195 7.719 0 2.672-2.199 7.184-7.23 7.184-2.234 0-4.797-.961-6.525-3.234-.17.391-.506 1.137-.678 2.383h-1.518l-.001-8.076zm51.502-15.472c10.105 0 12.607 7.93 12.607 12.199 0 6.262-4.295 12.199-12.471 12.199-8.887 0-12.502-6.684-12.502-12.234.001-6.086 4.056-12.164 12.366-12.164zm.172 22.336c6.857 0 7.098-7.789 7.098-10.207 0-4.801-1.354-10.07-7.133-10.07-6.115 0-7.162 5.59-7.162 10.07 0 2.597.199 10.207 7.197 10.207zm56.367 1.39h-1.559c-.367-1.531-.873-2.281-1.143-2.668-.853.961-2.943 3.34-7.234 3.34-6.017 0-11.258-4.941-11.258-12.094 0-6.617 4.67-12.305 11.562-12.305 4.018 0 6.049 1.953 6.93 2.879.334-.676.539-1.422.709-2.168h1.486l.27 8.68h-1.592c-.912-4.625-4.084-7.469-7.432-7.469-3.717 0-6.596 3.094-6.596 9.918 0 9.324 4.67 10.496 6.559 10.496 4.295 0 7.066-4.266 7.705-7.5h1.592v8.891h.001zm24.944-23.297h11.354v1.594c-2.975 0-3.312.891-3.312 2.777v14.797c0 1.777.273 2.777 3.312 2.777v1.598h-11.354v-1.598c2.973 0 3.309-.891 3.309-2.777v-14.797c0-1.816-.267-2.777-3.309-2.777v-1.594zm54.949 23.543h-19.939v-1.598c2.971 0 3.242-.961 3.242-2.777v-14.797c0-1.703-.164-2.777-3.242-2.777v-1.594h18.551l.305 6.117h-1.525c-1.014-4.164-2.463-4.203-5.166-4.203h-4.187v8.324h2.26c2.266 0 2.736-.422 2.875-2.949h1.586v7.824h-1.518c-.139-2.594-.746-2.953-2.91-2.953h-2.293v5.555c0 3.055 0 3.91 3.209 3.91h1.787c1.389 0 4.766 0 5.578-5.836h1.553l-.166 7.754zm29.467-21.628c-2.031 0-4.562 0-4.766 4.77h-1.559v-6.684h22.104v6.684h-1.553c-.441-4.77-2.877-4.77-4.293-4.77h-2.84v17.254c0 1.742.203 2.777 3.244 2.777v1.598h-11.219v-1.598c2.941 0 3.242-.93 3.242-2.777v-17.254h-2.36zm40.82 2.136c-.135-.176-.199-.355-.233-.391-1.016-1.707-1.558-1.992-2.98-2.066v-1.594h10.48v1.594c-1.221 0-2.301 0-2.301 1.035 0 .465.174.887 1.119 2.559l3.48 6.191 3.309-5.512c.678-1.141 1.08-1.887 1.08-2.633 0-1.641-1.418-1.641-2.568-1.641v-1.594h8.148v1.594c-1.861.145-2.367.891-4.496 4.348l-4.695 7.645v5.582c0 1.602.135 2.777 3.242 2.777v1.598h-11.256v-1.598c2.942 0 3.275-.891 3.275-2.777v-5.262l-5.604-9.855z"/><path fill="none" d="M80.728 1.161c-.006.004-.012.004-.018.004a8.953 8.953 0 0 0-5.967 3.797c-.43.64-.723 1.339-.973 2.05l-1.02.219c-1.746.434-3.24 1.497-4.281 2.935a75.638 75.638 0 0 0-29.047 19.89h-.66c.094 0 .189-.016.285-.012a71.945 71.945 0 0 0-7.195-.024l-2.984.035c-.141 0-.277.113-.418.125-7.748.65-12.146 2.996-13.412 3.766-7.373 3.676-10.871 9.129-12.85 12.957C.711 49.77 0 53.144 0 56.61c0 5.985 2.119 12.242 6.049 16.645 3.654 4.102 8.523 6.277 13.791 6.434-.008.336-.029.684-.029 1.016 0 14.871 4.361 29.188 12.553 41.555.344 3.48.936 8.133 1.789 14.012 1.422 9.793 9.762 16.582 21.242 17.297 9.953.609 24.326-4.258 40.975-9.896l3.658-1.24c7.711-2.625 28.148-9.59 35.656-9.863a7.37 7.37 0 0 0 .394-.023c.059-.008.09-.004.145-.012-.006.027-.02.055-.023.082a5.749 5.749 0 0 0 1.32 4.851c7.539 8.629 20.6 7.531 25.484 4.523 3.328-2.043 5.225-4.318 7.242-8.695 1.375-3 7.777-19.137 8.145-20.172h-.002c0-.031.395-1.793.541-2.441.191-1.047.326-2.102.326-3.16 0-4.332-1.601-8.699-4.666-12.594-1.246-1.578-2.748-2.984-4.438-4.246.441-3.32.744-6.656.744-9.977 0-8.957-1.631-17.648-4.697-25.961.693-.949 1.184-2.059 1.184-3.328V35.812a5.75 5.75 0 0 0-5.746-5.754h-10.352a75.635 75.635 0 0 0-29.297-19.984c-1.059-1.4-2.522-2.414-4.209-2.832 0 0-.426-.09-1.022-.219-.242-.699-.531-1.391-.949-2.016a8.986 8.986 0 0 0-5.996-3.832C104.867.397 99.972 0 95.261 0c-4.712-.003-9.603.39-14.533 1.161z"/><path fill="#003E7E" d="M170.068 98.488c-1.707-2.172-3.867-3.777-6.113-4.969a69.833 69.833 0 0 0 1.19-12.816l-.002-.047.002-.055c0-.383-.025-.754-.029-1.133-.016-.824-.027-1.648-.07-2.461-.041-.816-.115-1.617-.184-2.422-.035-.391-.057-.781-.098-1.168-.097-.89-.21-1.778-.34-2.664-.041-.285-.074-.574-.119-.86a68.02 68.02 0 0 0-.494-2.764c-.047-.231-.09-.466-.137-.692a65.233 65.233 0 0 0-.654-2.832c-.045-.184-.092-.363-.137-.543a71 71 0 0 0-.826-2.901c-.039-.122-.078-.251-.115-.372a70.34 70.34 0 0 0-1.016-2.996c-.018-.051-.037-.097-.057-.149a69.867 69.867 0 0 0-2.145-5.229h2.908V35.704h-12.957a70.139 70.139 0 0 0-30.916-21.141c0-.125-.012-.25-.039-.375a1.577 1.577 0 0 0-.16-.566 1.814 1.814 0 0 0-1.16-.899 86.248 86.248 0 0 0-5.156-1.105l.227-.941c.055-.234.078-.473.078-.706.03-.66-.15-1.313-.516-1.864a3.169 3.169 0 0 0-2.117-1.352c-4.615-.73-9.203-1.102-13.652-1.102-4.435 0-9.023.371-13.644 1.09-.862.14-1.628.63-2.115 1.355a3.076 3.076 0 0 0-.521 1.859c.004.238.025.474.082.713l.227.943a86.672 86.672 0 0 0-5.164 1.105 1.796 1.796 0 0 0-1.152.895 1.487 1.487 0 0 0-.16.548 1.89 1.89 0 0 0-.043.468 70.129 70.129 0 0 0-30.738 21.074h-3.269v-.016a68.065 68.065 0 0 0-6.836-.016c-.391.004-.764.016-1.141.031h-1.852v.109c-5.824.488-9.516 2.081-10.941 2.969-5.756 2.734-8.715 6.828-10.691 10.66-1.117 2.164-1.617 4.777-1.566 7.469.064 4.5 1.684 9.238 4.605 12.512 3.945 4.43 9.637 5.711 15.66 3.566a70.684 70.684 0 0 0-.367 4.974c-.039.878-.07 1.753-.07 2.64l.002.059-.002.043c0 14.711 4.586 28.363 12.391 39.625.336 3.898 1.066 9.438 1.895 15.113 1.188 8.176 8.508 11.922 15.904 12.379 9.498.586 25.244-5.039 42.436-10.84 16.113-5.492 30.359-9.914 37.287-10.164 10.271-1.082 11.779 4.043 6.377 6.863 5.492 6.285 15.5 5.035 18.139 3.41 2.217-1.363 3.432-2.738 5.033-6.207 1.332-2.91 7.652-18.863 7.94-19.676a5.14 5.14 0 0 0 .291-1.301c.868-4.163-.697-8.253-3.193-11.417z"/><linearGradient id="a" gradientUnits="userSpaceOnUse" x1="95.265" y1="125.478" x2="95.265" y2="143.982" gradientTransform="matrix(1 0 0 -1 0 154.954)"><stop offset="0" stop-color="#aa712d"/><stop offset=".011" stop-color="#ac7533"/><stop offset=".083" stop-color="#bc8a53"/><stop offset=".158" stop-color="#c99e6d"/><stop offset=".236" stop-color="#d3ae84"/><stop offset=".316" stop-color="#dab995"/><stop offset=".401" stop-color="#dec19f"/><stop offset=".5" stop-color="#e0c3a3"/><stop offset="1" stop-color="#aa712d"/></linearGradient><path fill="url(#a)" d="M95.263 10.972c3.445 0 7.004.293 10.588.766-.787 3.316-3.594 15.039-4.232 17.738-2.34-.262-4.4-.391-6.356-.391-1.961 0-4.025.129-6.35.391-.646-2.707-3.439-14.426-4.234-17.746 3.58-.468 7.139-.758 10.584-.758z"/><linearGradient id="b" gradientUnits="userSpaceOnUse" x1="76.946" y1="132.423" x2="113.583" y2="132.423" gradientTransform="matrix(1 0 0 -1 0 154.954)"><stop offset="0" stop-color="#aa712d"/><stop offset=".5" stop-color="#ddbe9c"/><stop offset="1" stop-color="#aa712d"/></linearGradient><path fill="url(#b)" d="M109.351 15.078c1.416.238 2.83.517 4.232.824-.98 2.77-4.248 11.918-5.018 14.09a61.625 61.625 0 0 0-2.662-.488l3.448-14.426zm-28.166-.008l3.439 14.426c-.889.149-1.775.313-2.658.492-.773-2.176-4.031-11.318-5.02-14.09a84.79 84.79 0 0 1 4.239-.828z"/><linearGradient id="c" gradientUnits="userSpaceOnUse" x1="10.332" y1="77.865" x2="157.041" y2="77.865" gradientTransform="matrix(1 0 0 -1 0 154.954)"><stop offset="0" stop-color="#eeddca"/><stop offset=".5" stop-color="#fff"/><stop offset="1" stop-color="#f3e6d9"/></linearGradient><path fill="url(#c)" d="M157.041 40.398v6.418c-6.978 0-8.633 1.707-12.18 15.109l-7.633 29.391c-5.963 1.062-12.539 2.738-19.334 4.715l9.605-36.809c1.15-4.41 1.396-5.848 1.396-7.551 0-4.855-3.799-4.855-8.24-4.855v-6.418h36.386zM11.029 61.304c-1.031-3.418-.924-7.172.361-9.652 2.996-5.823 8.346-11.902 27.137-11.277l-.006.023h31.391v6.418c-4.443 0-8.244 0-8.244 4.855 0 1.703.252 3.141 1.404 7.551l12.092 46.355 17.658-65.112v-.064h4.918v.02l15.455 57.012c-2.986.91-5.99 1.863-8.99 2.836l-8.922-32.906-10.686 39.41c-9.965 3.281-19.215 6.117-24.937 7.051-.154.022-.31.029-.465.02L45.709 61.926c-3.312-12.488-4.973-14.816-10.838-15.082h-.1a.084.084 0 0 1-.027.008c-6.777-.882-13.504.367-18.572 4.84-2.295 2.018-4.362 5.8-5.143 9.612z"/><path fill="#BD8C56" d="M26.685 67.546c-5.918 2.954-9.664 1.184-11.078-2.43-2.426-6.18 5.949-15.324 14.035-13.941-11.394 8.055-7.711 16.797-2.957 16.371z"/><linearGradient id="d" gradientUnits="userSpaceOnUse" x1="30.575" y1="89.408" x2="160.134" y2="89.408" gradientTransform="matrix(1 0 0 -1 0 154.954)"><stop offset="0" stop-color="#9b5f0e"/><stop offset=".008" stop-color="#9e6214"/><stop offset=".054" stop-color="#ad7534"/><stop offset=".103" stop-color="#b9874e"/><stop offset=".157" stop-color="#c49663"/><stop offset=".216" stop-color="#cca374"/><stop offset=".283" stop-color="#d2ac81"/><stop offset=".365" stop-color="#d5b188"/><stop offset=".505" stop-color="#d6b38b"/><stop offset=".681" stop-color="#d5b189"/><stop offset=".759" stop-color="#d2ac82"/><stop offset=".817" stop-color="#cda476"/><stop offset=".866" stop-color="#c69967"/><stop offset=".908" stop-color="#bd8b54"/><stop offset=".947" stop-color="#b17b3d"/><stop offset=".981" stop-color="#a46921"/><stop offset="1" stop-color="#9b5f0e"/></linearGradient><path fill="url(#d)" d="M160.134 80.703c0 3.707-.328 7.336-.93 10.875a34.454 34.454 0 0 0-6.539-1.332c.525-3.154.79-6.346.791-9.543 0-7-1.244-13.719-3.525-19.941 1.473-5.379 2.344-7.664 3.543-8.629a64.327 64.327 0 0 1 6.66 28.57zM116.17 19.375a64.94 64.94 0 0 1 25.82 16.434h-9.795a58.152 58.152 0 0 0-18.266-10.152l2.241-6.282zm-41.789.055l2.238 6.284a58.078 58.078 0 0 0-18.102 10.094H48.72A64.917 64.917 0 0 1 74.381 19.43zm-34.948 90.12c-.342.539-.658 1.297-.926 2.168a64.322 64.322 0 0 1-7.932-31.016 64.419 64.419 0 0 1 6.615-28.488c1.166 1.027 2.037 3.391 3.51 8.785a57.803 57.803 0 0 0-3.445 19.703 57.71 57.71 0 0 0 5.666 24.992 14.966 14.966 0 0 0-3.488 3.856z"/><path fill="#9B5F0E" d="M150.17 133.046c1.35-1.52 3.684-5.328-2.775-8.293 2.685.09 8.688 2.359 9.105 5.535.316 2.422-2.717 4.25-6.33 2.758z"/><linearGradient id="e" gradientUnits="userSpaceOnUse" x1="43.02" y1="35.946" x2="168.527" y2="35.946" gradientTransform="matrix(1 0 0 -1 0 154.954)"><stop offset="0" stop-color="#e4cbb0"/><stop offset=".5" stop-color="#fff"/><stop offset="1" stop-color="#d1ab7f"/></linearGradient><path fill="url(#e)" d="M168.47 109.093l-7.586 18.254c-3.184-6.727-12.965-7.688-18.906-7.316-23.871 1.488-69.652 23.75-86.129 22.469-6.561-.516-10.432-4.695-11.129-9.289-.723-3.867-1.729-13.164-1.699-15.148.088-5.398 3.537-10.613 6.031-11.273l.469 1.973c-3.277 4.449-.082 10.816 7.508 10.527 14.75.32 70.945-25.492 94.652-23.742 6.02.436 17.762 3.631 16.789 13.545z"/><path fill="#BBC2DB" d="M89.853 105.132c.391-.129.785-.262 1.18-.395 2.891-.965 5.846-1.957 8.826-2.936-1.668-6.15-3.264-12.033-4.553-16.791-1.523 5.615-3.466 12.792-5.453 20.122z"/><radialGradient id="f" cx="94.983" cy="58.949" r="91.342" gradientTransform="matrix(1 0 0 -1 0 154.954)" gradientUnits="userSpaceOnUse"><stop offset="0" stop-color="#fff"/><stop offset=".253" stop-color="#909dc4"/><stop offset=".584" stop-color="#2e548f"/><stop offset=".731" stop-color="#003e7e"/></radialGradient><path fill="url(#f)" d="M42.295 80.802a52.746 52.746 0 0 0 5.07 22.611c1.49-.52 2.918-.789 4.141-.902l-8.248-31.75a53.121 53.121 0 0 0-.963 10.041zm105.148-10.365l-5.254 20.227c1.895-.234 3.715-.398 5.426-.457.549-3.055.852-6.195.852-9.404 0-3.48-.343-6.953-1.024-10.366zm-31.359-18.926V35.902h7.578a53.29 53.29 0 0 0-11.395-5.43l-.816 2.294a1.8 1.8 0 0 1-2.102 1.151 63.132 63.132 0 0 0-3.309-.672 3.12 3.12 0 0 1-3.227 1.727c-2.906-.391-5.309-.574-7.531-.574-2.234 0-4.619.184-7.52.574a3.13 3.13 0 0 1-3.234-1.734 60.58 60.58 0 0 0-3.297.68 1.8 1.8 0 0 1-2.109-1.151l-.797-2.235a53.133 53.133 0 0 0-11.23 5.371h7.432v15.609h-4.592c-1.172 0-2.787.012-3.652.176v.082c0 1.095.125 2.023 1.258 6.392 0 0 4.168 15.976 7.736 29.644l13.135-48.449.92-3.453h8.43l3.51.023s9.062 33.422 14.07 51.879l7.732-29.644c1.139-4.368 1.252-5.297 1.252-6.392v-.082c-.855-.164-2.479-.176-3.648-.176h-4.594v-.001z"/><path fill="#003E7E" d="M137.674 104.66c-.203-3.363-2.389-4.332-5.1-3.648l-5.17 1.301.906 15.363 3.438-.809-.344-5.926.041-.012 3.709 5.316 4.789-.645-5.047-5.812c1.949-.816 2.91-2.941 2.778-5.128zm-6.086 3.613l-.336.086-.227-3.855.332-.078c1.148-.266 2.465-.336 2.57 1.359.106 1.699-1.185 2.238-2.339 2.488zm-65.114 12.801l.182 6.179-5.522 1.133-.166-6.34-3.757.391.455 15.648 3.738-.336-.188-6.382 5.54-1.086.187 6.363 3.934-1.031-.543-15.633-3.86 1.094zm80.852-17.481l-2.317-4.699-4.277.547 4.295 8.305-.818 7.617 3.617.156.896-7.934 6.18-8.57-4.199-.336-3.377 4.914zm-56.117 16.059l-.988-.016c-.668-.035-1.715-.07-1.859-.953-.125-.832.699-1.508 1.373-1.707a3.502 3.502 0 0 1 2.596.27l.98-3.441c-1.379-.387-3.199-.34-4.617.078-2.822.84-4.543 3.418-4.055 6.441.455 2.887 2.074 3.078 4.486 3.102.826 0 2.328-.039 2.498 1.047.172 1.051-.68 1.777-1.539 2.027-1.246.367-2.449-.016-3.496-.594l-1.074 3.59a8.001 8.001 0 0 0 5.221.254c1.439-.41 2.846-1.254 3.795-2.574.969-1.332 1.061-2.969.818-4.457-.382-2.419-2.071-3.028-4.139-3.067zm24.945-14.777c-3.551 1.152-6.422 5.441-5.863 10.023.59 4.914 3.859 7.469 7.824 6.199 3.973-1.273 6.445-5.676 5.844-10.613-.563-4.613-4.243-6.774-7.805-5.609zm1.502 12.39c-1.92.609-3.721-.797-4.041-3.414-.25-2.101 1.09-4.527 3.004-5.148 1.922-.621 3.727.781 3.984 2.883.317 2.624-1.031 5.058-2.947 5.679zm-41.9 1.27l.886 15.316 3.813-1.129-.891-15.348-3.808 1.161zm31.574-10.289l-10.371 3.394.218 3.477 3.389-1.047.779 11.707 3.489-1.149-.774-11.715 3.342-1.105-.072-3.562z"/></svg>