<?xml version="1.0"?>
<svg xmlns="http://www.w3.org/2000/svg" xmlns:xlink="http://www.w3.org/1999/xlink" fill="#000000" version="1.1" x="0px" y="0px" viewBox="0 0 24 24" enable-background="new 0 0 24 24" xml:space="preserve">
  <g>
    <path class="airwave airwave1" d="M12.268,9.975c0.098,0.098,0.226,0.146,0.354,0.146s0.256-0.049,0.354-0.146C13.636,9.314,14,8.435,14,7.5   s-0.364-1.814-1.025-2.475c-0.195-0.195-0.512-0.195-0.707,0s-0.195,0.512,0,0.707C12.74,6.205,13,6.833,13,7.5   s-0.26,1.295-0.732,1.768C12.072,9.463,12.072,9.779,12.268,9.975z"/>
    <path class="airwave airwave1" d="M8.025,9.975c0.098,0.098,0.226,0.146,0.354,0.146s0.256-0.049,0.354-0.146c0.195-0.195,0.195-0.512,0-0.707   C8.26,8.795,8,8.167,8,7.5s0.26-1.295,0.732-1.768c0.195-0.195,0.195-0.512,0-0.707s-0.512-0.195-0.707,0   C7.364,5.686,7,6.565,7,7.5S7.364,9.314,8.025,9.975z"/>
    <path class="airwave airwave2" d="M13.682,10.682c-0.195,0.195-0.195,0.512,0,0.707c0.098,0.098,0.226,0.146,0.354,0.146s0.256-0.049,0.354-0.146   c2.145-2.145,2.145-5.634,0-7.778c-0.195-0.195-0.512-0.195-0.707,0s-0.195,0.512,0,0.707C15.437,6.073,15.437,8.927,13.682,10.682   z"/>
    <path class="airwave airwave2" d="M6.611,11.389c0.098,0.098,0.226,0.146,0.354,0.146s0.256-0.049,0.354-0.146c0.195-0.195,0.195-0.512,0-0.707   c-1.754-1.754-1.754-4.61,0-6.364c0.195-0.195,0.195-0.512,0-0.707s-0.512-0.195-0.707,0C4.467,5.755,4.467,9.245,6.611,11.389z"/>
    <path class="airwave airwave3" d="M15.097,12.096c-0.195,0.195-0.195,0.512,0,0.707c0.098,0.098,0.226,0.146,0.354,0.146s0.256-0.049,0.354-0.146   c2.924-2.924,2.924-7.682,0-10.606c-0.195-0.195-0.512-0.195-0.707,0s-0.195,0.512,0,0.707   C17.631,5.438,17.631,9.562,15.097,12.096z"/>
    <path class="airwave airwave3" d="M5.55,12.95c0.128,0,0.256-0.049,0.354-0.146c0.195-0.195,0.195-0.512,0-0.707c-2.534-2.534-2.534-6.658,0-9.192   c0.195-0.195,0.195-0.512,0-0.707s-0.512-0.195-0.707,0c-2.924,2.924-2.924,7.682,0,10.606C5.294,12.901,5.422,12.95,5.55,12.95z"/>
    <path class="tower" d="M11.001,8.908C11.582,8.701,12,8.152,12,7.5C12,6.671,11.329,6,10.5,6S9,6.671,9,7.5c0,0.652,0.418,1.201,0.999,1.408   L4.535,22.817c-0.077,0.196-0.023,0.42,0.136,0.559c0.158,0.14,0.389,0.164,0.572,0.062l5.257-2.921l5.257,2.921   C15.833,23.479,15.917,23.5,16,23.5c0.118,0,0.236-0.042,0.329-0.124c0.159-0.139,0.214-0.362,0.137-0.559L11.001,8.908z    M8.864,14.532L9.699,15.2l-1.601,1.28L8.864,14.532z M9.313,13.609c-0.022-0.018-0.048-0.023-0.072-0.037l1.259-3.205l1.259,3.205   c-0.024,0.014-0.05,0.02-0.072,0.037L10.5,14.56L9.313,13.609z M12.136,14.531l0.766,1.95L11.301,15.2L12.136,14.531z    M5.975,21.887l1.252-3.188l2.243,1.246L5.975,21.887z M7.895,17.925l2.605-2.084l2.605,2.084L10.5,19.372L7.895,17.925z    M11.53,19.944l2.243-1.246l1.253,3.188L11.53,19.944z"/>
  </g>
</svg>
