<svg id="a24fac88-f7a5-41ec-b0ac-689eb4b12893" data-name="Layer 1" xmlns="http://www.w3.org/2000/svg" xmlns:xlink="http://www.w3.org/1999/xlink" viewBox="0 0 476.77 142.21"><defs><style>.ffbbf467-079d-4482-9e3b-776769facc8f{fill:#003e7e;}.ba501c9b-f703-4816-9f7a-795da96e6808{fill:url(#b5503855-f9fe-42dc-b8a7-c260d8048bb1);}.a1067ac5-e2a7-43ae-b5af-3cdc320f5036{fill:url(#a43959de-be3a-4982-a974-defdb4e21a85);}.ea20a5f7-36e7-47c5-b105-3ecf99da1a8d{fill:url(#a8ae1451-657d-495d-a0dc-40d2b125c437);}.a9b97b4a-db9f-4e12-805b-c19ff0f7a879{fill:#bd8c56;}.fb31f15a-689a-45fa-9905-5d4ba197f66e{fill:url(#a68e3554-10a5-4418-9a02-0917e470003d);}.fc1babde-a861-47fe-8882-4c856493fefb{fill:#9b5f0e;}.b02c373b-5a17-435b-93d9-8875ba5a81e2{fill:url(#bbec7f45-77db-41ee-bd4f-6675eac10545);}.af853487-0890-4454-85a5-677fbf03cf7b{fill:#bbc2db;}.fe5a1ef5-b6db-46f1-b266-d924b506cd4e{fill:url(#a42ac834-74ad-40f8-9969-3fdf6a6614af);}</style><linearGradient id="b5503855-f9fe-42dc-b8a7-c260d8048bb1" x1="89.53" y1="660.87" x2="89.53" y2="642.37" gradientTransform="translate(0 -637.05)" gradientUnits="userSpaceOnUse"><stop offset="0" stop-color="#aa712d"/><stop offset="0.01" stop-color="#ac7533"/><stop offset="0.08" stop-color="#bc8a53"/><stop offset="0.16" stop-color="#c99e6d"/><stop offset="0.24" stop-color="#d3ae84"/><stop offset="0.32" stop-color="#dab995"/><stop offset="0.4" stop-color="#dec19f"/><stop offset="0.5" stop-color="#e0c3a3"/><stop offset="1" stop-color="#aa712d"/></linearGradient><linearGradient id="a43959de-be3a-4982-a974-defdb4e21a85" x1="71.21" y1="653.92" x2="107.85" y2="653.92" gradientTransform="translate(0 -637.05)" gradientUnits="userSpaceOnUse"><stop offset="0" stop-color="#aa712d"/><stop offset="0.5" stop-color="#ddbe9c"/><stop offset="1" stop-color="#aa712d"/></linearGradient><linearGradient id="a8ae1451-657d-495d-a0dc-40d2b125c437" x1="4.6" y1="708.48" x2="151.3" y2="708.48" gradientTransform="translate(0 -637.05)" gradientUnits="userSpaceOnUse"><stop offset="0" stop-color="#eeddca"/><stop offset="0.5" stop-color="#fff"/><stop offset="1" stop-color="#f3e6d9"/></linearGradient><linearGradient id="a68e3554-10a5-4418-9a02-0917e470003d" x1="24.84" y1="696.94" x2="154.4" y2="696.94" gradientTransform="translate(0 -637.05)" gradientUnits="userSpaceOnUse"><stop offset="0" stop-color="#9b5f0e"/><stop offset="0.01" stop-color="#9e6214"/><stop offset="0.05" stop-color="#ad7534"/><stop offset="0.1" stop-color="#b9874e"/><stop offset="0.16" stop-color="#c49663"/><stop offset="0.22" stop-color="#cca374"/><stop offset="0.28" stop-color="#d2ac81"/><stop offset="0.36" stop-color="#d5b188"/><stop offset="0.51" stop-color="#d6b38b"/><stop offset="0.68" stop-color="#d5b189"/><stop offset="0.76" stop-color="#d2ac82"/><stop offset="0.82" stop-color="#cda476"/><stop offset="0.87" stop-color="#c69967"/><stop offset="0.91" stop-color="#bd8b54"/><stop offset="0.95" stop-color="#b17b3d"/><stop offset="0.98" stop-color="#a46921"/><stop offset="1" stop-color="#9b5f0e"/></linearGradient><linearGradient id="bbec7f45-77db-41ee-bd4f-6675eac10545" x1="37.28" y1="750.4" x2="162.79" y2="750.4" gradientTransform="translate(0 -637.05)" gradientUnits="userSpaceOnUse"><stop offset="0" stop-color="#e4cbb0"/><stop offset="0.5" stop-color="#fff"/><stop offset="1" stop-color="#d1ab7f"/></linearGradient><radialGradient id="a42ac834-74ad-40f8-9969-3fdf6a6614af" cx="89.25" cy="727.4" r="91.34" gradientTransform="translate(0 -637.05)" gradientUnits="userSpaceOnUse"><stop offset="0" stop-color="#fff"/><stop offset="0.25" stop-color="#909dc4"/><stop offset="0.58" stop-color="#2e548f"/><stop offset="0.73" stop-color="#003e7e"/></radialGradient></defs><path class="ffbbf467-079d-4482-9e3b-776769facc8f" d="M328.22,40v2.22H198.53v3H328.22v2.22h3V40Zm7.41,0h3v7.41h-3Zm140.78,2.22H346V40h-3v7.41h3V45.16H476.41ZM328.22,90.11v2.23H198.53v3H328.22v2.23h3V90.11Zm7.41,0h3v7.42h-3Zm140.78,2.23H346V90.11h-3v7.42h3V95.3H476.41ZM200.73,11.89c-.94-3.34-1.38-3.77-3.24-3.77V6.52h9.7v1.6c-1.19,0-2.19,0-2.19,1.21a6.88,6.88,0,0,0,.36,1.89L208.64,23l5.25-16.47H216L221.58,23l2.81-11.07a8.8,8.8,0,0,0,.31-1.81c0-1.92-1.73-2-2.67-2V6.52h7.66v1.6c-2.33.21-2.57.67-3.48,4.27l-4.66,18.1h-2.3l-5.71-16.93-5.37,16.93h-2.26l-5.18-18.6Zm41.21-5.37h11.35v1.6c-3,0-3.31.89-3.31,2.77v14.8c0,1.78.27,2.77,3.31,2.77v1.61H241.94V28.46c3,0,3.31-.88,3.31-2.77V10.89c0-1.81-.27-2.77-3.31-2.77Zm25.14,15h1.53c.64,2.71,2.26,7,6.45,7a3.43,3.43,0,0,0,3.72-3.42c0-2.24-1.73-3.13-5.21-4.84-5.64-2.77-6.49-5.55-6.49-7.61a6.69,6.69,0,0,1,6.8-6.62,7.14,7.14,0,0,1,5.44,2.78,12.67,12.67,0,0,0,.54-2.07h1.56v6.59h-1.56c-.34-1.15-1.63-5.38-5.74-5.38a3,3,0,0,0-3.29,3c0,2.21,1.9,3.09,5,4.62,3.68,1.82,7.2,3.59,7.2,7.72a7.32,7.32,0,0,1-7.23,7.19,8.21,8.21,0,0,1-6.53-3.24,8.35,8.35,0,0,0-.67,2.38h-1.53Zm49.42,8.26h-1.56a7.54,7.54,0,0,0-1.14-2.67,9.05,9.05,0,0,1-7.24,3.35c-6,0-11.26-4.95-11.26-12.1,0-6.62,4.67-12.31,11.57-12.31A9,9,0,0,1,313.8,9a10.41,10.41,0,0,0,.71-2.17H316l.27,8.68h-1.59c-.92-4.62-4.09-7.47-7.43-7.47-3.72,0-6.6,3.1-6.6,9.93,0,9.32,4.67,10.49,6.56,10.49,4.29,0,7.07-4.27,7.7-7.5h1.6ZM341.71,6.09c10.1,0,12.6,7.93,12.6,12.21,0,6.25-4.28,12.2-12.46,12.2-8.89,0-12.51-6.69-12.51-12.24,0-6.08,4.06-12.17,12.37-12.17Zm.17,22.34c6.86,0,7.1-7.79,7.1-10.2,0-4.81-1.36-10.07-7.13-10.07-6.12,0-7.17,5.58-7.17,10.07C334.68,20.82,334.88,28.43,341.88,28.43ZM369.36,25c0,2.46.07,3.51,3.35,3.51v1.61h-8.32V28.46c3.18,0,3.15-1.13,3.15-3.51v-12c0-3.14-.07-4.45-3.11-4.81V6.52H371l12.73,15.83V11.61c0-2.28-.09-3.48-3.2-3.48V6.52h8.34V8.13c-3.27,0-3.31,1-3.31,3.48V30.28H384L369.36,12V25Zm31.77-3.39h1.52c.64,2.71,2.26,7,6.45,7a3.43,3.43,0,0,0,3.72-3.42c0-2.24-1.72-3.13-5.2-4.84-5.65-2.77-6.49-5.55-6.49-7.61a6.69,6.69,0,0,1,6.79-6.62,7.13,7.13,0,0,1,5.44,2.78,11.7,11.7,0,0,0,.54-2.07h1.56v6.59H413.9c-.33-1.15-1.62-5.38-5.74-5.38a3,3,0,0,0-3.28,3c0,2.21,1.89,3.09,5,4.62,3.69,1.82,7.2,3.59,7.2,7.72a7.32,7.32,0,0,1-7.23,7.19,8.22,8.22,0,0,1-6.53-3.24,8.71,8.71,0,0,0-.67,2.38h-1.52V21.56ZM429,6.52h11.35v1.6c-3,0-3.3.89-3.3,2.77v14.8c0,1.78.27,2.77,3.3,2.77v1.61H429V28.46c3,0,3.31-.88,3.31-2.77V10.89c0-1.81-.27-2.77-3.31-2.77ZM457.17,25c0,2.46.07,3.51,3.35,3.51v1.61h-8.31V28.46c3.17,0,3.14-1.13,3.14-3.51v-12c0-3.14-.07-4.45-3.11-4.81V6.52h6.52l12.73,15.83V11.61c0-2.28-.09-3.48-3.2-3.48V6.52h8.34V8.13c-3.27,0-3.31,1-3.31,3.48V30.28H471.8L457.17,12V25ZM205.77,76.09c0,1.63.17,2.77,3.22,2.77v1.6h-11.1v-1.6c2.88,0,3.15-1,3.15-2.77V61.28c0-1.66-.2-2.77-3.15-2.77v-1.6H209v1.6c-3,0-3.22,1-3.22,2.77v5.81h10.38V61.28c0-1.66-.18-2.77-3.15-2.77v-1.6h11v1.6c-2.94,0-3.15,1.11-3.15,2.77V76.09c0,1.56.14,2.77,3.15,2.77v1.6H213v-1.6c2.88,0,3.15-1,3.15-2.77V69H205.77ZM234,56.91h11.35v1.6c-3,0-3.31.89-3.31,2.77V76.09c0,1.77.27,2.77,3.31,2.77v1.6H234v-1.6c3,0,3.31-.89,3.31-2.77V61.28c0-1.81-.27-2.77-3.31-2.77v-1.6Zm21.79,15h1.52c.65,2.7,2.27,7,6.46,7a3.42,3.42,0,0,0,3.71-3.41c0-2.24-1.72-3.13-5.2-4.83-5.65-2.78-6.49-5.56-6.49-7.62a6.69,6.69,0,0,1,6.8-6.62A7.13,7.13,0,0,1,268,59.26a12.51,12.51,0,0,0,.55-2.06h1.55v6.57h-1.55c-.34-1.13-1.63-5.37-5.75-5.37a3,3,0,0,0-3.28,3c0,2.2,1.9,3.09,5,4.62,3.69,1.81,7.2,3.6,7.2,7.72a7.31,7.31,0,0,1-7.23,7.19A8.19,8.19,0,0,1,258,77.65a8,8,0,0,0-.67,2.38h-1.53V72Zm30.75-13.13c-2,0-4.56,0-4.76,4.76h-1.56V56.91h22.1v6.68h-1.55c-.44-4.76-2.87-4.76-4.29-4.76h-2.84V76.09c0,1.73.2,2.77,3.24,2.77v1.6H285.65v-1.6c2.94,0,3.24-.93,3.24-2.77V58.83ZM323,56.48c10.1,0,12.6,7.94,12.6,12.2,0,6.26-4.29,12.21-12.47,12.21-8.89,0-12.5-6.69-12.5-12.24C310.59,62.57,314.64,56.48,323,56.48Zm.17,22.34c6.85,0,7.09-7.79,7.09-10.21,0-4.8-1.35-10.06-7.13-10.06-6.11,0-7.16,5.58-7.16,10.06C315.93,71.21,316.13,78.82,323.13,78.82Zm27.93-2.73c0,1.73.24,2.77,3.28,2.77v1.6H343.13v-1.6c2.9,0,3.21-.93,3.21-2.77V61.21c0-1.77-.24-2.77-3.21-2.77V56.8l5.16-.18c.85,0,2.61-.1,4.5,0a26.43,26.43,0,0,1,5.41.6,6.17,6.17,0,0,1,4.87,6c0,2.31-1.29,4.62-4.91,5.65,1.73,1.07,2.47,2.31,4.69,5.9,2.1,3.39,2.74,3.95,4.41,4.1v1.6h-6A39.5,39.5,0,0,1,358.44,76l-1.53-2.64c-1.89-3.27-2-3.45-5-3.45h-.85v6.15h0Zm0-8.08h1.06c2.09,0,5.88,0,5.88-4.84s-4.16-4.69-6.94-4.62Zm24.64-11.1h11.35v1.6c-3,0-3.31.89-3.31,2.77V76.09c0,1.77.27,2.77,3.31,2.77v1.6H375.7v-1.6c3,0,3.31-.89,3.31-2.77V61.28c0-1.81-.27-2.77-3.31-2.77v-1.6Zm40.69,23.3h-1.56a7.54,7.54,0,0,0-1.14-2.67,9.07,9.07,0,0,1-7.24,3.35c-6,0-11.25-5-11.25-12.1,0-6.61,4.67-12.31,11.55-12.31a9,9,0,0,1,6.94,2.88,9.33,9.33,0,0,0,.7-2.17h1.49l.27,8.69h-1.59c-.91-4.63-4.09-7.48-7.43-7.48-3.72,0-6.6,3.1-6.6,9.93,0,9.32,4.67,10.49,6.56,10.49,4.3,0,7.07-4.27,7.71-7.5h1.59v8.89Zm14.49-4.8a5.87,5.87,0,0,0-.47,1.84c0,1.61,1.79,1.61,2.56,1.61v1.6h-7.7v-1.6c1.76,0,2.67-.79,4.06-4.63l6.45-17.78h1.56l6.82,18.35c1.11,3,1.49,4.06,3.75,4.06v1.6H437.36v-1.6c1.4,0,2.58,0,2.58-1.14a3,3,0,0,0-.21-1.07l-1-2.77h-7.27Zm1.18-3.24h6L435,64Zm44,8.29H456.16v-1.6c3,0,3.24-1,3.24-2.77V61.28c0-1.74-.2-2.77-3.24-2.77v-1.6h11.25v1.6c-2.94,0-3.28.89-3.28,2.77V74.84c0,2.67,0,3.7,3.12,3.7,2.56,0,6.82,0,7.46-5.94h1.52l-.14,7.86ZM199,122.35h1.52c.64,2.7,2.27,7,6.46,7a3.43,3.43,0,0,0,3.72-3.41c0-2.25-1.72-3.13-5.21-4.84-5.64-2.77-6.49-5.55-6.49-7.61a6.68,6.68,0,0,1,6.8-6.62,7.2,7.2,0,0,1,5.44,2.77,13.38,13.38,0,0,0,.54-2h1.55v6.58h-1.55c-.34-1.14-1.62-5.37-5.74-5.37-2,0-3.29,1.2-3.29,3,0,2.2,1.9,3.09,5,4.62,3.68,1.81,7.19,3.59,7.19,7.72a7.31,7.31,0,0,1-7.23,7.18,8.22,8.22,0,0,1-6.52-3.23,8.26,8.26,0,0,0-.68,2.38H199Zm51.5-15.48c10.11,0,12.61,7.93,12.61,12.2,0,6.27-4.29,12.2-12.47,12.2-8.89,0-12.5-6.68-12.5-12.23C238.15,113,242.2,106.87,250.51,106.87Zm.18,22.34c6.85,0,7.09-7.79,7.09-10.21,0-4.8-1.35-10.07-7.13-10.07-6.11,0-7.16,5.59-7.16,10.07C243.49,121.6,243.69,129.21,250.69,129.21Zm56.36,1.39h-1.56a7.18,7.18,0,0,0-1.14-2.67,9,9,0,0,1-7.23,3.34c-6,0-11.26-4.94-11.26-12.09,0-6.62,4.67-12.31,11.56-12.31a9,9,0,0,1,6.93,2.88,9.85,9.85,0,0,0,.71-2.17h1.49l.27,8.68h-1.6c-.91-4.62-4.08-7.46-7.43-7.46-3.72,0-6.59,3.09-6.59,9.91,0,9.33,4.67,10.5,6.55,10.5,4.3,0,7.07-4.27,7.71-7.5h1.59v8.89ZM332,107.3h11.35v1.6c-3,0-3.31.89-3.31,2.77v14.8c0,1.78.27,2.78,3.31,2.78v1.6H332v-1.6c3,0,3.31-.89,3.31-2.78v-14.8c0-1.81-.27-2.77-3.31-2.77ZM387,130.85H367v-1.6c3,0,3.24-1,3.24-2.78v-14.8c0-1.7-.17-2.77-3.24-2.77v-1.6h18.55l.3,6.12h-1.52c-1-4.16-2.47-4.2-5.17-4.2H375v8.32h2.26c2.27,0,2.74-.42,2.88-3h1.59v7.83h-1.52c-.14-2.6-.75-3-2.91-3H375V125c0,3,0,3.91,3.21,3.91H380c1.39,0,4.77,0,5.58-5.84h1.55l-.16,7.76Zm29.46-21.63c-2,0-4.56,0-4.76,4.77h-1.56V107.3h22.1V114h-1.55c-.44-4.77-2.88-4.77-4.29-4.77h-2.84v17.25c0,1.74.2,2.78,3.24,2.78v1.6H415.53v-1.6c2.94,0,3.24-.93,3.24-2.78V109.22Zm40.82,2.13A3.16,3.16,0,0,1,457,111c-1-1.7-1.56-2-3-2.06v-1.6H464.5v1.6c-1.22,0-2.3,0-2.3,1,0,.47.17.89,1.12,2.56l3.48,6.19,3.31-5.51a5.7,5.7,0,0,0,1.08-2.63c0-1.64-1.42-1.64-2.57-1.64v-1.6h8.15v1.6c-1.86.14-2.37.89-4.5,4.34l-4.69,7.65v5.58c0,1.6.13,2.78,3.24,2.78v1.6H459.56v-1.6c2.94,0,3.28-.89,3.28-2.78v-5.26l-5.61-9.86Z"/><path class="ffbbf467-079d-4482-9e3b-776769facc8f" d="M164.33,92.84a19,19,0,0,0-6.11-5,69.82,69.82,0,0,0,1.19-12.82V75c0-.39,0-.76,0-1.14,0-.82,0-1.64-.07-2.46s-.12-1.61-.18-2.42c0-.39-.06-.78-.1-1.17-.1-.89-.21-1.77-.34-2.66l-.12-.86c-.15-.92-.31-1.85-.5-2.76,0-.24-.09-.47-.13-.7-.2-.94-.42-1.89-.66-2.83,0-.18-.09-.36-.13-.54-.26-1-.53-1.94-.83-2.9,0-.12-.08-.25-.11-.37q-.48-1.52-1-3l-.06-.15c-.64-1.77-1.36-3.51-2.14-5.23h2.91V30.05h-13A70.12,70.12,0,0,0,112,8.91a1.55,1.55,0,0,0,0-.37,1.43,1.43,0,0,0-.16-.57,1.79,1.79,0,0,0-1.16-.9q-2.55-.63-5.15-1.1l.22-1a2.79,2.79,0,0,0,.08-.7,3.19,3.19,0,0,0-.51-1.87,3.19,3.19,0,0,0-2.12-1.35A87.67,87.67,0,0,0,89.53,0,89,89,0,0,0,75.88,1.09a3.15,3.15,0,0,0-2.11,1.36,3,3,0,0,0-.52,1.85,2.94,2.94,0,0,0,.08.72l.23.94c-1.74.32-3.46.68-5.17,1.11A1.78,1.78,0,0,0,67.24,8a1.52,1.52,0,0,0-.16.55A1.83,1.83,0,0,0,67,9,70.09,70.09,0,0,0,36.3,30.05H33v0a67.85,67.85,0,0,0-6.84,0c-.39,0-.76,0-1.14,0H23.2v.11c-5.82.49-9.51,2.08-10.94,3A22.49,22.49,0,0,0,1.57,43.79,15.69,15.69,0,0,0,0,51.26,19.72,19.72,0,0,0,4.61,63.77c3.94,4.43,9.64,5.71,15.66,3.56-.18,1.66-.3,3.32-.37,5,0,.88-.07,1.75-.07,2.64v.1a69.41,69.41,0,0,0,12.39,39.63c.34,3.89,1.07,9.43,1.9,15.11,1.19,8.17,8.51,11.92,15.9,12.38,9.5.58,25.25-5,42.44-10.84,16.11-5.49,30.36-9.92,37.28-10.17,10.28-1.08,11.78,4,6.38,6.87,5.49,6.28,15.5,5,18.14,3.41,2.22-1.37,3.43-2.74,5-6.21,1.34-2.91,7.66-18.86,7.94-19.68a4.81,4.81,0,0,0,.29-1.3c.87-4.16-.69-8.25-3.19-11.41Z"/><path class="ba501c9b-f703-4816-9f7a-795da96e6808" d="M89.53,5.32a80.13,80.13,0,0,1,10.58.77c-.78,3.31-3.59,15-4.23,17.73a51.89,51.89,0,0,0-12.7,0c-.65-2.7-3.44-14.42-4.24-17.74A81.85,81.85,0,0,1,89.53,5.32Z"/><path class="a1067ac5-e2a7-43ae-b5af-3cdc320f5036" d="M103.61,9.43c1.42.23,2.83.51,4.24.82-1,2.77-4.25,11.92-5,14.09-.89-.18-1.77-.35-2.66-.49Zm-28.16,0,3.44,14.42c-.89.15-1.78.32-2.66.5-.77-2.18-4-11.32-5-14.09C72.62,9.93,74,9.66,75.45,9.42Z"/><path class="ea20a5f7-36e7-47c5-b105-3ecf99da1a8d" d="M151.3,34.75v6.41c-7,0-8.63,1.71-12.18,15.11l-7.63,29.39a191.91,191.91,0,0,0-19.33,4.72l9.6-36.81c1.15-4.41,1.4-5.85,1.4-7.55,0-4.86-3.8-4.86-8.24-4.86V34.75Zm-146,20.9c-1-3.42-.92-7.17.36-9.65,3-5.82,8.35-11.9,27.14-11.28v0h31.4v6.41c-4.45,0-8.25,0-8.25,4.86,0,1.7.25,3.14,1.41,7.55L69.43,99.92,87.09,34.81v-.06H92v0l15.46,57q-4.48,1.36-9,2.84L89.55,61.71,78.86,101.12c-10,3.28-19.21,6.12-24.94,7a2.36,2.36,0,0,1-.46,0L40,56.27c-3.31-12.48-5-14.81-10.84-15.08H29s0,0,0,0c-6.78-.88-13.51.37-18.57,4.84A18.48,18.48,0,0,0,5.29,55.65Z"/><path class="a9b97b4a-db9f-4e12-805b-c19ff0f7a879" d="M21,61.89c-5.92,3-9.67,1.19-11.08-2.43-2.43-6.18,6-15.32,14-13.94C12.51,53.58,16.19,62.32,21,61.89Z"/><path class="fb31f15a-689a-45fa-9905-5d4ba197f66e" d="M154.4,75.05a65,65,0,0,1-.93,10.88,33.9,33.9,0,0,0-6.54-1.34,58.57,58.57,0,0,0,.79-9.54,57.61,57.61,0,0,0-3.53-19.94c1.48-5.38,2.35-7.66,3.55-8.63a64.33,64.33,0,0,1,6.66,28.57Zm-44-61.33a64.81,64.81,0,0,1,25.82,16.44h-9.79A58.38,58.38,0,0,0,108.19,20Zm-41.79.06,2.24,6.28a57.9,57.9,0,0,0-18.1,10.1H43A64.94,64.94,0,0,1,68.64,13.78ZM33.7,103.9a8.92,8.92,0,0,0-.93,2.17,64.67,64.67,0,0,1-1.32-59.51c1.17,1,2,3.39,3.51,8.79A58.05,58.05,0,0,0,37.18,100,15.08,15.08,0,0,0,33.7,103.9Z"/><path class="fc1babde-a861-47fe-8882-4c856493fefb" d="M144.43,127.39c1.35-1.52,3.69-5.32-2.77-8.29,2.68.09,8.69,2.36,9.1,5.54C151.08,127.06,148.05,128.89,144.43,127.39Z"/><path class="b02c373b-5a17-435b-93d9-8875ba5a81e2" d="M162.73,103.44l-7.58,18.25c-3.19-6.72-13-7.68-18.91-7.31-23.87,1.49-69.65,23.75-86.13,22.47-6.56-.52-10.43-4.7-11.13-9.29a143.68,143.68,0,0,1-1.7-15.15c.09-5.4,3.54-10.61,6-11.27l.46,2c-3.27,4.45-.08,10.82,7.51,10.53,14.75.32,70.95-25.5,94.65-23.75,6,.44,17.77,3.64,16.79,13.55Z"/><path class="af853487-0890-4454-85a5-677fbf03cf7b" d="M84.12,99.48l1.18-.4,8.82-2.93c-1.67-6.15-3.26-12-4.55-16.79C88.05,85,86.1,92.15,84.12,99.48Z"/><path class="fe5a1ef5-b6db-46f1-b266-d924b506cd4e" d="M36.56,75.15a52.63,52.63,0,0,0,5.07,22.61,17.43,17.43,0,0,1,4.14-.9L37.52,65.11A52.87,52.87,0,0,0,36.56,75.15ZM141.71,64.78,136.45,85c1.9-.23,3.72-.4,5.43-.46a52.83,52.83,0,0,0-.17-19.77ZM110.35,45.86V30.25h7.58a53,53,0,0,0-11.4-5.43l-.82,2.29a1.78,1.78,0,0,1-2.1,1.15c-1.09-.25-2.2-.47-3.31-.67a3.12,3.12,0,0,1-3.22,1.73,56.22,56.22,0,0,0-7.53-.57,55.73,55.73,0,0,0-7.52.57,3.14,3.14,0,0,1-3.24-1.73c-1.1.19-2.2.42-3.3.68a1.79,1.79,0,0,1-2.1-1.16l-.8-2.23a53.15,53.15,0,0,0-11.23,5.37h7.43V45.86H64.2a25.48,25.48,0,0,0-3.65.17v.09c0,1.09.12,2,1.25,6.39l7.74,29.64L82.68,33.7l.92-3.45H92l3.51,0s9.06,33.43,14.07,51.88l7.73-29.64c1.14-4.37,1.25-5.3,1.25-6.39V46a25.48,25.48,0,0,0-3.65-.17Z"/><path class="ffbbf467-079d-4482-9e3b-776769facc8f" d="M131.94,99c-.21-3.37-2.39-4.33-5.1-3.65l-5.17,1.3.9,15.36,3.44-.81-.34-5.92h0l3.71,5.31,4.79-.64-5.05-5.81A5,5,0,0,0,131.94,99Zm-6.09,3.61-.33.09-.23-3.86.33-.08c1.15-.26,2.47-.33,2.57,1.36S127,102.37,125.85,102.62Zm-65.11,12.8.18,6.18-5.52,1.13-.17-6.34-3.76.39.46,15.65,3.74-.33-.19-6.39L61,124.63l.19,6.36,3.93-1-.54-15.63Zm80.85-17.48-2.32-4.7-4.27.55,4.29,8.3-.82,7.62,3.62.16.9-7.94,6.18-8.57L145,93ZM85.47,114l-1,0c-.66,0-1.71-.07-1.85-1s.69-1.51,1.37-1.71a3.52,3.52,0,0,1,2.59.27l1-3.44a8.91,8.91,0,0,0-4.61.08,5.62,5.62,0,0,0-4.06,6.44c.46,2.89,2.08,3.08,4.49,3.1.82,0,2.33,0,2.5,1a1.9,1.9,0,0,1-1.54,2,4.56,4.56,0,0,1-3.5-.6l-1.07,3.59a8,8,0,0,0,5.22.26,7,7,0,0,0,3.79-2.58,5.83,5.83,0,0,0,.82-4.45c-.38-2.42-2.07-3-4.14-3.07Zm25-14.78c-3.55,1.15-6.42,5.44-5.87,10,.59,4.91,3.86,7.46,7.83,6.19s6.44-5.67,5.84-10.61C117.66,100.22,114,98.06,110.42,99.22Zm1.5,12.39c-1.92.61-3.72-.79-4-3.41a5,5,0,0,1,3-5.15,3.13,3.13,0,0,1,4,2.88C115.18,108.56,113.84,111,111.92,111.61ZM70,112.88l.89,15.32,3.81-1.13-.89-15.35Zm31.57-10.29L91.22,106l.22,3.47,3.39-1,.78,11.7L99.1,119l-.78-11.71,3.35-1.11Z"/></svg>