<svg id="ab0f7da7-2b93-49c0-8c1e-523fabcbb933" data-name="MITH" xmlns="http://www.w3.org/2000/svg" viewBox="0 0 430.89 144"><path d="M7.7,125.78v17.35h-3V125.78H0v-2.87H12.34v2.87Z"/><path d="M26.76,125.78H18.65v4.86h7.87v2.87H18.65v6.76h8.11v2.87H15.6V122.92H26.76Z"/><path d="M45.71,124v3.61a8.45,8.45,0,0,0-5.48-2.22A7,7,0,0,0,35,127.62a7.57,7.57,0,0,0-2.15,5.45A7.39,7.39,0,0,0,35,138.44a7.09,7.09,0,0,0,5.27,2.18A6.47,6.47,0,0,0,43,140.1a7.34,7.34,0,0,0,1.3-.71,16.24,16.24,0,0,0,1.42-1.08V142a11,11,0,0,1-5.5,1.49,10.14,10.14,0,0,1-7.4-3,10,10,0,0,1-3.05-7.36,10.39,10.39,0,0,1,2.55-6.89,10.18,10.18,0,0,1,8.13-3.71A10.6,10.6,0,0,1,45.71,124Z"/><path d="M53.18,130.83H61.9v-7.91H65v20.22H61.9V133.7H53.18v9.44h-3V122.92h3Z"/><path d="M91.63,132.93a9.91,9.91,0,0,1,3.13-7.34,10.32,10.32,0,0,1,7.49-3.06,10.57,10.57,0,0,1,10.51,10.52,9.94,9.94,0,0,1-3.12,7.4,10.69,10.69,0,0,1-14.59.34A10,10,0,0,1,91.63,132.93Zm3.07,0A7.31,7.31,0,0,0,97,138.48a7.46,7.46,0,0,0,10.54,0,7.84,7.84,0,0,0,0-10.84,7.11,7.11,0,0,0-5.32-2.2,7.2,7.2,0,0,0-5.33,2.2A7.33,7.33,0,0,0,94.7,133Z"/><path d="M119.66,122.91v17.35h6v2.87h-9V122.91Z"/><path d="M126.66,132.93a9.91,9.91,0,0,1,3.13-7.34,10.32,10.32,0,0,1,7.49-3.06,10.57,10.57,0,0,1,10.51,10.52,9.94,9.94,0,0,1-3.12,7.4,10.69,10.69,0,0,1-14.59.34A10,10,0,0,1,126.66,132.93Zm3.08,0a7.31,7.31,0,0,0,2.25,5.51,7.46,7.46,0,0,0,10.54,0,7.84,7.84,0,0,0,0-10.84,7.54,7.54,0,0,0-10.65,0A7.33,7.33,0,0,0,129.74,133Z"/><path d="M162,132.61h8.36v.67a13.7,13.7,0,0,1-.54,4,8.59,8.59,0,0,1-1.77,3,9.16,9.16,0,0,1-7.16,3.17,9.83,9.83,0,0,1-7.27-3.07,10.54,10.54,0,0,1,7.54-17.94,10.35,10.35,0,0,1,4.43,1,12.57,12.57,0,0,1,3.86,3.14l-2.17,2.08a7.38,7.38,0,0,0-6.06-3.32,7.21,7.21,0,0,0-5.38,2.22,7.38,7.38,0,0,0-2.17,5.45,7.59,7.59,0,0,0,7.33,7.6,6.08,6.08,0,0,0,4.05-1.52,5.37,5.37,0,0,0,2-3.66h-5v-2.85Z"/><path d="M177.66,134.4l-6.6-11.49h3.51l4.62,8.08,4.64-8.08h3.51l-6.63,11.49v8.74h-3.05V134.4Z"/><path d="M199.36,129v14.16h-2.14V129Z"/><path d="M202.76,143.14V128l10.32,10.8V129h2.14v15L204.9,133.23v9.91Z"/><path d="M230.8,131v12.15h-2.14V131H225.4v-2H234v2Z"/><path d="M238.09,134.52h6.11V129h2.14v14.16H244.2v-6.61h-6.11v6.61H236V129h2.14Z"/><path d="M257.53,131h-5.68v3.4h5.51v2h-5.51v4.73h5.68v2h-7.81V129h7.81v2Z"/><path d="M272.4,130.83h8.72v-7.91h3.05v20.22h-3.05V133.7H272.4v9.44h-3V122.92h3Z"/><path d="M292.07,122.91v12.17a6.67,6.67,0,0,0,.85,3.81,4.56,4.56,0,0,0,7.17,0,6.58,6.58,0,0,0,.85-3.81V122.91H304v13a7.25,7.25,0,0,1-2,5.26,7.69,7.69,0,0,1-11,0,7.26,7.26,0,0,1-2-5.26v-13Z"/><path d="M345.44,138.23h-8.66l-2.25,4.91h-3.29l10-21.5,9.65,21.5h-3.34Zm-1.25-2.87-3-6.88-3.14,6.88Z"/><path d="M378.05,122.91v20.22H375V122.91Z"/><path d="M388.49,125.78v17.35h-3.05V125.78h-4.65v-2.87h12.34v2.87Z"/><path d="M398.91,122.91v20.22h-3.05V122.91Z"/><path d="M414.92,125.78h-8.11v4.86h7.87v2.87h-7.87v6.76h8.11v2.87H403.76V122.92h11.16Z"/><path d="M430.37,125.91l-2.48,1.47a4.2,4.2,0,0,0-1.32-1.57,3.09,3.09,0,0,0-1.69-.42,3.12,3.12,0,0,0-2.11.72,2.22,2.22,0,0,0-.84,1.78c0,1,.73,1.78,2.2,2.38l2,.83a8.55,8.55,0,0,1,3.6,2.43,5.49,5.49,0,0,1,1.14,3.52,6.21,6.21,0,0,1-1.86,4.62,6.4,6.4,0,0,1-4.65,1.83,6.18,6.18,0,0,1-4.35-1.57,7.24,7.24,0,0,1-2.11-4.39l3.09-.68a5.22,5.22,0,0,0,.73,2.46,3.18,3.18,0,0,0,2.75,1.31,3.22,3.22,0,0,0,2.37-.95,3.29,3.29,0,0,0,.94-2.42,3.4,3.4,0,0,0-.17-1.08,2.69,2.69,0,0,0-.51-.9,3.86,3.86,0,0,0-.9-.77,8.8,8.8,0,0,0-1.31-.69l-2-.81q-4.15-1.75-4.15-5.13a4.87,4.87,0,0,1,1.74-3.81,6.3,6.3,0,0,1,4.34-1.54A6,6,0,0,1,430.37,125.91Z"/><polygon points="368.18 122.91 368.18 138.45 356.84 122.91 353.43 122.91 353.43 143.14 356.48 143.14 356.48 127.6 367.81 143.14 371.23 143.14 371.23 122.91 368.18 122.91"/><polygon points="84.55 122.91 84.55 138.45 73.22 122.91 69.8 122.91 69.8 143.14 72.86 143.14 72.86 127.6 84.19 143.14 87.61 143.14 87.61 122.91 84.55 122.91"/><path d="M36.51,106H27.85l-2.25,4.91H22.31l10-21.49L42,110.94H38.63Zm-1.24-2.86-3-6.88-3.14,6.88Z"/><path d="M51.35,102.33,57.61,111H53.88l-5.78-8.28h-.55V111h-3V90.72h3.58q4,0,5.79,1.51a5.53,5.53,0,0,1,2,4.43,5.79,5.79,0,0,1-1.23,3.7A5.52,5.52,0,0,1,51.35,102.33ZM47.55,100h1q4.33,0,4.34-3.31,0-3.11-4.22-3.1H47.55Z"/><path d="M63.85,102.21l-6.6-11.49h3.51l4.62,8.08L70,90.72h3.51L66.9,102.21V111H63.85Z"/><path d="M78.91,90.72v17.35h6v2.87h-9V90.72Z"/><path d="M100.76,106H92.1l-2.25,4.91H86.56l10-21.49,9.65,21.49h-3.34Zm-1.24-2.86-3-6.88-3.14,6.88Z"/><path d="M131.4,111V90.72h4.24a15.49,15.49,0,0,1,4.82.6,9.08,9.08,0,0,1,3.45,2,10.45,10.45,0,0,1-.13,15,9.47,9.47,0,0,1-3.43,2,15.51,15.51,0,0,1-4.76.56H131.4Zm3-2.87h1.38a11.45,11.45,0,0,0,3.42-.43,7.42,7.42,0,0,0,2.48-12.21,8.46,8.46,0,0,0-5.91-1.85h-1.38v14.49Z"/><path d="M162.21,90.72v20.22h-3.05V90.72Z"/><path d="M201.15,93.72l-2.48,1.47a4.2,4.2,0,0,0-1.32-1.57,3.09,3.09,0,0,0-1.69-.42,3.12,3.12,0,0,0-2.11.72,2.22,2.22,0,0,0-.84,1.78c0,1,.73,1.78,2.2,2.38l2,.83a8.64,8.64,0,0,1,3.6,2.43,5.49,5.49,0,0,1,1.14,3.52,6.21,6.21,0,0,1-1.86,4.62,6.4,6.4,0,0,1-4.65,1.83,6.2,6.2,0,0,1-4.35-1.57,7.19,7.19,0,0,1-2.11-4.4l3.09-.68a5.22,5.22,0,0,0,.73,2.46,3.49,3.49,0,0,0,5.12.36,3.29,3.29,0,0,0,.94-2.42,3.4,3.4,0,0,0-.16-1.08,2.69,2.69,0,0,0-.51-.9,4.12,4.12,0,0,0-.9-.77,8.8,8.8,0,0,0-1.31-.69l-1.95-.81q-4.16-1.75-4.15-5.13a4.87,4.87,0,0,1,1.74-3.81,6.3,6.3,0,0,1,4.34-1.54A6.06,6.06,0,0,1,201.15,93.72Z"/><path d="M211.31,93.59V111h-3.05V93.59h-4.65V90.72H216v2.87Z"/><path d="M221.73,90.72v20.22h-3V90.72Z"/><path d="M232.17,93.59V111h-3V93.59h-4.65V90.72h12.34v2.87Z"/><path d="M242.58,90.72v12.17a6.67,6.67,0,0,0,.85,3.81,4.56,4.56,0,0,0,7.17,0,6.58,6.58,0,0,0,.85-3.81V90.72h3.05v13a7.25,7.25,0,0,1-2,5.26,7.69,7.69,0,0,1-11,0,7.28,7.28,0,0,1-2-5.26v-13Z"/><path d="M264.93,93.59V111h-3.05V93.59h-4.65V90.72h12.34v2.87Z"/><path d="M283.45,93.59h-8.11v4.86h7.87v2.87h-7.87v6.76h8.11V111H272.29V90.72h11.16Z"/><path d="M302.08,98.8h-4.93v3.4h4.76v2h-4.76V111H295V96.79h7.07Z"/><path d="M303.87,103.8a6.93,6.93,0,0,1,2.19-5.13,7.21,7.21,0,0,1,5.25-2.15,7.41,7.41,0,0,1,7.36,7.37,7,7,0,0,1-2.18,5.18,7.47,7.47,0,0,1-10.21.24A7,7,0,0,1,303.87,103.8Zm2.15,0a5.13,5.13,0,0,0,1.58,3.86,5.23,5.23,0,0,0,7.38,0,5.49,5.49,0,0,0,0-7.58,5,5,0,0,0-3.72-1.54,5.24,5.24,0,0,0-5.26,5.29Z"/><path d="M326.15,104.91l4.38,6h-2.61l-4-5.79h-.39v5.79h-2.14V96.79h2.5a6.26,6.26,0,0,1,4,1,3.87,3.87,0,0,1,1.38,3.1,4.06,4.06,0,0,1-.86,2.59A3.81,3.81,0,0,1,326.15,104.91Zm-2.66-1.62h.68c2,0,3-.77,3-2.32s-1-2.17-2.95-2.17h-.76v4.49Z"/><polygon points="123.5 90.72 123.5 106.26 112.17 90.72 108.75 90.72 108.75 110.95 111.8 110.95 111.8 95.41 123.14 110.95 126.55 110.95 126.55 90.72 123.5 90.72"/><polygon points="181.81 90.72 181.81 106.26 170.48 90.72 167.06 90.72 167.06 110.95 170.12 110.95 170.12 95.41 181.45 110.95 184.87 110.95 184.87 90.72 181.81 90.72"/><polygon points="16.89 90.72 10.17 99.33 3.46 90.72 0 90.72 0 110.95 3.05 110.95 3.05 95.16 10.17 104.3 17.29 95.16 17.29 110.95 20.35 110.95 20.35 90.72 16.89 90.72"/><polygon points="325.38 122.91 318.67 131.52 311.96 122.91 308.49 122.91 308.49 143.14 311.55 143.14 311.55 127.35 318.67 136.49 325.79 127.35 325.79 143.14 328.84 143.14 328.84 122.91 325.38 122.91"/><path d="M96.6,0V72H85.74V0Z"/><path d="M137.33,10.21V72H126.46V10.21H109.91V0h43.93V10.21Z"/><path d="M178,28.17h31.06V0h10.86V72H209.06V38.38H178V72H167.13V0H178Z"/><polygon points="60.11 0 36.22 30.65 12.32 0 0 0 0 72 10.87 72 10.87 15.81 36.22 48.32 61.56 15.81 61.56 72 72.43 72 72.43 0 60.11 0"/></svg>