<svg id="e07eb43d-6381-460c-bafc-1270aa1127b9" data-name="NEHLogo" xmlns="http://www.w3.org/2000/svg" viewBox="0 0 250.01 60.66"><defs><style>.fd8d2153-08c1-43ac-95aa-0d92bdd62d14{fill:#d4d88d;}.b52a8a27-e88f-4816-90fb-a67a4e1bccc8{fill:#b2bb1e;}</style></defs><path d="M89.26,42.52c-.62,0-2.78.09-3.27.09V42a1.93,1.93,0,0,0,1.5-1.77V33.65H77v6.62A2,2,0,0,0,78.57,42v.57c-.49,0-2.69-.09-3.31-.09s-2.6.09-3.09.09V42a1.93,1.93,0,0,0,1.5-1.77V26.44a2,2,0,0,0-1.5-1.77V24.1c.49,0,2.56.09,3.09.09s2.82-.09,3.31-.09v.57A2,2,0,0,0,77,26.44v5.44H87.5V26.44A1.9,1.9,0,0,0,86,24.67V24.1c.49,0,2.65.09,3.27.09s2.65-.09,3.13-.09v.57a2,2,0,0,0-1.55,1.77V40.27A2,2,0,0,0,92.4,42v.57c-.49,0-2.61-.09-3.14-.09" transform="translate(-0.67 -0.6)"/><path d="M111.94,42.12c-.71.48-1.63,1.23-1.63,1.23a5.93,5.93,0,0,1-2-3.4,9.1,9.1,0,0,1-6.44,2.95c-3.79,0-5.42-2.42-5.42-5.38V28.8c0-1.41-.79-2.07-2.25-2.39v-.49l5.12-2h.48V35.05c0,3.13.66,5.61,3.8,5.61a6.3,6.3,0,0,0,4.59-2.43V28.8c0-1.41-.79-2.07-2.25-2.39v-.49l5.12-2h.49V38.71c0,1.41.44,1.76,1,1.76a2.51,2.51,0,0,0,1-.18l.31.7s-.95.51-1.88,1.13" transform="translate(-0.67 -0.6)"/><path d="M141.31,42.52c-.57,0-3,.09-3.57.09v-.53c.93-.4,1.94-.88,1.94-1.72v-8.6c0-3.13-.18-5.61-3.31-5.61a6.85,6.85,0,0,0-4.5,2,10.11,10.11,0,0,1,0,1.1V40.36c0,.88.93,1.28,2,1.72v.53c-.57,0-3.13-.09-3.71-.09s-3,.09-3.57.09v-.53c.93-.4,1.94-.88,1.94-1.72v-8.6c0-3.13-.18-5.61-3.31-5.61a5.91,5.91,0,0,0-4.41,2.43V40.36c0,.88.92,1.28,2,1.72v.53c-.58,0-3.13-.09-3.71-.09s-3,.09-3.57.09v-.53c.93-.4,1.94-.88,1.94-1.72V28.8c0-1.41-.79-2.07-2.25-2.38v-.49l4.94-2h.48l.18,2.87c1.59-1.5,3.4-2.87,6.13-2.87s4,1.19,4.55,2.87a9.76,9.76,0,0,1,6.57-2.87c3.79,0,4.94,2.43,4.94,5.38V40.36c0,.88.92,1.28,2,1.72v.53c-.55,0-3.11-.09-3.68-.09" transform="translate(-0.67 -0.6)"/><path d="M161.56,42.12c-.71.48-1.63,1.23-1.63,1.23a7.12,7.12,0,0,1-1.81-2.78,7.71,7.71,0,0,1-5.69,2.34c-3.36,0-5.74-1.59-5.74-5.16,0-3.35,3.18-5.07,6.4-5.65.88-.13,3.71-.18,4.67-.18V29.05c0-2-1.23-3.62-3.92-3.62a5.11,5.11,0,0,0-4.68,2.91h-.57V24.76a21.67,21.67,0,0,1,6.22-.88c5.25,0,6.31,2.69,6.31,5.65v9.18c0,1.41.44,1.76,1,1.76a2.54,2.54,0,0,0,1-.18l.31.7s-.93.51-1.86,1.13m-3.79-8.78h-2.6c-2.61,0-4.9,1.41-4.9,4.24a3,3,0,0,0,3,3.22,5.36,5.36,0,0,0,4.46-2.47Z" transform="translate(-0.67 -0.6)"/><path d="M180.5,42.52c-.57,0-3.05.09-3.57.09v-.53c.93-.4,1.94-.88,1.94-1.72v-8.6c0-3.13-1.24-5.61-4.37-5.61a6.28,6.28,0,0,0-4.59,2.43V40.36c0,.88.93,1.28,2,1.72v.53c-.57,0-3.13-.09-3.71-.09s-3,.09-3.57.09v-.53c.93-.4,1.94-.88,1.94-1.72V28.8c0-1.41-.79-2.07-2.25-2.38v-.49l4.94-2h.48l.18,2.87a9,9,0,0,1,6.31-2.87c3.79,0,6,2.43,6,5.38V40.36c0,.88.93,1.28,2,1.72v.53c-.58,0-3.14-.09-3.71-.09" transform="translate(-0.67 -0.6)"/><path d="M189.85,42.52c-.57,0-3,.09-3.57.09v-.53c.93-.4,1.94-.88,1.94-1.72V28.8c0-1.41-.79-2.07-2.25-2.38v-.49l5.12-2h.48V40.36c0,.88.92,1.28,2,1.72v.53c-.57,0-3.13-.09-3.7-.09" transform="translate(-0.67 -0.6)"/><path d="M202.16,42.91c-2.12,0-4.19-1-4.19-5.16V25.88h-2.74V24.82l2.38-.71a8.29,8.29,0,0,0,2.25-5h1.46V24.2h5.43v1.68h-5.43V37.17c0,2.34.75,3.13,2.12,3.13A3.58,3.58,0,0,0,206.17,39l.71.66c-.48.94-2.21,3.23-4.72,3.23" transform="translate(-0.67 -0.6)"/><path d="M212.75,42.52c-.57,0-3.05.09-3.57.09v-.53c.93-.4,1.94-.88,1.94-1.72V28.8c0-1.41-.79-2.07-2.25-2.38v-.49l5.12-2h.49V40.36c0,.88.93,1.28,2,1.72v.53c-.59,0-3.15-.09-3.72-.09" transform="translate(-0.67 -0.6)"/><path d="M234.68,31.93H222.15c-.57,5.07,2.25,8.87,6.44,8.87,2.38,0,4-.4,5.12-1.54l.75.84A8.11,8.11,0,0,1,228,42.92c-6.22,0-9.53-3.79-9.53-9.53s4-9.48,8.82-9.48,7.72,3.31,7.5,7.1a2.88,2.88,0,0,1-.13.92m-7.32-6.45c-2.91,0-4.63,2.69-5,4.94h8.91c.31-2.2-1.1-4.94-3.88-4.94" transform="translate(-0.67 -0.6)"/><path d="M243.64,42.91a21.94,21.94,0,0,1-5.56-.88V38.15h.57c1.23,2.21,2.64,3.18,4.94,3.18,2.52,0,3.88-.93,3.88-2.56a2.28,2.28,0,0,0-1.46-2.2l-5.47-2.69a4.66,4.66,0,0,1-2.87-4.41c0-3.62,3.27-5.56,6.75-5.56a21.94,21.94,0,0,1,5.56.88v3.75h-.57a5.54,5.54,0,0,0-4.9-3.05c-2.16,0-3.53,1.15-3.53,2.78,0,1.41.53,2.12,2,2.82l5.56,2.69a4,4,0,0,1,2.16,3.71c0,3.48-2.72,5.42-7,5.42" transform="translate(-0.67 -0.6)"/><path d="M73.33,13.31h1.42l2,3.3h0v-3.3h1v4.74H76.45l-2.07-3.38h0v3.38h-1Z" transform="translate(-0.67 -0.6)"/><path d="M80.55,13.31h.86l2.06,4.74H82.3l-.41-1H80.05l-.4,1H78.5Zm.4,1.38-.58,1.47h1.16Z" transform="translate(-0.67 -0.6)"/><path d="M84.46,14.24H83.11v-.92h3.75v.92H85.51v3.82h-1V14.24Z" transform="translate(-0.67 -0.6)"/><path d="M87.58,13.31h1v4.74h-1Z" transform="translate(-0.67 -0.6)"/><path d="M92.08,13.19a2.4,2.4,0,0,1,2.56,2.49,2.56,2.56,0,0,1-5.12,0A2.4,2.4,0,0,1,92.08,13.19Zm0,4a1.43,1.43,0,0,0,1.47-1.53,1.47,1.47,0,1,0-2.94,0A1.43,1.43,0,0,0,92.08,17.21Z" transform="translate(-0.67 -0.6)"/><path d="M95.55,13.31H97l2,3.3h0v-3.3h1v4.74H98.67L96.6,14.67h0v3.38h-1V13.31Z" transform="translate(-0.67 -0.6)"/><path d="M102.77,13.31h.86l2.06,4.74h-1.18l-.41-1h-1.84l-.4,1h-1.15Zm.41,1.38-.58,1.47h1.16Z" transform="translate(-0.67 -0.6)"/><path d="M106.42,13.31h1v3.78h1.94v1h-3Z" transform="translate(-0.67 -0.6)"/><path d="M111.86,13.31h3.22v1H112.9v.88H115v1H112.9v1h2.3v1h-3.34Z" transform="translate(-0.67 -0.6)"/><path d="M116.24,13.31h1.42l2,3.3h0v-3.3h1v4.74h-1.37l-2.07-3.38h0v3.38h-1Z" transform="translate(-0.67 -0.6)"/><path d="M121.9,13.31h1.57c1.53,0,2.81.65,2.81,2.38a2.42,2.42,0,0,1-2.67,2.36H121.9Zm1,3.78h.54c1,0,1.7-.37,1.7-1.45s-.74-1.37-1.63-1.37h-.62v2.82Z" transform="translate(-0.67 -0.6)"/><path d="M129.49,13.19a2.4,2.4,0,0,1,2.56,2.49,2.56,2.56,0,0,1-5.12,0A2.4,2.4,0,0,1,129.49,13.19Zm0,4A1.43,1.43,0,0,0,131,15.68a1.47,1.47,0,1,0-2.94,0A1.43,1.43,0,0,0,129.49,17.21Z" transform="translate(-0.67 -0.6)"/><path d="M132.47,13.31h1.14l.76,3h0l1-3h1l1,3.12h0l.8-3.12h1.06l-1.39,4.74h-.93l-1-3.28h0l-1,3.28h-.9Z" transform="translate(-0.67 -0.6)"/><path d="M139.86,13.31h1.58l1.09,3.09h0l1.1-3.09h1.57v4.74h-1V14.41h0l-1.25,3.64h-.8l-1.2-3.64h0v3.64h-1V13.31Z" transform="translate(-0.67 -0.6)"/><path d="M146.42,13.31h3.22v1h-2.18v.88h2.06v1h-2.06v1h2.3v1h-3.34V13.31Z" transform="translate(-0.67 -0.6)"/><path d="M150.81,13.31h1.42l2,3.3h0v-3.3h1.05v4.74h-1.37l-2.07-3.38h0v3.38h-1V13.31Z" transform="translate(-0.67 -0.6)"/><path d="M157.39,14.24H156v-.92h3.75v.92h-1.35v3.82h-1V14.24Z" transform="translate(-0.67 -0.6)"/><path d="M162.21,13.31h3.18v1h-2.14v1h2v1h-2V18h-1Z" transform="translate(-0.67 -0.6)"/><path d="M168.65,13.19a2.4,2.4,0,0,1,2.56,2.49,2.56,2.56,0,0,1-5.12,0A2.4,2.4,0,0,1,168.65,13.19Zm0,4a1.43,1.43,0,0,0,1.47-1.53,1.47,1.47,0,1,0-2.94,0A1.42,1.42,0,0,0,168.65,17.21Z" transform="translate(-0.67 -0.6)"/><path d="M172.12,13.31H174c1,0,1.79.33,1.79,1.44a1.23,1.23,0,0,1-1,1.3l1.21,2h-1.25l-1-1.9h-.52v1.9h-1V13.31Zm1,2h.62c.38,0,.88,0,.88-.53s-.43-.55-.81-.55h-.68v1.08Z" transform="translate(-0.67 -0.6)"/><path d="M179.23,14.24h-1.35v-.92h3.75v.92h-1.35v3.82h-1V14.24Z" transform="translate(-0.67 -0.6)"/><path d="M182.36,13.31h1v1.77h2V13.31h1v4.74h-1V16h-2v2.05h-1Z" transform="translate(-0.67 -0.6)"/><path d="M187.68,13.31h3.22v1h-2.18v.88h2.06v1h-2.06v1H191v1h-3.34V13.31Z" transform="translate(-0.67 -0.6)"/><path class="fd8d2153-08c1-43ac-95aa-0d92bdd62d14" d="M34.24,30.93A3.25,3.25,0,1,1,31,27.69a3.24,3.24,0,0,1,3.25,3.24" transform="translate(-0.67 -0.6)"/><path class="fd8d2153-08c1-43ac-95aa-0d92bdd62d14" d="M29,2.51C29,.89,29.58.6,31,.6s2.06.3,2,1.92L31.62,22.3c-.06.45-.25,1.42-.64,1.42s-.59-1-.64-1.42Z" transform="translate(-0.67 -0.6)"/><path class="b52a8a27-e88f-4816-90fb-a67a4e1bccc8" d="M49.71,9.45c1.08-1.21,1.74-1,2.75,0s1.25,1.67,0,2.74l-15,13c-.35.27-1.18.83-1.46.55s.28-1.11.55-1.46Z" transform="translate(-0.67 -0.6)"/><path class="b52a8a27-e88f-4816-90fb-a67a4e1bccc8" d="M59.42,29c1.62-.09,1.91.54,1.91,2s-.3,2.06-1.92,2L39.63,31.55c-.44-.06-1.42-.25-1.42-.64s1-.59,1.42-.64Z" transform="translate(-0.67 -0.6)"/><path class="b52a8a27-e88f-4816-90fb-a67a4e1bccc8" d="M52.49,49.64c1.21,1.08,1,1.74,0,2.74s-1.67,1.25-2.74,0l-13-14.94c-.27-.35-.83-1.18-.55-1.46s1.11.28,1.46.55Z" transform="translate(-0.67 -0.6)"/><path class="b52a8a27-e88f-4816-90fb-a67a4e1bccc8" d="M33,59.35c.09,1.62-.54,1.91-2,1.91s-2.06-.3-2-1.92l1.35-19.78c.05-.44.25-1.42.64-1.42s.59,1,.64,1.42Z" transform="translate(-0.67 -0.6)"/><path class="b52a8a27-e88f-4816-90fb-a67a4e1bccc8" d="M12.3,52.42c-1.08,1.21-1.74,1-2.74,0s-1.24-1.67,0-2.74l14.93-13c.35-.27,1.18-.83,1.46-.55s-.28,1.11-.55,1.46Z" transform="translate(-0.67 -0.6)"/><path class="b52a8a27-e88f-4816-90fb-a67a4e1bccc8" d="M2.58,32.89C1,33,.67,32.35.67,30.92s.3-2.06,1.92-2l19.78,1.35c.44.05,1.42.25,1.42.64s-1,.59-1.42.64Z" transform="translate(-0.67 -0.6)"/><path class="b52a8a27-e88f-4816-90fb-a67a4e1bccc8" d="M9.52,12.22c-1.21-1.08-1-1.74,0-2.74s1.67-1.25,2.74,0l13,14.94c.28.35.83,1.18.55,1.46s-1.11-.28-1.46-.55Z" transform="translate(-0.67 -0.6)"/><path class="b52a8a27-e88f-4816-90fb-a67a4e1bccc8" d="M34.57,21.83c-.19.61-.25,1.26-.44,1.87s-.29.74-.85.56c-.89-.29.12-3.47.27-3.93,1.3-4.06,7.05-8,8.19-11.61a3.85,3.85,0,0,0-2.46-4.9c-1.82-.58-2.59.51-3.24.3a.38.38,0,0,1-.21-.48c.28-.89,2.23-2.17,5.79-1a5.57,5.57,0,0,1,3.65,6.94c-1.55,4.91-8.66,5.88-10.7,12.29" transform="translate(-0.67 -0.6)"/><path class="b52a8a27-e88f-4816-90fb-a67a4e1bccc8" d="M40,27c-.57.3-1.07.72-1.63,1s-.73.32-1-.2c-.43-.83,2.54-2.36,3-2.59,3.79-2,10.68-.71,14-2.42A3.85,3.85,0,0,0,56,17.61c-.88-1.7-2.19-1.47-2.51-2.08a.39.39,0,0,1,.2-.49c.83-.43,3.11,0,4.83,3.37a5.57,5.57,0,0,1-2.33,7.49C51.65,28.27,45.94,23.93,40,27" transform="translate(-0.67 -0.6)"/><path class="b52a8a27-e88f-4816-90fb-a67a4e1bccc8" d="M40.1,34.5c-.61-.19-1.26-.25-1.87-.44s-.74-.29-.56-.84c.28-.89,3.46.12,3.93.27,4.07,1.3,8,7,11.61,8.19a3.85,3.85,0,0,0,4.9-2.46c.58-1.82-.51-2.59-.31-3.24a.38.38,0,0,1,.48-.21c.89.28,2.17,2.23,1,5.8a5.57,5.57,0,0,1-6.94,3.65c-4.89-1.57-5.86-8.68-12.27-10.72" transform="translate(-0.67 -0.6)"/><path class="b52a8a27-e88f-4816-90fb-a67a4e1bccc8" d="M34.92,39.89c-.3-.57-.72-1.07-1-1.63s-.32-.72.2-1c.83-.43,2.36,2.54,2.59,3,2,3.79.71,10.68,2.42,14A3.84,3.84,0,0,0,44.32,56c1.7-.87,1.47-2.19,2.07-2.51a.39.39,0,0,1,.49.2c.43.83-.05,3.11-3.37,4.83A5.57,5.57,0,0,1,36,56.16c-2.36-4.58,2-10.3-1.1-16.27" transform="translate(-0.67 -0.6)"/><path class="b52a8a27-e88f-4816-90fb-a67a4e1bccc8" d="M27.44,40c.19-.61.25-1.27.44-1.87s.29-.74.84-.56c.89.29-.12,3.47-.27,3.93-1.3,4.07-7,8.05-8.19,11.61a3.85,3.85,0,0,0,2.46,4.9c1.82.58,2.59-.51,3.24-.31a.39.39,0,0,1,.21.49c-.28.89-2.24,2.17-5.8,1a5.57,5.57,0,0,1-3.65-6.94c1.56-4.91,8.67-5.88,10.72-12.28" transform="translate(-0.67 -0.6)"/><path class="b52a8a27-e88f-4816-90fb-a67a4e1bccc8" d="M22,34.85c.57-.3,1.07-.72,1.63-1s.73-.32,1,.2c.43.83-2.54,2.36-3,2.59-3.8,2-10.68.71-14,2.42A3.85,3.85,0,0,0,6,44.25c.88,1.7,2.19,1.47,2.51,2.07a.39.39,0,0,1-.2.49c-.82.43-3.11-.05-4.83-3.37A5.57,5.57,0,0,1,5.77,36c4.58-2.36,10.3,2,16.27-1.1" transform="translate(-0.67 -0.6)"/><path class="b52a8a27-e88f-4816-90fb-a67a4e1bccc8" d="M21.9,27.36c.61.19,1.26.25,1.87.44s.74.29.56.84c-.29.89-3.47-.12-3.93-.27-4.07-1.3-8-7-11.61-8.19a3.85,3.85,0,0,0-4.9,2.46c-.58,1.82.51,2.59.31,3.24a.36.36,0,0,1-.48.2c-.89-.28-2.17-2.24-1-5.79a5.57,5.57,0,0,1,6.94-3.65c4.89,1.57,5.86,8.68,12.27,10.72" transform="translate(-0.67 -0.6)"/><path class="b52a8a27-e88f-4816-90fb-a67a4e1bccc8" d="M27.08,22c.3.57.72,1.07,1,1.63s.32.73-.2,1c-.83.43-2.36-2.54-2.59-3-2-3.79-.71-10.67-2.42-14a3.85,3.85,0,0,0-5.2-1.73c-1.7.87-1.47,2.19-2.07,2.51a.39.39,0,0,1-.49-.2c-.43-.83.05-3.11,3.37-4.83A5.58,5.58,0,0,1,26,5.68C28.34,10.28,24,16,27.08,22" transform="translate(-0.67 -0.6)"/></svg>