<?xml version="1.0" encoding="utf-8"?>
<!-- Generator: Adobe Illustrator 24.0.0, SVG Export Plug-In . SVG Version: 6.00 Build 0)  -->
<svg version="1.1" id="Layer_1" xmlns="http://www.w3.org/2000/svg" xmlns:xlink="http://www.w3.org/1999/xlink" x="0px" y="0px"
	 viewBox="0 0 430.89 144" style="enable-background:new 0 0 430.89 144;" xml:space="preserve">
<g>
	<path d="M7.7,125.78v17.35H4.65v-17.35H0v-2.87h12.34v2.87H7.7z"/>
	<path d="M26.76,125.78h-8.11v4.86h7.87v2.87h-7.87v6.76h8.11v2.87H15.6v-20.22h11.16V125.78z"/>
	<path d="M45.71,123.99v3.61c-1.76-1.48-3.59-2.22-5.48-2.22c-2.08,0-3.83,0.75-5.25,2.24c-1.43,1.49-2.15,3.3-2.15,5.45
		c0,2.12,0.72,3.91,2.15,5.37c1.43,1.46,3.19,2.18,5.27,2.18c1.07,0,1.99-0.17,2.74-0.52c0.42-0.17,0.85-0.41,1.3-0.71
		c0.45-0.3,0.92-0.66,1.42-1.08v3.69c-1.75,0.99-3.58,1.49-5.5,1.49c-2.89,0-5.36-1.01-7.4-3.03c-2.04-2.03-3.05-4.49-3.05-7.36
		c0-2.58,0.85-4.87,2.55-6.89c2.1-2.47,4.81-3.71,8.13-3.71C42.26,122.52,44.02,123.01,45.71,123.99z"/>
	<path d="M53.18,130.83h8.72v-7.91h3.05v20.22H61.9v-9.44h-8.72v9.44h-3.05v-20.22h3.05V130.83z"/>
	<path d="M91.63,132.93c0-2.85,1.04-5.29,3.13-7.34c2.08-2.04,4.58-3.06,7.49-3.06c2.88,0,5.35,1.03,7.41,3.09
		c2.07,2.06,3.1,4.54,3.1,7.43c0,2.91-1.04,5.37-3.12,7.4c-2.09,2.04-4.61,3.05-7.56,3.05c-2.61,0-4.96-0.9-7.03-2.71
		C92.77,138.79,91.63,136.17,91.63,132.93z M94.7,132.97c0,2.23,0.75,4.07,2.25,5.51c1.49,1.44,3.22,2.16,5.17,2.16
		c2.12,0,3.91-0.73,5.37-2.2c1.46-1.48,2.19-3.29,2.19-5.42c0-2.15-0.72-3.96-2.16-5.42c-1.43-1.47-3.2-2.2-5.32-2.2
		c-2.1,0-3.88,0.73-5.33,2.2C95.43,129.05,94.7,130.84,94.7,132.97z"/>
	<path d="M119.66,122.91v17.35h5.95v2.87h-9v-20.22H119.66z"/>
	<path d="M126.66,132.93c0-2.85,1.04-5.29,3.13-7.34c2.08-2.04,4.58-3.06,7.49-3.06c2.88,0,5.35,1.03,7.41,3.09
		c2.07,2.06,3.1,4.54,3.1,7.43c0,2.91-1.04,5.37-3.12,7.4c-2.09,2.04-4.61,3.05-7.56,3.05c-2.61,0-4.96-0.9-7.03-2.71
		C127.81,138.79,126.66,136.17,126.66,132.93z M129.74,132.97c0,2.23,0.75,4.07,2.25,5.51c1.49,1.44,3.22,2.16,5.17,2.16
		c2.12,0,3.91-0.73,5.37-2.2c1.46-1.48,2.19-3.29,2.19-5.42c0-2.15-0.72-3.96-2.16-5.42c-1.43-1.47-3.21-2.2-5.32-2.2
		c-2.11,0-3.88,0.73-5.33,2.2C130.47,129.05,129.74,130.84,129.74,132.97z"/>
	<path d="M162.04,132.61h8.36v0.67c0,1.52-0.18,2.86-0.54,4.03c-0.35,1.08-0.94,2.1-1.77,3.04c-1.88,2.11-4.26,3.17-7.16,3.17
		c-2.83,0-5.25-1.02-7.27-3.07c-2.02-2.05-3.03-4.51-3.03-7.39c0-2.93,1.03-5.42,3.08-7.47c2.05-2.05,4.55-3.08,7.49-3.08
		c1.58,0,3.06,0.32,4.43,0.96c1.31,0.64,2.6,1.69,3.86,3.14l-2.17,2.08c-1.66-2.21-3.68-3.32-6.06-3.32c-2.14,0-3.94,0.74-5.38,2.22
		c-1.45,1.45-2.17,3.26-2.17,5.45c0,2.25,0.81,4.11,2.42,5.57c1.51,1.35,3.15,2.03,4.91,2.03c1.5,0,2.85-0.5,4.05-1.52
		c1.2-1.02,1.86-2.24,2-3.66h-5.04V132.61z"/>
	<path d="M177.66,134.4l-6.6-11.49h3.51l4.62,8.08l4.64-8.08h3.51l-6.63,11.49v8.74h-3.05V134.4z"/>
	<path d="M199.36,128.98v14.16h-2.14v-14.16H199.36z"/>
	<path d="M202.76,143.14v-15.12l10.32,10.8v-9.84h2.14V144l-10.32-10.77v9.91H202.76z"/>
	<path d="M230.8,130.99v12.15h-2.14v-12.15h-3.26v-2.01h8.64v2.01H230.8z"/>
	<path d="M238.09,134.52h6.11v-5.54h2.14v14.16h-2.14v-6.61h-6.11v6.61h-2.14v-14.16h2.14V134.52z"/>
	<path d="M257.53,130.99h-5.68v3.4h5.51v2.01h-5.51v4.73h5.68v2.01h-7.81v-14.16h7.81V130.99z"/>
	<path d="M272.4,130.83h8.72v-7.91h3.05v20.22h-3.05v-9.44h-8.72v9.44h-3.05v-20.22h3.05V130.83z"/>
	<path d="M292.07,122.91v12.17c0,1.74,0.28,3.01,0.85,3.81c0.85,1.16,2.04,1.74,3.58,1.74c1.55,0,2.74-0.58,3.59-1.74
		c0.57-0.78,0.85-2.05,0.85-3.81v-12.17h3.05v13.02c0,2.13-0.66,3.89-1.99,5.26c-1.49,1.54-3.33,2.31-5.5,2.31
		c-2.17,0-4-0.77-5.49-2.31c-1.33-1.38-1.99-3.13-1.99-5.26v-13.02H292.07z"/>
	<path d="M345.44,138.23h-8.66l-2.25,4.91h-3.29l10.01-21.5l9.65,21.5h-3.34L345.44,138.23z M344.19,135.36l-3-6.88l-3.14,6.88
		H344.19z"/>
	<path d="M378.05,122.91v20.22H375v-20.22H378.05z"/>
	<path d="M388.49,125.78v17.35h-3.05v-17.35h-4.65v-2.87h12.34v2.87H388.49z"/>
	<path d="M398.91,122.91v20.22h-3.05v-20.22H398.91z"/>
	<path d="M414.92,125.78h-8.11v4.86h7.87v2.87h-7.87v6.76h8.11v2.87h-11.16v-20.22h11.16V125.78z"/>
	<path d="M430.37,125.91l-2.48,1.47c-0.46-0.8-0.9-1.33-1.32-1.57c-0.44-0.28-1-0.42-1.69-0.42c-0.85,0-1.55,0.24-2.11,0.72
		c-0.56,0.47-0.84,1.06-0.84,1.78c0,0.99,0.73,1.78,2.2,2.38l2.02,0.83c1.64,0.66,2.84,1.47,3.6,2.43c0.76,0.96,1.14,2.13,1.14,3.52
		c0,1.86-0.62,3.4-1.86,4.62c-1.25,1.22-2.8,1.83-4.65,1.83c-1.75,0-3.21-0.52-4.35-1.57c-1.12-1.04-1.83-2.51-2.11-4.39l3.09-0.68
		c0.14,1.19,0.38,2.01,0.73,2.46c0.63,0.87,1.54,1.31,2.75,1.31c0.95,0,1.74-0.32,2.37-0.95c0.63-0.64,0.94-1.44,0.94-2.42
		c0-0.39-0.06-0.75-0.17-1.08c-0.11-0.33-0.28-0.63-0.51-0.9c-0.23-0.28-0.53-0.53-0.9-0.77c-0.37-0.24-0.8-0.47-1.31-0.69
		l-1.95-0.81c-2.77-1.17-4.15-2.88-4.15-5.13c0-1.52,0.58-2.79,1.74-3.81c1.16-1.03,2.61-1.54,4.34-1.54
		C427.24,122.52,429.06,123.65,430.37,125.91z"/>
	<polygon points="368.18,122.91 368.18,138.45 356.84,122.91 353.43,122.91 353.43,143.14 356.48,143.14 356.48,127.6 
		367.81,143.14 371.23,143.14 371.23,122.91 	"/>
	<polygon points="84.55,122.91 84.55,138.45 73.22,122.91 69.8,122.91 69.8,143.14 72.86,143.14 72.86,127.6 84.19,143.14 
		87.61,143.14 87.61,122.91 	"/>
	<path d="M36.51,106.03h-8.66l-2.25,4.91h-3.29l10.01-21.49l9.65,21.49h-3.34L36.51,106.03z M35.27,103.17l-3-6.88l-3.14,6.88H35.27
		z"/>
	<path d="M51.35,102.33l6.26,8.62h-3.73l-5.78-8.28h-0.55v8.28H44.5V90.72h3.58c2.67,0,4.6,0.5,5.79,1.51
		c1.31,1.12,1.96,2.59,1.96,4.43c0,1.43-0.41,2.66-1.23,3.7C53.78,101.38,52.7,102.04,51.35,102.33z M47.55,100.01h0.97
		c2.89,0,4.34-1.1,4.34-3.31c0-2.07-1.41-3.1-4.22-3.1h-1.09V100.01z"/>
	<path d="M63.85,102.21l-6.6-11.49h3.51l4.62,8.08l4.64-8.08h3.51l-6.63,11.49v8.74h-3.05V102.21z"/>
	<path d="M78.91,90.72v17.35h5.95v2.87h-9V90.72H78.91z"/>
	<path d="M100.76,106.03H92.1l-2.25,4.91h-3.29l10.01-21.49l9.65,21.49h-3.34L100.76,106.03z M99.52,103.17l-3-6.88l-3.14,6.88
		H99.52z"/>
	<path d="M131.4,110.95V90.72h4.24c2.04,0,3.64,0.2,4.82,0.6c1.27,0.39,2.41,1.06,3.45,2c2.09,1.9,3.13,4.41,3.13,7.5
		c0,3.11-1.09,5.62-3.26,7.54c-1.09,0.96-2.24,1.63-3.43,2c-1.12,0.38-2.7,0.56-4.76,0.56H131.4z M134.45,108.08h1.38
		c1.37,0,2.51-0.14,3.42-0.43c0.91-0.31,1.73-0.79,2.46-1.45c1.5-1.37,2.25-3.16,2.25-5.36c0-2.22-0.74-4.02-2.23-5.4
		c-1.34-1.23-3.31-1.85-5.91-1.85h-1.38V108.08z"/>
	<path d="M162.21,90.72v20.22h-3.05V90.72H162.21z"/>
	<path d="M201.15,93.72l-2.48,1.47c-0.46-0.8-0.9-1.33-1.32-1.57c-0.44-0.28-1-0.42-1.69-0.42c-0.85,0-1.55,0.24-2.11,0.72
		c-0.56,0.47-0.84,1.06-0.84,1.78c0,0.99,0.73,1.78,2.2,2.38l2.02,0.83c1.64,0.66,2.84,1.48,3.6,2.43c0.76,0.96,1.14,2.13,1.14,3.52
		c0,1.86-0.62,3.4-1.86,4.62c-1.25,1.22-2.8,1.83-4.65,1.83c-1.75,0-3.2-0.52-4.35-1.57c-1.13-1.04-1.83-2.51-2.11-4.4l3.09-0.68
		c0.14,1.19,0.38,2.01,0.73,2.46c0.63,0.87,1.55,1.31,2.75,1.31c0.95,0,1.74-0.32,2.37-0.95c0.63-0.64,0.94-1.44,0.94-2.42
		c0-0.39-0.05-0.75-0.16-1.08c-0.11-0.33-0.28-0.63-0.51-0.9c-0.23-0.27-0.53-0.53-0.9-0.77c-0.37-0.24-0.8-0.47-1.31-0.69
		l-1.95-0.81c-2.77-1.17-4.15-2.88-4.15-5.13c0-1.52,0.58-2.79,1.74-3.81c1.16-1.03,2.61-1.54,4.34-1.54
		C198.02,90.33,199.84,91.46,201.15,93.72z"/>
	<path d="M211.31,93.59v17.36h-3.05V93.59h-4.65v-2.87h12.34v2.87H211.31z"/>
	<path d="M221.73,90.72v20.22h-3.05V90.72H221.73z"/>
	<path d="M232.17,93.59v17.36h-3.05V93.59h-4.65v-2.87h12.34v2.87H232.17z"/>
	<path d="M242.58,90.72v12.17c0,1.74,0.28,3.01,0.85,3.81c0.85,1.16,2.04,1.74,3.58,1.74c1.55,0,2.74-0.58,3.59-1.74
		c0.57-0.78,0.85-2.05,0.85-3.81V90.72h3.05v13.02c0,2.13-0.66,3.89-1.99,5.26c-1.49,1.54-3.33,2.31-5.5,2.31
		c-2.17,0-4-0.77-5.49-2.31c-1.33-1.38-1.99-3.14-1.99-5.26V90.72H242.58z"/>
	<path d="M264.93,93.59v17.36h-3.05V93.59h-4.65v-2.87h12.34v2.87H264.93z"/>
	<path d="M283.45,93.59h-8.11v4.86h7.87v2.87h-7.87v6.76h8.11v2.87h-11.16V90.72h11.16V93.59z"/>
	<path d="M302.08,98.8h-4.93v3.4h4.76v2.01h-4.76v6.74h-2.14V96.79h7.07V98.8z"/>
	<path d="M303.87,103.8c0-1.99,0.73-3.7,2.19-5.13c1.45-1.43,3.2-2.15,5.25-2.15c2.02,0,3.75,0.72,5.19,2.17
		c1.45,1.44,2.17,3.17,2.17,5.2c0,2.04-0.73,3.77-2.18,5.18c-1.46,1.43-3.23,2.14-5.29,2.14c-1.83,0-3.47-0.63-4.92-1.9
		C304.67,107.91,303.87,106.07,303.87,103.8z M306.02,103.83c0,1.56,0.53,2.85,1.58,3.86c1.04,1.01,2.25,1.51,3.62,1.51
		c1.49,0,2.74-0.51,3.76-1.54c1.02-1.04,1.53-2.3,1.53-3.79c0-1.51-0.5-2.77-1.51-3.79c-1-1.03-2.24-1.54-3.72-1.54
		c-1.47,0-2.72,0.51-3.73,1.54C306.53,101.09,306.02,102.34,306.02,103.83z"/>
	<path d="M326.15,104.91l4.38,6.03h-2.61l-4.04-5.79h-0.39v5.79h-2.14V96.79h2.5c1.87,0,3.22,0.35,4.05,1.05
		c0.92,0.78,1.38,1.82,1.38,3.1c0,1-0.29,1.87-0.86,2.59C327.85,104.25,327.09,104.71,326.15,104.91z M323.49,103.29h0.68
		c2.02,0,3.03-0.77,3.03-2.32c0-1.45-0.98-2.17-2.95-2.17h-0.76V103.29z"/>
	<polygon points="123.5,90.72 123.5,106.26 112.17,90.72 108.75,90.72 108.75,110.95 111.8,110.95 111.8,95.41 123.14,110.95 
		126.55,110.95 126.55,90.72 	"/>
	<polygon points="181.81,90.72 181.81,106.26 170.48,90.72 167.06,90.72 167.06,110.95 170.12,110.95 170.12,95.41 181.45,110.95 
		184.87,110.95 184.87,90.72 	"/>
	<polygon points="16.89,90.72 10.17,99.33 3.46,90.72 0,90.72 0,110.95 3.05,110.95 3.05,95.16 10.17,104.3 17.29,95.16 
		17.29,110.95 20.35,110.95 20.35,90.72 	"/>
	<polygon points="325.38,122.91 318.67,131.52 311.96,122.91 308.49,122.91 308.49,143.14 311.55,143.14 311.55,127.35 
		318.67,136.49 325.79,127.35 325.79,143.14 328.84,143.14 328.84,122.91 	"/>
</g>
<g>
	<path d="M96.6,0v72H85.74V0H96.6z"/>
	<path d="M137.33,10.21V72h-10.87V10.21h-16.55V0h43.93v10.21H137.33z"/>
	<path d="M178,28.17h31.06V0h10.86v72h-10.86V38.38H178V72h-10.87V0H178V28.17z"/>
	<polygon points="60.11,0 36.22,30.65 12.32,0 0,0 0,72 10.87,72 10.87,15.81 36.22,48.32 61.56,15.81 61.56,72 72.43,72 72.43,0 	
		"/>
</g>
</svg>
