<svg id="e7e94ddb-eda7-4570-9842-481bb971763e" data-name="UW" xmlns="http://www.w3.org/2000/svg" xmlns:xlink="http://www.w3.org/1999/xlink" viewBox="0 0 367.01 123.53"><defs><style>.aa5c792d-8845-4218-8fb4-17bc46f4eff8{fill:#cd1543;}.b0c96561-be5a-41d9-99a8-66e012dfc001{fill:url(#f6badf94-4a71-4a25-ab96-c69fe7a9051f);}.fd5f19af-26e2-4553-ba71-74d5be0c1e50{fill:#fff;}</style><radialGradient id="f6badf94-4a71-4a25-ab96-c69fe7a9051f" cx="112.13" cy="-346.45" r="41.83" gradientTransform="matrix(1.23, 0, 0, -1.23, -98.5, -364.55)" gradientUnits="userSpaceOnUse"><stop offset="0.25" stop-color="#fff"/><stop offset="0.84" stop-color="#d0b38d"/></radialGradient></defs><path class="aa5c792d-8845-4218-8fb4-17bc46f4eff8" d="M127.19,47c4.29,1.54,2.47,6.16,1.49,9.41l-6.22,20.88-7.65-24.7c-.77-2.51-1.15-4.33-.82-5.76h-7.76V47c3,1.6,1.93,5.31.88,8.79L100.67,77.5,92.48,50.94a10.29,10.29,0,0,1-.66-4.11h-8V47c2.75,1.94,3.58,5.65,4.57,8.79l6.49,21c1.81,5.88,2.31,5.48,7.31,9.24l8.58-28.81,6,19.72c1.82,5.87,2.21,5.59,7.26,9.18l11.6-39.24h-8.47V47Z" transform="translate(0 0)"/><path class="aa5c792d-8845-4218-8fb4-17bc46f4eff8" d="M137.53,47c2.81,1.09,2.47,5.25,2.47,7.91v21.5c0,2.56.33,6.79-2.42,7.82v.17H148v-.17c-2.75-1.09-2.42-5.25-2.42-7.82V54.94c0-2.57-.33-6.79,2.42-7.87v-.13H137.53Z" transform="translate(0 0)"/><path class="aa5c792d-8845-4218-8fb4-17bc46f4eff8" d="M157.6,55.25c0-3.93,4-5.19,7.1-5.19a12.28,12.28,0,0,1,8.64,3.59V47.2a26.54,26.54,0,0,0-8.2-1.26c-6.71,0-13.8,2.74-13.8,9.93,0,12.09,18.92,10.5,18.92,19.39,0,4-4.73,5.93-7.86,5.93a18.69,18.69,0,0,1-12.05-4.73l1.6,7.13a27.52,27.52,0,0,0,9.84,1.71c8.58,0,14.74-5.71,14.74-11.81C176.53,62.94,157.6,63.06,157.6,55.25Z" transform="translate(0 0)"/><path class="aa5c792d-8845-4218-8fb4-17bc46f4eff8" d="M198.82,80.58c-8.47,0-14-7.48-14-15.86s5.28-14,12.87-14a18.59,18.59,0,0,1,10.21,3.22V47.38a42.8,42.8,0,0,0-10-1.43c-11.28,0-19.31,7.82-19.31,19.62,0,12.21,8,19.74,21,19.74a18.85,18.85,0,0,0,8.3-1.71L210.7,77h-.17A23.72,23.72,0,0,1,198.82,80.58Z" transform="translate(0 0)"/><path class="aa5c792d-8845-4218-8fb4-17bc46f4eff8" d="M230.54,45.94A19.86,19.86,0,0,0,209.93,65v.56c0,11.7,9.19,19.8,20.08,19.8A20,20,0,0,0,250.25,65.6h0v-.36a19.32,19.32,0,0,0-19.34-19.3h-.37Zm-.27,35.3c-8.63,0-14.08-8.21-14.08-16.2,0-8.61,5.45-15,14-15S244,58,244,66.41,238.62,81.2,230.27,81.2Z" transform="translate(0 0)"/><path class="aa5c792d-8845-4218-8fb4-17bc46f4eff8" d="M278.48,47c2.92,1.71,2.86,4,2.86,7.19V75.84L261.21,49.49l-.77-1.14a3.66,3.66,0,0,1-.82-1.43h-8v.17c2.86,1.71,2.86,4,2.86,7.19V77c0,3.19,0,5.47-2.91,7.24v.17h9.74v-.17c-2.92-1.77-2.86-4-2.86-7.24v-22l18.87,24.81c2.42,3.25,4.12,5.14,8,6.51v-32c0-3.19,0-5.48,2.86-7.19v-.13H278.5v.16Z" transform="translate(0 0)"/><path class="aa5c792d-8845-4218-8fb4-17bc46f4eff8" d="M296.21,55.25c0-3.93,4-5.19,7.1-5.19a12.25,12.25,0,0,1,8.63,3.59V47.2a26.54,26.54,0,0,0-8.2-1.26c-6.7,0-13.8,2.74-13.8,9.93,0,12.09,18.92,10.5,18.92,19.39,0,4-4.73,5.93-7.87,5.93a18.66,18.66,0,0,1-12-4.73l1.6,7.13a27.58,27.58,0,0,0,9.85,1.71c8.58,0,14.74-5.71,14.74-11.81C315.13,62.94,296.21,63.06,296.21,55.25Z" transform="translate(0 0)"/><path class="aa5c792d-8845-4218-8fb4-17bc46f4eff8" d="M317.21,47c2.8,1.09,2.42,5.25,2.42,7.87V76.4c0,2.56.33,6.79-2.42,7.82v.17h10.45v-.17c-2.75-1.09-2.42-5.25-2.42-7.82V54.94c0-2.57-.33-6.79,2.42-7.87v-.13H317.21Z" transform="translate(0 0)"/><path class="aa5c792d-8845-4218-8fb4-17bc46f4eff8" d="M357.32,46.87V47c2.92,1.71,2.86,4,2.86,7.19V75.84L340.05,49.49l-.77-1.14a3.66,3.66,0,0,1-.82-1.43h-8v.17c2.86,1.71,2.86,4,2.86,7.19V77c0,3.19,0,5.47-2.91,7.24v.17h9.74v-.17c-2.92-1.77-2.86-4-2.86-7.24v-22l18.86,24.81c2.42,3.25,4.13,5.14,8,6.51v-32c0-3.19,0-5.48,2.86-7.19v-.13Z" transform="translate(0 0)"/><path d="M99.26,100.62a2.84,2.84,0,0,0,1.08-.2,2.39,2.39,0,0,0,.8-.57,2.27,2.27,0,0,0,.5-.88,3.28,3.28,0,0,0,.17-1.12V91.77h1.48v6.08a4.51,4.51,0,0,1-.28,1.63,3.83,3.83,0,0,1-.8,1.29,3.64,3.64,0,0,1-1.27.85,4.8,4.8,0,0,1-3.38,0,3.64,3.64,0,0,1-1.27-.85,3.71,3.71,0,0,1-.81-1.29,4.51,4.51,0,0,1-.28-1.63V91.77h1.49v6.08a3.65,3.65,0,0,0,.17,1.09,2.27,2.27,0,0,0,.5.88,2.17,2.17,0,0,0,.8.57A3.18,3.18,0,0,0,99.26,100.62Z" transform="translate(0 0)"/><path d="M114.24,91.76v10h-.76a.72.72,0,0,1-.29-.06.91.91,0,0,1-.24-.2l-5.68-7.34v7.6H106v-10h.77a.51.51,0,0,1,.51.26L113,99.37V91.76Z" transform="translate(0 0)"/><path d="M118.62,101.81h-1.5v-10h1.5Z" transform="translate(0 0)"/><path d="M129.78,91.76l-4.09,10h-1.34l-4.09-10h1.19a.46.46,0,0,1,.32.1.79.79,0,0,1,.19.25l2.72,6.83c.07.17.13.35.19.55s.12.41.17.63q.08-.33.15-.63c.06-.2.12-.39.18-.55l2.71-6.83a.48.48,0,0,1,.18-.24.52.52,0,0,1,.32-.11Z" transform="translate(0 0)"/><path d="M137.65,100.6v1.21h-6.23v-10h6.23v1.18h-4.73v3.19h3.81V97.3h-3.81v3.28h4.74Z" transform="translate(0 0)"/><path d="M147.42,101.81h-1.33a.6.6,0,0,1-.58-.31L143,98a.78.78,0,0,0-.26-.25.87.87,0,0,0-.42-.07h-1v4.12h-1.49v-10h2.9a6.33,6.33,0,0,1,1.68.2,3.15,3.15,0,0,1,1.16.57,2.38,2.38,0,0,1,.68.89,2.88,2.88,0,0,1,.22,1.16,3.08,3.08,0,0,1-.16,1,2.44,2.44,0,0,1-.47.83,2.72,2.72,0,0,1-.76.63,4,4,0,0,1-1,.41,1.54,1.54,0,0,1,.48.47Zm-4.69-5.21a3.36,3.36,0,0,0,1-.14,2,2,0,0,0,.73-.4,1.76,1.76,0,0,0,.44-.61,2.08,2.08,0,0,0,.15-.78,1.57,1.57,0,0,0-.57-1.31,2.8,2.8,0,0,0-1.71-.44h-1.41v3.67h1.37Z" transform="translate(0 0)"/><path d="M154.34,93.4a.65.65,0,0,1-.15.18.36.36,0,0,1-.2.06.5.5,0,0,1-.29-.12l-.4-.26a2.51,2.51,0,0,0-.58-.26,2.19,2.19,0,0,0-.8-.12,2.53,2.53,0,0,0-.77.12,1.64,1.64,0,0,0-.56.32,1.4,1.4,0,0,0-.46,1.05,1,1,0,0,0,.21.67,1.84,1.84,0,0,0,.54.46,3.43,3.43,0,0,0,.76.33l.88.29c.3.1.59.22.88.35a2.91,2.91,0,0,1,.76.49,2.17,2.17,0,0,1,.54.73,2.46,2.46,0,0,1,.21,1,3.55,3.55,0,0,1-.23,1.25,2.82,2.82,0,0,1-.66,1,3,3,0,0,1-1.07.68,3.74,3.74,0,0,1-1.44.25,4.91,4.91,0,0,1-.94-.09,4.55,4.55,0,0,1-1.62-.68,3.22,3.22,0,0,1-.63-.54l.43-.71a.5.5,0,0,1,.15-.14.36.36,0,0,1,.2-.06.53.53,0,0,1,.34.15c.13.1.29.22.48.34a3.32,3.32,0,0,0,.68.34,3,3,0,0,0,1.79,0,1.62,1.62,0,0,0,.61-.35,1.4,1.4,0,0,0,.38-.55,1.75,1.75,0,0,0,.13-.71,1.23,1.23,0,0,0-.2-.72,1.87,1.87,0,0,0-.54-.47,4.22,4.22,0,0,0-.76-.32l-.88-.28c-.3-.1-.59-.21-.88-.33a2.91,2.91,0,0,1-.76-.49,2.4,2.4,0,0,1-.54-.76,2.9,2.9,0,0,1-.2-1.13,2.67,2.67,0,0,1,.21-1,2.62,2.62,0,0,1,.61-.89,3.05,3.05,0,0,1,1-.62,3.6,3.6,0,0,1,1.34-.23,4.61,4.61,0,0,1,1.56.27,3.64,3.64,0,0,1,1.24.77Z" transform="translate(0 0)"/><path d="M158.6,101.81h-1.5v-10h1.5Z" transform="translate(0 0)"/><path d="M168.22,93H165v8.81h-1.48V93h-3.21V91.76h7.88Z" transform="translate(0 0)"/><path d="M174.32,97.84v4h-1.48v-4l-3.68-6.08h1.31a.52.52,0,0,1,.32.09.82.82,0,0,1,.2.25l2.18,3.76c.09.17.17.34.24.49a3.71,3.71,0,0,1,.19.46c.05-.15.11-.3.18-.46l.23-.49,2.18-3.76a1.06,1.06,0,0,1,.19-.23.51.51,0,0,1,.31-.11H178Z" transform="translate(0 0)"/><path d="M192.77,96.79a5.61,5.61,0,0,1-.36,2.07,4.62,4.62,0,0,1-2.59,2.68,5.6,5.6,0,0,1-4.07,0,4.54,4.54,0,0,1-1.57-1.06,4.78,4.78,0,0,1-1-1.62,6.13,6.13,0,0,1,0-4.14,4.72,4.72,0,0,1,1-1.63A4.54,4.54,0,0,1,185.75,92a5.6,5.6,0,0,1,4.07,0,4.54,4.54,0,0,1,1.57,1.06,4.72,4.72,0,0,1,1,1.63A5.84,5.84,0,0,1,192.77,96.79Zm-1.53,0a4.64,4.64,0,0,0-.25-1.61,3.49,3.49,0,0,0-.7-1.21,3,3,0,0,0-1.09-.76,3.92,3.92,0,0,0-2.86,0,3.11,3.11,0,0,0-1.1.76,3.2,3.2,0,0,0-.7,1.21,4.88,4.88,0,0,0-.25,1.61,4.64,4.64,0,0,0,.25,1.61,3.49,3.49,0,0,0,.7,1.21,3.11,3.11,0,0,0,1.1.76,4,4,0,0,0,2.86,0,3,3,0,0,0,1.09-.76,3.49,3.49,0,0,0,.7-1.21A4.64,4.64,0,0,0,191.24,96.79Z" transform="translate(0 0)"/><path d="M196.46,92.94v3.4h4v1.21h-4v4.26H195v-10h6.23v1.18Z" transform="translate(0 0)"/><path d="M220.32,91.76l-3.14,10h-1.34l-2.45-7.46a5.44,5.44,0,0,1-.15-.54q-.08.31-.15.54l-2.48,7.46h-1.34l-3.14-10h1.25a.63.63,0,0,1,.33.09.45.45,0,0,1,.18.25l2,6.73a2.41,2.41,0,0,0,.1.43l.09.48a2.73,2.73,0,0,1,.1-.48,3,3,0,0,1,.12-.43l2.27-6.73a.48.48,0,0,1,.18-.24.57.57,0,0,1,.33-.11h.43a.46.46,0,0,1,.32.1.64.64,0,0,1,.18.25l2.26,6.73a8.7,8.7,0,0,1,.22.88c.06-.32.12-.61.18-.88l2-6.73a.46.46,0,0,1,.17-.24.57.57,0,0,1,.33-.11h1.15Z" transform="translate(0 0)"/><path d="M223.54,101.81H222v-10h1.5Z" transform="translate(0 0)"/><path d="M231.53,93.4a.65.65,0,0,1-.15.18.36.36,0,0,1-.2.06.5.5,0,0,1-.29-.12l-.4-.26a2.51,2.51,0,0,0-.58-.26,2.19,2.19,0,0,0-.8-.12,2.53,2.53,0,0,0-.77.12,1.64,1.64,0,0,0-.56.32,1.4,1.4,0,0,0-.46,1.05,1,1,0,0,0,.21.67,1.84,1.84,0,0,0,.54.46,3.43,3.43,0,0,0,.76.33l.88.29c.3.1.59.22.88.35a2.91,2.91,0,0,1,.76.49,2.17,2.17,0,0,1,.54.73,2.46,2.46,0,0,1,.21,1,3.55,3.55,0,0,1-.23,1.25,2.82,2.82,0,0,1-.66,1,3,3,0,0,1-1.07.68,3.74,3.74,0,0,1-1.44.25,4.91,4.91,0,0,1-.94-.09,4.55,4.55,0,0,1-1.62-.68,3.22,3.22,0,0,1-.63-.54l.43-.71a.5.5,0,0,1,.15-.14.36.36,0,0,1,.2-.06.53.53,0,0,1,.34.15c.13.1.29.22.48.34a3.32,3.32,0,0,0,.68.34,3,3,0,0,0,1.79,0,1.62,1.62,0,0,0,.61-.35,1.4,1.4,0,0,0,.38-.55,1.75,1.75,0,0,0,.13-.71,1.23,1.23,0,0,0-.2-.72,1.87,1.87,0,0,0-.54-.47,4.22,4.22,0,0,0-.76-.32l-.88-.28c-.3-.1-.59-.21-.88-.33a2.91,2.91,0,0,1-.76-.49,2.4,2.4,0,0,1-.54-.76,2.9,2.9,0,0,1-.2-1.13,2.67,2.67,0,0,1,.21-1,2.62,2.62,0,0,1,.61-.89,3.05,3.05,0,0,1,1-.62,3.6,3.6,0,0,1,1.34-.23,4.61,4.61,0,0,1,1.56.27,3.64,3.64,0,0,1,1.24.77Z" transform="translate(0 0)"/><path d="M241.29,99.66a.32.32,0,0,1,.22.1l.59.64a4.16,4.16,0,0,1-1.5,1.13,5.18,5.18,0,0,1-2.13.4,5,5,0,0,1-2-.38,4.31,4.31,0,0,1-1.51-1.06,4.78,4.78,0,0,1-1-1.62,5.9,5.9,0,0,1-.34-2.08,5.66,5.66,0,0,1,.36-2.08,4.78,4.78,0,0,1,1-1.62A4.5,4.5,0,0,1,236.54,92a5,5,0,0,1,2-.38,4.93,4.93,0,0,1,1.9.35,4.68,4.68,0,0,1,1.56.94l-.49.69a.49.49,0,0,1-.12.13.31.31,0,0,1-.19,0,.53.53,0,0,1-.31-.13,4.66,4.66,0,0,0-.47-.3,3.23,3.23,0,0,0-.72-.3,3.39,3.39,0,0,0-1.1-.09,3.59,3.59,0,0,0-1.37.26,2.91,2.91,0,0,0-1.07.76,3.49,3.49,0,0,0-.7,1.21,5.31,5.31,0,0,0,0,3.25,3.36,3.36,0,0,0,.71,1.21,3,3,0,0,0,1.07.76,3.54,3.54,0,0,0,1.33.26,5.08,5.08,0,0,0,.78,0,2.86,2.86,0,0,0,.64-.16,2.81,2.81,0,0,0,.55-.27,3.9,3.9,0,0,0,.51-.4l.12-.08A.2.2,0,0,1,241.29,99.66Z" transform="translate(0 0)"/><path d="M253.07,96.79a5.61,5.61,0,0,1-.36,2.07,4.62,4.62,0,0,1-2.59,2.68,5.6,5.6,0,0,1-4.07,0,4.54,4.54,0,0,1-1.57-1.06,4.78,4.78,0,0,1-1-1.62,6.13,6.13,0,0,1,0-4.14,4.72,4.72,0,0,1,1-1.63A4.54,4.54,0,0,1,246.05,92a5.6,5.6,0,0,1,4.07,0,4.54,4.54,0,0,1,1.57,1.06,4.72,4.72,0,0,1,1,1.63A5.84,5.84,0,0,1,253.07,96.79Zm-1.53,0a4.64,4.64,0,0,0-.25-1.61,3.49,3.49,0,0,0-.7-1.21,3,3,0,0,0-1.09-.76,3.92,3.92,0,0,0-2.86,0,3.11,3.11,0,0,0-1.1.76,3.2,3.2,0,0,0-.7,1.21,4.88,4.88,0,0,0-.25,1.61,4.64,4.64,0,0,0,.25,1.61,3.49,3.49,0,0,0,.7,1.21,3.11,3.11,0,0,0,1.1.76,4,4,0,0,0,2.86,0,3,3,0,0,0,1.09-.76,3.49,3.49,0,0,0,.7-1.21A4.64,4.64,0,0,0,251.54,96.79Z" transform="translate(0 0)"/><path d="M263.45,91.76v10h-.76a.72.72,0,0,1-.29-.06.91.91,0,0,1-.24-.2l-5.68-7.34v7.6H255.2v-10h.8a.51.51,0,0,1,.51.26l5.69,7.35V91.76Z" transform="translate(0 0)"/><path d="M271.45,93.4a.65.65,0,0,1-.15.18.36.36,0,0,1-.2.06.5.5,0,0,1-.29-.12l-.4-.26a2.51,2.51,0,0,0-.58-.26,2.19,2.19,0,0,0-.8-.12,2.53,2.53,0,0,0-.77.12,1.64,1.64,0,0,0-.56.32,1.4,1.4,0,0,0-.46,1.05,1,1,0,0,0,.21.67,1.84,1.84,0,0,0,.54.46,3.43,3.43,0,0,0,.76.33l.88.29c.3.1.59.22.88.35a2.91,2.91,0,0,1,.76.49,2.17,2.17,0,0,1,.54.73,2.46,2.46,0,0,1,.21,1,3.55,3.55,0,0,1-.23,1.25,2.82,2.82,0,0,1-.66,1,3,3,0,0,1-1.07.68,3.74,3.74,0,0,1-1.44.25,4.91,4.91,0,0,1-.94-.09,4.55,4.55,0,0,1-1.62-.68,3.22,3.22,0,0,1-.63-.54l.43-.71a.5.5,0,0,1,.15-.14.36.36,0,0,1,.2-.06.53.53,0,0,1,.34.15c.13.1.29.22.48.34a3.32,3.32,0,0,0,.68.34,3,3,0,0,0,1.79,0,1.62,1.62,0,0,0,.61-.35,1.4,1.4,0,0,0,.38-.55,1.75,1.75,0,0,0,.13-.71,1.23,1.23,0,0,0-.2-.72,1.87,1.87,0,0,0-.54-.47,4.22,4.22,0,0,0-.76-.32l-.88-.28c-.3-.1-.59-.21-.88-.33a2.91,2.91,0,0,1-.76-.49,2.4,2.4,0,0,1-.54-.76,2.9,2.9,0,0,1-.2-1.13,2.67,2.67,0,0,1,.21-1,2.62,2.62,0,0,1,.61-.89,3.05,3.05,0,0,1,1-.62,3.6,3.6,0,0,1,1.34-.23,4.61,4.61,0,0,1,1.56.27,3.64,3.64,0,0,1,1.24.77Z" transform="translate(0 0)"/><path d="M275.72,101.81h-1.5v-10h1.5Z" transform="translate(0 0)"/><path d="M286.82,91.76v10h-.76a.72.72,0,0,1-.29-.06.91.91,0,0,1-.24-.2l-5.68-7.34v7.6h-1.31v-10h.77a.51.51,0,0,1,.51.26l5.69,7.35V91.76Z" transform="translate(0 0)"/><path d="M289.39,96.52H295v1h-5.61Z" transform="translate(0 0)"/><path d="M308.14,91.76v10h-1.3V93.94l-3.35,6.14a.57.57,0,0,1-.54.34h-.21a.56.56,0,0,1-.53-.34l-3.38-6.14v7.89h-1.31V91.76h1.11a.76.76,0,0,1,.3,0,.53.53,0,0,1,.21.21l3.36,6a2.64,2.64,0,0,1,.18.38c.06.13.11.27.16.41a8,8,0,0,1,.34-.8l3.3-6a.41.41,0,0,1,.2-.21.76.76,0,0,1,.3,0Z" transform="translate(0 0)"/><path d="M319.29,101.81h-1.15a.46.46,0,0,1-.32-.1.64.64,0,0,1-.18-.25l-.89-2.33h-4.43l-.89,2.33a.48.48,0,0,1-.18.24.52.52,0,0,1-.32.11h-1.15l4-10h1.5Zm-2.94-3.74-1.49-3.9a8.94,8.94,0,0,1-.32-1c-.05.2-.1.39-.16.56s-.11.33-.16.46l-1.48,3.88Z" transform="translate(0 0)"/><path d="M329.71,96.79a5.5,5.5,0,0,1-.36,2,4.28,4.28,0,0,1-2.58,2.58,5.7,5.7,0,0,1-2,.36H321v-10h3.78a5.7,5.7,0,0,1,2,.36,4.25,4.25,0,0,1,2.58,2.59A5.8,5.8,0,0,1,329.71,96.79Zm-1.53,0a4.64,4.64,0,0,0-.25-1.61,3.3,3.3,0,0,0-.7-1.2,3,3,0,0,0-1.09-.75,3.66,3.66,0,0,0-1.43-.26h-2.28v7.64h2.28a3.66,3.66,0,0,0,1.43-.26,2.84,2.84,0,0,0,1.09-.75,3.54,3.54,0,0,0,.7-1.2A4.64,4.64,0,0,0,328.18,96.79Z" transform="translate(0 0)"/><path d="M333.52,101.81H332v-10h1.5Z" transform="translate(0 0)"/><path d="M341.51,93.4a.65.65,0,0,1-.15.18.36.36,0,0,1-.2.06.5.5,0,0,1-.29-.12l-.4-.26a2.51,2.51,0,0,0-.58-.26,2.19,2.19,0,0,0-.8-.12,2.53,2.53,0,0,0-.77.12,1.64,1.64,0,0,0-.56.32,1.4,1.4,0,0,0-.46,1.05,1,1,0,0,0,.21.67,1.84,1.84,0,0,0,.54.46,3.43,3.43,0,0,0,.76.33l.88.29c.3.1.59.22.88.35a2.91,2.91,0,0,1,.76.49,2.17,2.17,0,0,1,.54.73,2.46,2.46,0,0,1,.21,1,3.55,3.55,0,0,1-.23,1.25,2.82,2.82,0,0,1-.66,1,3,3,0,0,1-1.07.68,3.74,3.74,0,0,1-1.44.25,4.91,4.91,0,0,1-.94-.09,4.55,4.55,0,0,1-1.62-.68,3.22,3.22,0,0,1-.63-.54l.43-.71a.5.5,0,0,1,.15-.14.36.36,0,0,1,.2-.06.53.53,0,0,1,.34.15c.13.1.29.22.48.34a3.32,3.32,0,0,0,.68.34,3,3,0,0,0,1.79,0,1.62,1.62,0,0,0,.61-.35,1.4,1.4,0,0,0,.38-.55,1.75,1.75,0,0,0,.13-.71,1.23,1.23,0,0,0-.2-.72,1.87,1.87,0,0,0-.54-.47,4.22,4.22,0,0,0-.76-.32l-.88-.28c-.3-.1-.59-.21-.88-.33a2.91,2.91,0,0,1-.76-.49,2.4,2.4,0,0,1-.54-.76,2.9,2.9,0,0,1-.2-1.13,2.67,2.67,0,0,1,.21-1,2.62,2.62,0,0,1,.61-.89,3.05,3.05,0,0,1,1-.62,3.6,3.6,0,0,1,1.34-.23,4.61,4.61,0,0,1,1.56.27,3.64,3.64,0,0,1,1.24.77Z" transform="translate(0 0)"/><path d="M353.61,96.79a5.61,5.61,0,0,1-.36,2.07,4.62,4.62,0,0,1-2.59,2.68,5.6,5.6,0,0,1-4.07,0,4.54,4.54,0,0,1-1.57-1.06,4.78,4.78,0,0,1-1-1.62,6.13,6.13,0,0,1,0-4.14,4.72,4.72,0,0,1,1-1.63A4.54,4.54,0,0,1,346.59,92a5.6,5.6,0,0,1,4.07,0,4.54,4.54,0,0,1,1.57,1.06,4.72,4.72,0,0,1,1,1.63A5.84,5.84,0,0,1,353.61,96.79Zm-1.52,0a4.64,4.64,0,0,0-.25-1.61,3.49,3.49,0,0,0-.7-1.21,3,3,0,0,0-1.09-.76,3.92,3.92,0,0,0-2.86,0,3.11,3.11,0,0,0-1.1.76,3.2,3.2,0,0,0-.7,1.21,4.88,4.88,0,0,0-.25,1.61,4.64,4.64,0,0,0,.25,1.61,3.49,3.49,0,0,0,.7,1.21,3.11,3.11,0,0,0,1.1.76,4,4,0,0,0,2.86,0,3,3,0,0,0,1.09-.76,3.49,3.49,0,0,0,.7-1.21A4.64,4.64,0,0,0,352.09,96.79Z" transform="translate(0 0)"/><path d="M364,91.76v10h-.76a.72.72,0,0,1-.29-.06.91.91,0,0,1-.24-.2L357,94.21v7.6h-1.31v-10h.77A.51.51,0,0,1,357,92l5.69,7.35V91.76Z" transform="translate(0 0)"/><path class="b0c96561-be5a-41d9-99a8-66e012dfc001" d="M39.3,123.14a5.31,5.31,0,0,1-1.49-1.64l-.09-.13h-.15c-25.67-6-40-45.38-36.74-77A66.63,66.63,0,0,1,2.65,34.06a50.5,50.5,0,0,1,3.29-9,33,33,0,0,1,5.32-8A20.81,20.81,0,0,1,26.5,9.75c.13,0,.5,0,.53-.36a7.77,7.77,0,0,1,5.49-3.72h.27l.07-.26A6.6,6.6,0,0,1,39.3.34c5.19,0,6.44,5,6.46,5l.06.26h.27a7.81,7.81,0,0,1,5.48,3.74c0,.35.4.36.53.36a20.8,20.8,0,0,1,15.25,7.24,34,34,0,0,1,6,9.5l.33.78a60.34,60.34,0,0,1,4.09,17C81,75.94,66.7,115.35,41,121.33h-.15l-.09.13A5.24,5.24,0,0,1,39.3,123.14Z" transform="translate(0 0)"/><path d="M78.14,44.29a70.49,70.49,0,0,0-1.22-7.79,57,57,0,0,0-2-7,44,44,0,0,0-3.15-7,31.54,31.54,0,0,0-4.19-5.81C63.3,12,58,9.42,52.09,9.34H52a8.18,8.18,0,0,0-5.89-4.12,7,7,0,0,0-13.54,0,8.17,8.17,0,0,0-5.93,4.12h-.13C20.61,9.42,15.29,12,11,16.74A32.37,32.37,0,0,0,6.8,22.55a44.86,44.86,0,0,0-3.15,7,55.26,55.26,0,0,0-2,7A69.89,69.89,0,0,0,.46,44.29c-3.26,32,11.14,71.39,37.05,77.43.39.59,1.3,1.81,1.79,1.81s1.4-1.22,1.79-1.81C67,115.68,81.4,76.32,78.14,44.29ZM39.3,1.18a5.54,5.54,0,0,1,5.56,3.91,6.86,6.86,0,0,0-5.46,3.5s-.06.13-.1.13-.08-.1-.1-.13a6.92,6.92,0,0,0-5.46-3.5A5.52,5.52,0,0,1,39.3,1.18ZM36.66,7.25a5,5,0,0,1,2.26,3c.09.37.23.59.38.59s.29-.22.38-.59a4.93,4.93,0,0,1,2.26-3,5.94,5.94,0,0,1,8.22,1.68h0a5.3,5.3,0,0,1,.33.57,20.87,20.87,0,0,0-2.36.59,9.25,9.25,0,0,0-3.37,1.84,13.37,13.37,0,0,0-4.31,8.63C39.51,30.94,51.38,29.31,52,29.26c1.53,0,2.69-2.42,2.69-5.62S53.48,18,52,18c-.92,0-2.51.74-2.66,3.61-.1,2,.88,4.7,2.16,4.86.66.09,1.27-1.08,1.45-2.27.17-1,.08-2.65-.84-2.88a.55.55,0,0,0-.66.4c-.07.26.57.71.55,1.9,0,1.77-1.82.89-1.58-1.93.21-2.5,1.49-2.34,1.54-2.34.71,0,1.79,1.49,1.79,4.27,0,2.47-1.2,5.14-3.48,3.75-1.94-1.45-2.7-4.64-2.17-7.15.24-1.15,1.23-4.28,4.43-4.28,4.62,0,8.92,2.42,12.35,6.94-.38,1.21-2.75,5.81-10.31,10.21-.16.08-.4.22-.41.21a15.63,15.63,0,0,0-7-1.38,38.49,38.49,0,0,0-6.57,1,5.69,5.69,0,0,1-1.3.21h0A5.61,5.61,0,0,1,38,32.94a37.38,37.38,0,0,0-6.57-1,15.63,15.63,0,0,0-7,1.38L24,33.11c-7.56-4.4-9.94-9-10.31-10.21,3.44-4.51,7.74-7,12.36-7,3.2,0,4.19,3.13,4.43,4.28.53,2.5-.23,5.74-2.15,7.15-2.28,1.39-3.48-1.27-3.48-3.75,0-2.78,1.07-4.27,1.79-4.27.05,0,1.33-.16,1.54,2.34.24,2.81-1.54,3.7-1.58,1.93,0-1.19.61-1.64.55-1.9a.55.55,0,0,0-.66-.4c-.92.23-1,1.85-.84,2.88s.79,2.35,1.45,2.27c1.27-.17,2.26-2.85,2.16-4.86C29.11,18.7,27.52,18,26.6,18c-1.5,0-2.69,2.42-2.69,5.62s1.16,5.62,2.69,5.62c.6.05,12.48,1.68,11.53-8.68a13.29,13.29,0,0,0-4.29-8.58,9.32,9.32,0,0,0-3.37-1.87,17.33,17.33,0,0,0-2.36-.59,5.93,5.93,0,0,1,8-2.54A6.12,6.12,0,0,1,36.66,7.25ZM14.2,50.66a45.75,45.75,0,0,0-.45,4.68,63,63,0,0,0,2.9,21.6,70.09,70.09,0,0,0,5.85,13.2,16,16,0,0,1-7.28,3.31c-6.56-13-9.9-29.88-9.16-45.06A22.7,22.7,0,0,0,14.2,50.66ZM6.11,47.55c.62-10.36,3.25-18.48,7.06-23.89.68,1.76,3.64,6.16,10.47,10.17-5.81,3.49-8.43,10.71-9.31,16.11A22.32,22.32,0,0,1,6.11,47.55ZM22.89,90.81c4.35,7.51,8.67,12,12,14.35a16.4,16.4,0,0,1-5,6.17c-5.68-3.82-10.48-9.87-14.26-17.18A16.81,16.81,0,0,0,22.89,90.81Zm12.62,14.81a17,17,0,0,0,3.79,2.08,17,17,0,0,0,3.79-2.08,17.06,17.06,0,0,0,5,6.15A26.21,26.21,0,0,1,43,114.29v-.19c-.36-1.87-2.8-2.25-3.7-2.25s-3.33.38-3.7,2.25v.19a26.92,26.92,0,0,1-5.07-2.52A16.64,16.64,0,0,0,35.51,105.62Zm8.23-.46c3.29-2.36,7.61-6.84,12-14.35A16.81,16.81,0,0,0,63,94.15c-3.78,7.31-8.58,13.36-14.26,17.18A16.4,16.4,0,0,1,43.74,105.16Zm12.35-15a68.73,68.73,0,0,0,5.85-13.22,63.28,63.28,0,0,0,2.35-10.37,62.85,62.85,0,0,0,.55-11.22,45.75,45.75,0,0,0-.45-4.68,22.72,22.72,0,0,0,8.14-2.28c.74,15.18-2.6,32-9.16,45.06a16.15,16.15,0,0,1-7.28-3.32Zm8.19-40.22C63.4,44.53,60.73,37.45,55,33.82c6.83-4,9.79-8.41,10.47-10.17,3.81,5.41,6.44,13.54,7.06,23.89A22.11,22.11,0,0,1,64.28,49.94Zm-29.2,69.54a33.14,33.14,0,0,1-8.31-4.15,39.92,39.92,0,0,1-4.6-3.71,44.1,44.1,0,0,1-3.33-3.5c-.71-.83-1.4-1.69-2.06-2.57A67.5,67.5,0,0,1,8.89,91.8,90.9,90.9,0,0,1,4,77.36,98.43,98.43,0,0,1,1.5,62a91.49,91.49,0,0,1-.1-15.35c.23-2.72.6-5.47,1.05-8.17a55.58,55.58,0,0,1,2-7.94,44.33,44.33,0,0,1,3-6.89,29.82,29.82,0,0,1,4.46-6.28A22.75,22.75,0,0,1,17.52,13a19.77,19.77,0,0,1,2.74-1.23c.48-.17,1-.33,1.45-.46a12.44,12.44,0,0,1,1.46-.36,20.06,20.06,0,0,1,3.63-.3,10.76,10.76,0,0,1,5.5,1.48A11.3,11.3,0,0,1,37,20.67c.56,6.39-6,7.4-7.24,7.39-.2,0-.3-.19.34-.84A9.19,9.19,0,0,0,31.58,20c-.62-2.94-2.69-5.23-5.69-5.22A15.8,15.8,0,0,0,14.4,20.28,32.17,32.17,0,0,0,8.09,31.42,60.14,60.14,0,0,0,5,47.53,88.2,88.2,0,0,0,5.32,62.6a98,98,0,0,0,2.76,15,85.79,85.79,0,0,0,5,14,61.94,61.94,0,0,0,7.76,12.78,36.6,36.6,0,0,0,11.52,9.73,25.52,25.52,0,0,0,3.13,1.36,9.52,9.52,0,0,0,.94,4.39,6.38,6.38,0,0,1-1.35-.41Zm4.66,2.19a.89.89,0,0,1-.44.3.89.89,0,0,1-.44-.3,9.2,9.2,0,0,1-2.14-7.32c.18-.91,1.7-1.32,2.58-1.33s2.41.42,2.58,1.33a9.21,9.21,0,0,1-2.14,7.29ZM77.1,62a98.64,98.64,0,0,1-2.54,15.36,90.75,90.75,0,0,1-4.85,14.44,67.28,67.28,0,0,1-7.89,13.72c-.66.87-1.35,1.73-2.06,2.57a47.83,47.83,0,0,1-3.33,3.5,39.92,39.92,0,0,1-4.6,3.71,33.14,33.14,0,0,1-8.31,4.15,10,10,0,0,1-1.32.39,9.52,9.52,0,0,0,.94-4.39,25.52,25.52,0,0,0,3.13-1.36,36.71,36.71,0,0,0,11.52-9.73,61.51,61.51,0,0,0,7.76-12.78,85.79,85.79,0,0,0,5-14,98,98,0,0,0,2.76-15,88.2,88.2,0,0,0,.32-15.07A60.71,60.71,0,0,0,70.5,31.46a32.06,32.06,0,0,0-6.33-11.14,15.8,15.8,0,0,0-11.49-5.51c-3,0-5.07,2.29-5.69,5.22a9.32,9.32,0,0,0,1.48,7.23c.63.66.53.84.34.84-1.28,0-7.8-1-7.24-7.39a11.32,11.32,0,0,1,4.72-8.56,10.76,10.76,0,0,1,5.5-1.48,19.2,19.2,0,0,1,3.63.3,10.77,10.77,0,0,1,1.46.37c.49.13,1,.29,1.45.46A19.77,19.77,0,0,1,61.07,13a22.75,22.75,0,0,1,5.61,4.39,29.82,29.82,0,0,1,4.46,6.28,44.33,44.33,0,0,1,3,6.89,55.58,55.58,0,0,1,2,7.94,72.31,72.31,0,0,1,1,8.17A90,90,0,0,1,77.1,62Z" transform="translate(0 0)"/><path class="aa5c792d-8845-4218-8fb4-17bc46f4eff8" d="M63.44,55.55c-.16-3.81-1.27-15.43-9.18-20.47a13.27,13.27,0,0,0-6.21-1.71c-3.88-.25-6.76,1.23-8.7,1.29h-.1c-1.94,0-4.84-1.54-8.72-1.29a13.43,13.43,0,0,0-6.19,1.71c-7.91,5-9,16.66-9.18,20.47a61.56,61.56,0,0,0,5,26.88c5.47,12,12.08,20.57,18.6,23.46l.52.23.53-.23c6.52-2.9,13.13-11.41,18.6-23.46A61.58,61.58,0,0,0,63.44,55.55Z" transform="translate(0 0)"/><path class="fd5f19af-26e2-4553-ba71-74d5be0c1e50" d="M51.05,46.41V49l.53-.08h.25a1.67,1.67,0,0,1,1.17.38,1.74,1.74,0,0,1,.3,1.6S48,73.84,47,78.2c-1.16-5.52-7.45-35.65-7.45-35.65v-.13H38.27v.14l-5.46,35.2c-1.21-5.08-6.29-26.82-6.29-26.82v-.39A1.82,1.82,0,0,1,27,49.2a1.34,1.34,0,0,1,1-.26l.52.07V46.42H19.64v2.52H20a1.58,1.58,0,0,1,1.34,1.18L32.12,96.38v.12h1.55v-.13c0-.31,4.26-27.84,5-33,1,5.13,6.36,32.7,6.42,33v.13h1.39L56.9,50.11A1.39,1.39,0,0,1,58.34,49H59V46.4h-8Z" transform="translate(0 0)"/></svg>