<?xml version="1.0" encoding="UTF-8" standalone="no"?>
<!DOCTYPE svg PUBLIC "-//W3C//DTD SVG 1.1//EN" "http://www.w3.org/Graphics/SVG/1.1/DTD/svg11.dtd">
<svg width="100%" height="100%" viewBox="0 0 695 582" version="1.1" xmlns="http://www.w3.org/2000/svg" xmlns:xlink="http://www.w3.org/1999/xlink" xml:space="preserve" xmlns:serif="http://www.serif.com/" style="fill-rule:evenodd;clip-rule:evenodd;stroke-linejoin:round;stroke-miterlimit:2;">
    <g transform="matrix(5.55556,0,0,5.55556,-1897.27,-1994.87)">
        <g transform="matrix(0.634179,0,0,0.586188,-36.1594,696.193)">
            <path d="M636.8,-531.7L634,-530.9L633.2,-518.5L631.2,-518L630.5,-515L633,-515.6L632.7,-511.2L636.3,-512.2L636.6,-516.6L641.8,-517.9L644,-514.2L648,-515.2L636.8,-531.7ZM640.3,-520.3L636.9,-519.4L637.3,-525.4L640.3,-520.3Z" style="fill:rgb(224,202,89);fill-rule:nonzero;"/>
        </g>
        <g transform="matrix(0.634179,0,0,0.586188,-36.1594,696.193)">
            <path d="M625.5,-545.7C625.4,-546.1 625.2,-546.5 625.1,-547L623.3,-552.2L619.2,-551L621.2,-545.7C621.6,-544.8 621.9,-543.9 622.2,-543.1C623.4,-539.4 623.1,-537.1 621.4,-536.3C621.3,-536.3 621.2,-536.2 621.1,-536.2C620.1,-535.9 619.2,-536.3 618.3,-537.5C617.02,-539.356 616.073,-541.42 615.5,-543.6L613.7,-549.1L609.9,-548L611.7,-542.8C614,-535.9 616.9,-532.4 620.4,-532.4C621.012,-532.402 621.62,-532.503 622.2,-532.7C622.4,-532.8 622.5,-532.8 622.7,-532.9C626.7,-534.5 627.7,-538.8 625.5,-545.7Z" style="fill:rgb(224,202,89);fill-rule:nonzero;"/>
        </g>
        <g transform="matrix(0.634179,0,0,0.586188,-36.1594,696.193)">
            <path d="M715.2,-507.3C732.7,-505.7 748.5,-502.3 760.8,-497.6C761.5,-498.9 762.2,-500.2 762.9,-501.6C749.2,-507 731.4,-510.7 711.3,-512.1C712.812,-510.685 714.124,-509.07 715.2,-507.3Z" style="fill:rgb(224,202,89);fill-rule:nonzero;"/>
        </g>
        <g transform="matrix(0.634179,0,0,0.586188,-36.1594,696.193)">
            <path d="M677,-512.1C656.9,-510.8 639,-507.1 625.2,-501.7C625.9,-500.3 626.6,-499 627.3,-497.7C639.7,-502.4 655.5,-505.8 673.1,-507.3C674.176,-509.07 675.488,-510.685 677,-512.1Z" style="fill:rgb(224,202,89);fill-rule:nonzero;"/>
        </g>
        <g transform="matrix(0.634179,0,0,0.586188,-36.1594,696.193)">
            <path d="M756.7,-490.3C757.4,-491.5 758.2,-492.7 759,-494.1C758.8,-494.2 758.5,-494.3 758.3,-494.4C746.8,-498.7 732.7,-501.7 717.4,-503.2C717.984,-501.748 718.42,-500.24 718.7,-498.7C732.9,-497.1 745.9,-494.3 756.7,-490.3Z" style="fill:rgb(224,202,89);fill-rule:nonzero;"/>
        </g>
        <g transform="matrix(0.634179,0,0,0.586188,-36.1594,696.193)">
            <path d="M629.4,-494.4C629.3,-494.4 629.3,-494.3 629.2,-494.3C630,-492.9 630.7,-491.7 631.5,-490.5C642.3,-494.4 655.4,-497.2 669.6,-498.7C669.9,-500.247 670.37,-501.756 671,-503.2C655.4,-501.7 641.1,-498.7 629.4,-494.4Z" style="fill:rgb(224,202,89);fill-rule:nonzero;"/>
        </g>
        <g transform="matrix(0.634179,0,0,0.586188,-36.1594,696.193)">
            <path d="M719.2,-490.2C730.04,-489.099 740.733,-486.853 751.1,-483.5L752,-483.2C752.8,-484.3 753.7,-485.5 754.6,-486.9C753.9,-487.1 753.2,-487.4 752.5,-487.6C741.681,-491.111 730.517,-493.458 719.2,-494.6L719.2,-490.2Z" style="fill:rgb(224,202,89);fill-rule:nonzero;"/>
        </g>
        <g transform="matrix(0.634179,0,0,0.586188,-36.1594,696.193)">
            <path d="M669.1,-494.7C657.583,-493.524 646.221,-491.144 635.2,-487.6C634.716,-487.389 634.214,-487.221 633.7,-487.1C634.7,-485.7 635.5,-484.4 636.3,-483.4C636.4,-483.4 636.5,-483.5 636.6,-483.5C647.156,-486.934 658.053,-489.214 669.1,-490.3L669.1,-494.7Z" style="fill:rgb(224,202,89);fill-rule:nonzero;"/>
        </g>
        <g transform="matrix(0.634179,0,0,0.586188,-36.1594,696.193)">
            <path d="M744.9,-476.7C746.334,-477.604 747.704,-478.607 749,-479.7L749.2,-479.9C739.438,-483.005 729.387,-485.115 719.2,-486.2L719.2,-481.8C727.896,-480.834 736.494,-479.128 744.9,-476.7Z" style="fill:rgb(224,202,89);fill-rule:nonzero;"/>
        </g>
        <g transform="matrix(0.634179,0,0,0.586188,-36.1594,696.193)">
            <path d="M639,-480.1C639.1,-480 639.2,-479.8 639.3,-479.7C640.36,-478.582 641.533,-477.577 642.8,-476.7C651.402,-479.18 660.201,-480.92 669.1,-481.9L669.1,-486.3C658.892,-485.197 648.813,-483.121 639,-480.1Z" style="fill:rgb(224,202,89);fill-rule:nonzero;"/>
        </g>
        <g transform="matrix(0.634179,0,0,0.586188,-36.1594,696.193)">
            <path d="M722.8,-474.8L722.8,-452.9C722.851,-438.576 712.108,-426.322 697.9,-424.5L697.9,-434.9C701.098,-435.516 704.09,-436.926 706.6,-439C706.811,-439.224 707.046,-439.425 707.3,-439.6L708.6,-440.9C710.923,-443.465 712.513,-446.609 713.2,-450C713.277,-450.259 713.31,-450.53 713.3,-450.8L713.3,-450.9C713.3,-451.2 713.4,-451.4 713.4,-451.7L713.4,-451.9C713.384,-452.138 713.418,-452.376 713.5,-452.6L713.5,-493.8C713.5,-504.443 704.743,-513.2 694.1,-513.2C683.457,-513.2 674.7,-504.443 674.7,-493.8L674.7,-478.9C677.2,-479.3 679.7,-479.7 682.2,-480L682.2,-493.8C682.2,-493.817 682.2,-493.833 682.2,-493.85C682.2,-500.378 687.572,-505.75 694.1,-505.75C700.609,-505.75 705.973,-500.409 706,-493.9L706,-473.9L674.7,-473.9L674.7,-453.9C674.76,-444.678 681.354,-436.697 690.4,-434.9L690.4,-424.5C676.293,-426.366 665.605,-438.471 665.5,-452.7L665.5,-474.8C662.9,-474.4 660.4,-474 658,-473.6L658,-452.8C658.129,-434.456 672.159,-418.952 690.4,-417L690.4,-405.2C683.3,-405.1 676.3,-404.7 669.5,-404L670.2,-396.5C686.16,-398.1 702.24,-398.1 718.2,-396.5L718.9,-404C712.1,-404.7 705.1,-405.1 698,-405.2L698,-417C716.308,-418.974 730.359,-434.586 730.4,-453L730.4,-473.6C727.8,-474 725.3,-474.4 722.8,-474.8Z" style="fill-rule:nonzero;"/>
        </g>
        <g transform="matrix(0.634179,0,0,0.586188,-35.1447,351.984)">
            <path d="M648.1,53.3L650.9,71.2L654.8,71.3L651.9,52.7L648.1,53.3Z" style="fill-rule:nonzero;"/>
        </g>
        <g transform="matrix(0.634179,0,0,0.586188,-36.1594,696.193)">
            <path d="M671.7,-532.2L671.7,-532.4C671.2,-535.8 667.6,-537.2 660.9,-536.5L660,-536.4L661.9,-517.2L665.9,-517.6L664.8,-525.3C665.25,-525.373 665.687,-525.508 666.1,-525.7L671.5,-516.8L671.6,-516.7L675.6,-517.4L669.2,-527.2C670.971,-528.2 671.963,-530.184 671.7,-532.2ZM668.1,-531.4C668.3,-529.9 667.1,-529 664.5,-528.6L664,-533.5L664.2,-533.5C666.6,-533.8 667.8,-533.1 668.1,-531.6L668.1,-531.4Z" style="fill-rule:nonzero;"/>
        </g>
        <g transform="matrix(0.634179,0,0,0.586188,-35.1447,351.984)">
            <path d="M688.9,62L687.8,59L691.2,49.2L687,49.3L685.9,53.4L684.5,49.3L680.8,49.4L684.2,59.4L683.4,62.2L679.1,49.5L675.3,49.5L681.8,68.3L684.7,68.3L686,64.5L687.2,68.1L690.1,68.2L696.6,49.1L692.5,49.2L688.9,62Z" style="fill-rule:nonzero;"/>
        </g>
        <g transform="matrix(0.634179,0,0,0.586188,-36.1594,696.193)">
            <path d="M710.8,-537.6L707.9,-537.6L703.5,-525.9L701.4,-526L699.9,-523.3L702.5,-523.2L700.9,-519L704.7,-518.8L706.2,-522.9L711.6,-522.6L712.6,-518.4L716.7,-518.2L710.8,-537.4L710.8,-537.6ZM710.7,-525.7L707.1,-525.8L709.2,-531.5L710.7,-525.7Z" style="fill-rule:nonzero;"/>
        </g>
        <g transform="matrix(0.634179,0,0,0.586188,-35.1447,351.984)">
            <path d="M724.9,64.1L722.6,50.9L722.5,50.8L718.8,50.3L722.4,69.8L725.2,70.3L734.5,52.4L730.4,51.9L724.9,64.1Z" style="fill-rule:nonzero;"/>
        </g>
        <g transform="matrix(0.634179,0,0,0.586188,-35.1447,351.984)">
            <path d="M735.5,71.8L746.8,74.1L747.2,71L739.8,69.7L740.9,64.3L745.8,65.6L746.5,62.8L741.4,61.4L742.3,57L749,58L749.3,55.2L739.1,53.1L735.5,71.8Z" style="fill-rule:nonzero;"/>
        </g>
        <g transform="matrix(0.634179,0,0,0.586188,-36.1594,696.193)">
            <path d="M765.7,-527.6C765.5,-527.7 765.2,-527.7 765,-527.8C761.6,-528.7 759.3,-527.8 758.3,-525.2L758.2,-525C757.5,-523 758.3,-520.8 760.5,-518.6C762.5,-516.5 763.4,-514.8 762.9,-513.5C762.9,-513.4 762.8,-513.4 762.8,-513.3C762.12,-512.673 761.109,-512.552 760.3,-513L760.2,-513C758.8,-513.5 758.4,-514.6 758.8,-516.5L758.8,-516.7L755.1,-517L755.1,-516.9C754.5,-513.4 755.8,-511.1 759.1,-510L759.2,-510C760.038,-509.707 760.914,-509.539 761.8,-509.5C763.636,-509.47 765.34,-510.477 766.2,-512.1C766.3,-512.3 766.4,-512.6 766.5,-512.8C767.2,-514.8 766.5,-516.9 764.4,-519C762.2,-521.3 761.2,-522.9 761.4,-523.9C761.4,-524 761.4,-524 761.5,-524.1C761.8,-524.9 762.5,-525.2 763.9,-524.9C764.068,-524.877 764.235,-524.843 764.4,-524.8C765.6,-524.4 766,-523.5 765.7,-521.9L765.7,-521.7L769.3,-521.4L769.3,-521.5C769.9,-524.6 768.6,-526.7 765.7,-527.6Z" style="fill-rule:nonzero;"/>
        </g>
        <g transform="matrix(0.634179,0,0,0.586188,-35.1447,351.984)">
            <path d="M641.1,30.4L637.3,31.1L639.3,40.7L633.4,32.7L629.5,33.2L633.4,50.7L633.5,50.8L637.3,50.2L635.5,41.2L641.1,48.5L641.2,48.6L645.1,48.1L641.1,30.6L641.1,30.4Z" style="fill-rule:nonzero;"/>
        </g>
        <g transform="matrix(0.634179,0,0,0.586188,-35.1447,351.984)">
            <path d="M656.4,43.7L654.2,28.3L650.3,28.5L653,47.1L664.7,45.5L664,42.5L656.4,43.7Z" style="fill-rule:nonzero;"/>
        </g>
        <g transform="matrix(0.634179,0,0,0.586188,-36.1594,696.193)">
            <path d="M683.3,-552.5C682.7,-558.4 680.1,-561.3 675.6,-561L675.5,-561C670.9,-560.7 668.8,-557.4 669.2,-551.2L669.2,-551.1C669.6,-545.4 671.8,-542.5 675.8,-542.5L676.3,-542.5C676.537,-542.491 676.774,-542.525 677,-542.6C681.6,-543.2 683.7,-546.3 683.4,-551.8C683.325,-552.026 683.291,-552.263 683.3,-552.5ZM675.7,-557.9C677.8,-558 679.1,-556.2 679.5,-552.3C679.5,-552 679.6,-551.7 679.6,-551.4C679.8,-548.1 678.9,-546.2 676.7,-545.8C676.5,-545.8 676.4,-545.7 676.2,-545.7C674.2,-545.6 673.1,-547.5 672.8,-551.3L672.8,-551.5C672.6,-555.6 673.6,-557.7 675.7,-557.9Z" style="fill-rule:nonzero;"/>
        </g>
        <g transform="matrix(0.634179,0,0,0.586188,-36.1594,696.193)">
            <path d="M700.7,-549.6C700.3,-547.6 699.3,-546.5 697.6,-546.3L697.1,-546.3C695.1,-546.3 694.1,-548.3 694.1,-552.1L694.1,-552.3C694.1,-556.3 695.2,-558.4 697.3,-558.4L697.4,-558.4C699,-558.4 700.1,-557.3 700.5,-555L700.5,-554.8L704.1,-555.7L704.1,-555.8C703.2,-559.5 701,-561.4 697.4,-561.4L697.3,-561.4C692.7,-561.4 690.4,-558.3 690.3,-552.1L690.3,-552C690.3,-546 692.4,-543 696.8,-542.9L697.5,-542.9C701.2,-543.1 703.4,-545 704.2,-548.6L704.2,-548.8L700.6,-549.6L700.7,-549.6Z" style="fill-rule:nonzero;"/>
        </g>
        <g transform="matrix(0.634179,0,0,0.586188,-35.1447,351.984)">
            <path d="M718,26.7L713.4,33.1L713.8,26.3L713.8,26.1L710.2,25.7L708.6,43.8L708.6,43.9L712.6,44.3L713.2,38.8L717.1,45.3L721.3,45.9L716,36.2L722.3,26.9L718,26.7Z" style="fill-rule:nonzero;"/>
        </g>
        <g transform="matrix(0.634179,0,0,0.586188,-35.1447,351.984)">
            <path d="M726.7,45.8L726.7,45.9L730.5,47.2L733.2,29L733.2,28.8L729.4,28.3L726.7,45.8Z" style="fill-rule:nonzero;"/>
        </g>
        <g transform="matrix(0.634179,0,0,0.586188,-35.1447,351.984)">
            <path d="M748.4,41.2L746.3,31.5L742.5,30.4L739,48.1L742.7,49.1L744.7,40.1L746.9,49.2L750.7,50.4L754.2,32.6L750.5,31.6L748.4,41.2Z" style="fill-rule:nonzero;"/>
        </g>
        <g transform="matrix(0.634179,0,0,0.586188,-36.1594,696.193)">
            <path d="M767.8,-540.7L771.2,-539.5C770.1,-536.3 768.7,-535 767,-535.5L766.9,-535.5C764.9,-536.2 764.4,-538.4 765.4,-542.2L765.7,-543.1C766.8,-546.3 768.3,-547.7 770.5,-547.3C770.712,-547.279 770.918,-547.211 771.1,-547.1C771.803,-546.955 772.355,-546.403 772.5,-545.7L772.5,-545.6L776.1,-545.4L776.1,-545.6C776,-547.7 774.7,-549.1 772.2,-549.9C771.947,-550.013 771.676,-550.081 771.4,-550.1C767,-551.2 763.8,-549.2 762.1,-543.9C761.988,-543.682 761.92,-543.444 761.9,-543.2C760.2,-537.5 761.6,-533.9 765.9,-532.4L766,-532.4C766.616,-532.21 767.256,-532.109 767.9,-532.1C771.2,-532.1 773.8,-535.1 775.7,-541L775.8,-541.2L768.9,-543.2L767.8,-540.7Z" style="fill-rule:nonzero;"/>
        </g>
        <g transform="matrix(0.634179,0,0,0.586188,-36.1594,696.193)">
            <path d="M620.3,-516.7L621.1,-516.5L621,-514.8L626.1,-514.2L625.7,-512.9L620.8,-513.4L620.6,-511.6L619.8,-511.7L620.3,-516.7Z" style="fill-rule:nonzero;"/>
        </g>
        <g transform="matrix(0.634179,0,0,0.586188,-36.1594,696.193)">
            <path d="M624.2,-518.7L627.2,-518.3L627.3,-516.9L624.2,-517.3L624.3,-516.2L623.5,-516.3L623.4,-517.4L620.9,-517.7L620.8,-519.1L623.3,-518.8L623.2,-520.6L620.3,-521L620.2,-522.3L626.4,-521.6L626.5,-520.2L624.1,-520.5L624.2,-518.7Z" style="fill-rule:nonzero;"/>
        </g>
        <g transform="matrix(0.634179,0,0,0.586188,-36.1594,696.193)">
            <path d="M624.3,-525.2L626.2,-525L626.4,-527.8L627.3,-527.8L626.9,-523.6L620.8,-524.1L621.2,-527.9L622,-527.9L621.9,-525.4L623.5,-525.3L623.8,-527.3L624.6,-527.2L624.3,-525.2Z" style="fill-rule:nonzero;"/>
        </g>
        <g transform="matrix(0.634179,0,0,0.586188,-36.1594,696.193)">
            <path d="M775.9,-563.3C752.8,-571.3 726,-575.1 694.1,-575.1C662.2,-575.1 635.5,-571.2 612.3,-563.2C592.3,-556.3 593.8,-537.2 598.5,-522.3C605.7,-499.6 619.3,-474.5 628.7,-466.4C631.3,-464.1 641.4,-460.5 649.5,-457.9L649.5,-463.8C641.5,-466.5 633.9,-469.3 632.4,-470.6C623.8,-478.1 610.7,-502.5 603.8,-524C597.9,-542.4 601.3,-553.4 614.1,-557.8C636.6,-565.6 662.8,-569.4 694,-569.4C725.2,-569.4 751.4,-565.6 773.9,-557.9C786.7,-553.5 790,-542.4 784.2,-524.1C777.4,-502.6 764.3,-478.1 755.7,-470.7C754.2,-469.4 747,-466.7 738.6,-463.8L738.6,-457.9C746.8,-460.6 756.8,-464.2 759.4,-466.4C768.8,-474.6 782.4,-499.7 789.6,-522.4C794.4,-537.3 795.8,-556.4 775.9,-563.3Z" style="fill-rule:nonzero;"/>
        </g>
    </g>
</svg>
