<svg id="uta_logo" xmlns="http://www.w3.org/2000/svg" width="1385" viewBox="0 585 1385 200"><defs><style>.cls-1{opacity:0.05;}.cls-2,.cls-4,.cls-5{fill:#44433b;}.cls-3{opacity:0.25;}.cls-4,.cls-7{opacity:0.5;}.cls-4,.cls-5{isolation:isolate;}.cls-5,.cls-8{opacity:0.75;}.cls-6{fill:#e0ca59;}</style></defs><g class="cls-1"><path class="cls-2" d="M694,676.2c-10.3,0-20.5-.2-30.8-.5s-20.5-1-30.7-1.8c-20.4-1.8-40.8-4.5-61-8.1s-40.2-8.2-60-13.6c-4.9-1.3-9.9-2.8-14.8-4.2s-9.8-2.9-14.7-4.5c-9.7-3.2-19.5-6.5-29.1-10l-7.2-2.6-7.2-2.8c-4.8-1.8-9.5-3.8-14.3-5.7s-9.4-4-14.2-6-9.3-4.3-14-6.4a553.36,553.36,0,0,1-54-29.5A518,518,0,0,1,291.7,545c-2-1.6-4.1-3.1-6-4.8l-5.9-4.9-5.9-4.9c-2-1.6-3.9-3.4-5.8-5.1l-5.8-5.1-5.7-5.2c-3.8-3.5-7.5-7.1-11.1-10.6a609.89,609.89,0,0,1-78.6-94.8c-11.5-17-22.3-34.6-32.2-52.6s-19.1-36.5-27.5-55.2-16.1-37.9-23-57.3l-2.5-7.3-2.5-7.3c-1.6-4.9-3.1-9.8-4.6-14.7s-2.9-9.9-4.3-14.8L68.2,193c-.7-2.5-1.3-5-1.9-7.5L64.4,178l-.9-3.8-.8-3.8c-1.1-5-2.2-10.1-3.3-15.1l-2.8-15.2c-.9-5.1-1.6-10.2-2.4-15.3a577.48,577.48,0,0,1-5.8-61.7A561.9,561.9,0,0,1,57-60.4,567.85,567.85,0,0,1,92.5-179.2a554.3,554.3,0,0,1,27.2-55.9l7.7-13.5,1.9-3.4,2.1-3.3,4.1-6.6c2.8-4.4,5.5-8.8,8.3-13.2l8.9-12.8c5.8-8.6,12.3-16.7,18.6-25l2.4-3.1,1.2-1.5,1.3-1.5,5-5.9,10-11.9c3.4-3.9,7-7.6,10.5-11.5L207-354l2.7-2.9c.9-.9,1.8-1.8,2.8-2.7l11.1-10.9c1.9-1.8,3.7-3.6,5.6-5.4l5.8-5.2a588.48,588.48,0,0,1,100.6-73.3l13.7-7.4c4.6-2.4,9.1-5.1,13.8-7.2l14-6.8,3.5-1.7c1.2-.6,2.3-1.1,3.5-1.6l7.2-3.1,14.3-6.2,1.8-.8,1.8-.7,3.6-1.4,7.3-2.7,7.3-2.7c2.4-.9,4.9-1.9,7.3-2.7,4.9-1.6,9.8-3.3,14.8-4.9a751.36,751.36,0,0,1,121.1-28,869.4,869.4,0,0,1,123.8-8.8,855.11,855.11,0,0,1,123.8,8.9,747.73,747.73,0,0,1,121,28c4.9,1.6,9.8,3.3,14.8,4.9,1.2.4,2.5.8,3.7,1.3l3.7,1.4,7.3,2.7,7.3,2.7c2.4.9,4.9,1.8,7.3,2.8l14.3,6.2,7.2,3.1c2.4,1,4.7,2.2,7,3.4l14,6.8,3.5,1.7c1.2.6,2.3,1.2,3.4,1.8l6.9,3.7,13.7,7.4A583.83,583.83,0,0,1,1153.8-381l5.8,5.2,5.6,5.4,11.1,10.9c.9.9,1.9,1.8,2.8,2.8l2.6,2.9,5.3,5.7,5.3,5.7,2.6,2.9c.9,1,1.8,1.9,2.6,2.9l10,11.9,5,6c.9,1,1.6,2,2.4,3l2.4,3.1c6.3,8.3,12.8,16.4,18.5,25l8.9,12.8,8.3,13.2,4.1,6.6,2.1,3.3,1.9,3.4,7.7,13.5c1.3,2.3,2.6,4.5,3.8,6.8l3.6,6.9c1.2,2.3,2.3,4.6,3.5,6.9s2.3,4.6,3.4,7l3.3,7c1.1,2.3,2.2,4.7,3.2,7.1,2.2,4.7,4.2,9.5,6.2,14.2a598.61,598.61,0,0,1,21,58.5A541.63,541.63,0,0,1,1331.3-60a561.9,561.9,0,0,1,8.6,123.5,582.39,582.39,0,0,1-5.8,61.7c-.8,5.1-1.5,10.2-2.4,15.3l-2.8,15.2-3.3,15.1q-.75,3.75-1.8,7.5l-1.9,7.5c-.6,2.5-1.2,5-1.9,7.5l-2.1,7.4c-1.4,5-2.7,9.9-4.3,14.8s-3,9.9-4.6,14.7-3.3,9.8-5,14.6q-10.35,29.1-23,57.3t-27.5,55.2c-10,18-20.7,35.6-32.3,52.6a620.22,620.22,0,0,1-78.7,94.7c-3.7,3.6-7.3,7.2-11.2,10.6l-5.7,5.2-5.8,5.1c-1.9,1.7-3.8,3.4-5.8,5.1l-5.9,4.9-5.9,4.9-6,4.8a556.58,556.58,0,0,1-50.4,35.5,543.56,543.56,0,0,1-54.1,29.5c-18.6,8.8-37.6,16.5-56.9,23.5-9.6,3.5-19.4,6.8-29.1,10-9.8,3-19.6,6.1-29.5,8.8q-29.7,8.1-60,13.7A683.22,683.22,0,0,1,694,676.2Zm0-1a667.12,667.12,0,0,0,122.2-10.5c20.1-3.7,40.1-8.3,59.8-13.7,9.9-2.7,19.7-5.7,29.4-8.8s19.4-6.5,29-10c19.2-7,38.2-14.8,56.7-23.6a530.73,530.73,0,0,0,53.8-29.6,565,565,0,0,0,50-35.5c2-1.6,4-3.1,6-4.8l5.9-4.9,5.9-4.9c2-1.6,3.8-3.4,5.8-5.1l5.7-5.1,5.6-5.2c3.8-3.5,7.4-7.1,11.1-10.6a598.58,598.58,0,0,0,77.8-94.7c11.4-17,22-34.6,31.8-52.5s18.8-36.4,27-55.1,15.8-37.8,22.5-57.1c1.7-4.8,3.3-9.7,4.9-14.6s3-9.8,4.5-14.7,2.8-9.8,4.2-14.8l2-7.4c.7-2.5,1.2-5,1.8-7.5l1.8-7.5c.6-2.5,1.2-5,1.7-7.5l3.1-15,2.7-15.1c.9-5,1.5-10.1,2.3-15.2a597.41,597.41,0,0,0,5.4-61.1,555.35,555.35,0,0,0-24-181.8,583,583,0,0,0-21.1-57.6c-2.1-4.7-4.1-9.4-6.2-14-1.1-2.3-2.1-4.7-3.2-7l-3.3-6.9c-1.1-2.3-2.3-4.6-3.4-6.9s-2.3-4.6-3.5-6.8l-3.6-6.8c-1.2-2.2-2.5-4.4-3.8-6.7l-7.6-13.3-1.9-3.3c-.7-1.1-1.4-2.2-2.1-3.2l-4.1-6.5-8.3-12.9-8.8-12.5c-5.7-8.5-12.2-16.4-18.4-24.5l-2.4-3-2.4-3-5-5.8-10-11.7a34.46,34.46,0,0,0-2.6-2.8l-2.6-2.8-5.3-5.6-5.3-5.6-2.6-2.8-2.7-2.7-11-10.7-5.5-5.3-5.7-5.1a574.2,574.2,0,0,0-99.3-71.8l-13.5-7.3-6.8-3.6c-1.1-.6-2.2-1.2-3.4-1.8l-3.5-1.7-13.8-6.6c-2.3-1.1-4.6-2.3-6.9-3.3l-7.1-3-14.1-6c-2.3-1.1-4.8-1.9-7.2-2.8l-7.2-2.7-7.2-2.7-3.6-1.3c-1.2-.5-2.4-.9-3.6-1.3-4.9-1.6-9.7-3.3-14.6-4.8a741.81,741.81,0,0,0-119.5-27.5,880.4,880.4,0,0,0-244.8-.1,739.1,739.1,0,0,0-119.5,27.4c-4.9,1.6-9.7,3.2-14.6,4.8-2.4.8-4.8,1.7-7.2,2.6l-7.2,2.7-7.2,2.7-3.6,1.3-1.8.7-1.8.7-14.1,6-7.1,3c-1.2.5-2.3,1-3.5,1.6l-3.5,1.7L367-461c-4.7,2.1-9.1,4.7-13.6,7.1l-13.5,7.3a579,579,0,0,0-99.3,71.7l-5.7,5.1c-1.9,1.8-3.7,3.6-5.5,5.3l-11,10.7-2.7,2.7-2.6,2.8-5.2,5.6c-3.5,3.7-7,7.4-10.5,11.2l-10,11.7-5,5.8-1.2,1.5L180-311l-2.4,3c-6.2,8.1-12.7,16-18.4,24.5L150.4-271c-2.8,4.3-5.5,8.6-8.3,12.9l-4.1,6.5-2.1,3.2-1.9,3.3-7.6,13.3a530,530,0,0,0-27.2,55,552.16,552.16,0,0,0-36,117.3A556.36,556.36,0,0,0,53.8,62.7a592.33,592.33,0,0,0,5.3,61.1c.8,5.1,1.5,10.1,2.3,15.2l2.7,15.1c1,5,2.1,10,3.1,15l.8,3.8.9,3.7,1.8,7.5,1.8,7.5,2,7.4c1.4,4.9,2.6,9.9,4.2,14.8s2.9,9.8,4.5,14.7l2.4,7.3,2.5,7.3c6.7,19.3,14.3,38.4,22.5,57.1s17.2,37.2,27,55.1,20.4,35.5,31.7,52.6,23.5,33.5,36.5,49.4c1.6,2,3.2,4,4.9,5.9l5,5.9c3.3,3.9,6.8,7.7,10.2,11.5s6.9,7.5,10.5,11.2l5.4,5.5,2.7,2.7,2.7,2.7c3.7,3.6,7.3,7.2,11.1,10.6l5.6,5.2,5.7,5.1c1.9,1.7,3.8,3.4,5.8,5.1l5.9,4.9,5.9,4.9c1.9,1.7,4,3.2,6,4.8a546,546,0,0,0,50,35.6A520.17,520.17,0,0,0,397,608.5c18.5,8.8,37.4,16.6,56.7,23.7,9.6,3.5,19.3,6.8,29,10q7.35,2.4,14.7,4.5c4.9,1.4,9.8,2.9,14.8,4.2q29.55,8.1,59.9,13.7c20.1,3.7,40.5,6.4,60.9,8.2,10.2.8,20.4,1.5,30.7,1.9C673.5,675,683.7,675.2,694,675.2Z" transform="translate(-1.6 587.2)"/></g><g class="cls-3"><path class="cls-2" d="M694,584.2c-8.7,0-17.5-.1-26.2-.4s-17.5-.9-26.2-1.5c-17.4-1.4-34.8-3.7-52-6.8s-34.3-6.9-51.2-11.4c-4.2-1.1-8.4-2.3-12.6-3.5s-8.4-2.4-12.6-3.7-8.3-2.7-12.5-4.1-8.3-2.8-12.4-4.3L476,544l-6.1-2.3-6.1-2.5c-4.1-1.6-8.1-3.3-12.1-5.1s-8-3.6-12-5.4a447,447,0,0,1-46.3-24.8,443.53,443.53,0,0,1-43.2-30l-5.2-4-5.1-4.2c-3.4-2.8-6.8-5.6-10-8.5l-4.9-4.3-4.8-4.5-4.8-4.5-4.7-4.6a525.06,525.06,0,0,1-67.2-80.8,620.7,620.7,0,0,1-51.2-91.9c-7.2-16-13.9-32.3-19.9-48.8-3-8.3-5.8-16.6-8.4-25-1.3-4.2-2.7-8.4-3.8-12.6l-1.8-6.4c-.6-2.1-1.2-4.2-1.7-6.4A511.09,511.09,0,0,1,140.6,63.1a473,473,0,0,1,6.8-105.6,480.34,480.34,0,0,1,30.1-101.6,467.19,467.19,0,0,1,23.3-47.7l6.5-11.6c2.3-3.8,4.7-7.5,7-11.3l3.5-5.6,1.8-2.8c.6-.9,1.3-1.8,1.9-2.7l7.6-10.9A463.86,463.86,0,0,1,300-315.9l5-4.4,2.5-2.2c.8-.7,1.7-1.4,2.6-2.1l10.3-8.4c1.7-1.4,3.4-2.8,5.2-4.2l5.4-4,10.7-7.9,1.3-1,1.4-.9,2.8-1.9,5.5-3.7,5.5-3.7,2.8-1.9c.9-.6,1.9-1.2,2.8-1.8l11.4-6.9c1.9-1.1,3.8-2.3,5.7-3.4l5.9-3.2,11.7-6.4c1.9-1.1,4-2,6-3l6-2.9,6-2.9c2-1,4-2,6-2.8l12.3-5.3,6.1-2.6c2.1-.8,4.2-1.6,6.2-2.4l12.5-4.7,3.1-1.2,3.1-1.1,6.3-2.1c4.2-1.4,8.4-2.7,12.7-4a670.2,670.2,0,0,1,103.6-22.9,765.45,765.45,0,0,1,105.8-7.1A781.43,781.43,0,0,1,800-441.7a665.36,665.36,0,0,1,103.6,23c67.9,20.6,131.9,55.5,184.7,103.1a460.19,460.19,0,0,1,70.8,79.3l7.6,10.9c.6.9,1.3,1.8,1.9,2.7l1.8,2.8,3.5,5.6,3.5,5.6,1.8,2.8a27.55,27.55,0,0,1,1.7,2.9l6.5,11.6a447.25,447.25,0,0,1,23.3,47.7,487.32,487.32,0,0,1,17.9,50,460.13,460.13,0,0,1,12.2,51.6,473,473,0,0,1,6.8,105.6,509,509,0,0,1-16.1,104.3c-1.1,4.3-2.3,8.5-3.5,12.7s-2.5,8.4-3.8,12.6c-2.5,8.4-5.4,16.7-8.4,25q-9,24.75-19.9,48.8a612.33,612.33,0,0,1-51.3,91.9,524.93,524.93,0,0,1-67.3,80.7l-4.7,4.6-4.8,4.5c-1.6,1.5-3.2,3-4.8,4.4l-4.9,4.3c-3.3,2.9-6.7,5.7-10,8.5L1043,470l-5.2,4a461.72,461.72,0,0,1-43.2,30,478.43,478.43,0,0,1-46.3,24.8c-15.9,7.4-32.2,13.9-48.6,19.8a620.57,620.57,0,0,1-101.3,27.2A598.59,598.59,0,0,1,694,584.2Zm0-1a579,579,0,0,0,104.3-8.7,617.45,617.45,0,0,0,101-27.3c16.4-5.9,32.6-12.4,48.4-19.9a443.32,443.32,0,0,0,46-24.9,439,439,0,0,0,42.8-30.1l5.1-4,5-4.2c3.3-2.8,6.7-5.6,10-8.5l4.9-4.3,4.8-4.5,4.8-4.5,4.7-4.6a514.38,514.38,0,0,0,66.4-80.8,609.68,609.68,0,0,0,50.3-91.8q10.65-24,19.4-48.6c2.9-8.2,5.7-16.5,8.1-24.9,1.3-4.2,2.6-8.3,3.7-12.6s2.3-8.4,3.4-12.6A508.11,508.11,0,0,0,1242.3,63a466.5,466.5,0,0,0-7.5-104.2A448.1,448.1,0,0,0,1222.3-92a472.46,472.46,0,0,0-18-49.1,433.82,433.82,0,0,0-23.3-46.8l-6.5-11.4a26.06,26.06,0,0,0-1.7-2.8l-1.8-2.8-3.5-5.5-3.5-5.5-1.8-2.8c-.6-.9-1.2-1.8-1.9-2.7l-7.5-10.7c-1.3-1.8-2.5-3.6-3.8-5.3l-4-5.2-8-10.3c-1.3-1.8-2.8-3.4-4.2-5l-4.3-5-4.3-5c-1.4-1.7-2.8-3.3-4.3-4.9l-9-9.5-4.5-4.8-4.7-4.6-9.4-9.1c-1.5-1.6-3.2-2.9-4.8-4.4l-4.9-4.3-4.9-4.3c-1.6-1.4-3.2-2.9-5-4.2l-10.2-8.2-5.1-4.1-5.3-3.9-10.6-7.7c-1.7-1.3-3.6-2.5-5.4-3.7l-5.5-3.6-5.5-3.6c-1.8-1.2-3.6-2.4-5.5-3.5l-11.2-6.7-5.6-3.4-5.8-3.1-11.5-6.2c-1.9-1.1-3.9-2-5.8-2.9l-5.9-2.8-5.9-2.8c-2-.9-3.9-1.9-5.9-2.8l-12-5.1c-16.1-6.7-32.6-12.5-49.3-17.6a660.93,660.93,0,0,0-102.2-22.5,793.26,793.26,0,0,0-208.8,0,660.67,660.67,0,0,0-102.2,22.4c-16.7,5.1-33.2,10.9-49.3,17.6l-12,5.1c-2,.8-4,1.8-5.9,2.7l-5.9,2.8-5.9,2.8c-2,1-4,1.8-5.9,2.9l-11.5,6.2-5.8,3.1c-1.9,1.1-3.7,2.2-5.6,3.3l-11.2,6.7c-.9.6-1.9,1.1-2.8,1.7l-2.7,1.8-5.5,3.6-5.5,3.6-2.7,1.8-1.4.9-1.3,1L336-334.5l-5.3,3.9c-1.7,1.3-3.4,2.7-5.1,4.1l-10.2,8.2c-.8.7-1.7,1.3-2.5,2.1l-2.4,2.2-4.9,4.3a464.72,464.72,0,0,0-70.2,77.4l-7.5,10.7c-.6.9-1.3,1.8-1.9,2.7l-1.8,2.8-3.5,5.5c-2.3,3.7-4.7,7.3-7,11.1l-6.5,11.4a433.82,433.82,0,0,0-23.3,46.8,472.54,472.54,0,0,0-30.5,99.9,466.57,466.57,0,0,0-7.6,104.2,508,508,0,0,0,15.1,103.4c.5,2.1,1.1,4.2,1.7,6.3l1.7,6.3c1.1,4.2,2.4,8.4,3.7,12.6q3.75,12.6,8.1,24.9,8.7,24.75,19.4,48.6a610,610,0,0,0,50.2,91.8A513.76,513.76,0,0,0,312,437.5l4.7,4.6,4.8,4.5,4.8,4.5,4.9,4.3c3.2,2.9,6.6,5.7,9.9,8.5l5,4.2,5.1,4A470.41,470.41,0,0,0,394,502.2a443.32,443.32,0,0,0,46,24.9c15.8,7.4,32,14,48.4,19.9,4.1,1.5,8.2,2.9,12.4,4.3s8.3,2.8,12.4,4.1,8.3,2.5,12.5,3.8,8.4,2.5,12.6,3.5q25.35,6.9,51.1,11.5t51.9,6.9c8.7.7,17.4,1.3,26.1,1.6C676.5,583,685.2,583.2,694,583.2Z" transform="translate(-1.6 587.2)"/></g><path class="cls-4" d="M694,492.2c-7.2,0-14.5-.1-21.7-.3s-14.5-.7-21.7-1.2c-14.4-1.1-28.8-3-43.1-5.5s-28.4-5.6-42.4-9.2c-7-1.8-14-3.8-20.9-5.9-3.5-1-6.9-2.2-10.3-3.3s-6.9-2.3-10.3-3.5-6.8-2.4-10.2-3.7-6.8-2.5-10.1-3.9-6.7-2.7-10.1-4.1l-5-2.1c-1.7-.7-3.3-1.5-5-2.2a382.07,382.07,0,0,1-38.6-20.1,351,351,0,0,1-36-24.5c-2.9-2.2-5.8-4.4-8.5-6.8l-4.2-3.5c-1.4-1.2-2.8-2.3-4.2-3.5-2.7-2.4-5.5-4.8-8.1-7.3l-4-3.7-3.9-3.8a407.76,407.76,0,0,1-29.6-32q-14-16.8-26.2-34.8a529.32,529.32,0,0,1-42.6-76c-6.1-13.2-11.7-26.6-16.8-40.3-2.5-6.8-5-13.7-7.2-20.6L250,160l-3-10.5a427.17,427.17,0,0,1-14.3-86.4A383.83,383.83,0,0,1,262.5-109c2.8-6.8,5.9-13.5,9.1-20.1s6.7-13.1,10.3-19.5l2.7-4.8c.9-1.6,1.8-3.2,2.8-4.8l5.9-9.4,2.9-4.7,3.1-4.5,6.3-9.1A387.66,387.66,0,0,1,365.2-251l2.1-1.8,2.1-1.7,4.3-3.5,4.3-3.5,2.1-1.7a18.39,18.39,0,0,1,2.2-1.7l8.9-6.6,4.5-3.3,4.6-3.1,9.2-6.2a45.69,45.69,0,0,1,4.7-2.9l4.7-2.9,4.7-2.9,2.4-1.4,2.4-1.3,9.7-5.3c1.6-.9,3.2-1.8,4.9-2.6l5-2.4,10-4.8c3.4-1.5,6.8-2.9,10.2-4.4s6.8-3,10.2-4.2c6.9-2.6,13.8-5.4,20.8-7.6l5.2-1.7,5.3-1.6c3.5-1.1,7-2.2,10.6-3.2a576.12,576.12,0,0,1,86.2-17.9,683.47,683.47,0,0,1,175.4.1,564.13,564.13,0,0,1,86.2,18c3.5,1,7,2.1,10.6,3.2l5.3,1.6,5.2,1.8,5.2,1.8c1.7.6,3.5,1.3,5.2,1.9l10.4,3.9,2.6,1a18.89,18.89,0,0,1,2.5,1.1l5.1,2.2c3.4,1.5,6.8,2.9,10.2,4.4l10,4.8,5,2.4c1.7.8,3.3,1.7,4.9,2.6l9.7,5.3c1.6.9,3.2,1.8,4.8,2.8l4.7,2.9,4.7,2.9c1.6,1,3.2,1.9,4.7,2.9l9.2,6.2c1.5,1,3.1,2,4.6,3.1l4.5,3.3,8.9,6.6c2.9,2.3,5.7,4.6,8.6,7l4.3,3.5,2.1,1.8,2.1,1.8c5.5,4.9,11.1,9.7,16.3,15,2.6,2.6,5.3,5.2,7.9,7.8l7.5,8.1,3.7,4.1c1.3,1.4,2.4,2.8,3.6,4.2l7.1,8.5,1.8,2.1,1.7,2.2,3.4,4.4,3.4,4.4c1.1,1.5,2.3,2.9,3.3,4.4l6.3,9.1,3.1,4.6,2.9,4.7,5.9,9.4c1.9,3.2,3.6,6.4,5.5,9.6a371.81,371.81,0,0,1,19.4,39.6,389.26,389.26,0,0,1,24.8,84.4,383.93,383.93,0,0,1,5,87.6,428.33,428.33,0,0,1-14.3,86.4,535.49,535.49,0,0,1-30.2,81.9,529.92,529.92,0,0,1-42.7,76q-12.3,18-26.2,34.8a426.36,426.36,0,0,1-29.6,32l-3.9,3.8-4,3.7c-2.6,2.5-5.4,4.8-8.1,7.3-5.5,4.7-11.1,9.4-16.9,13.8a367.81,367.81,0,0,1-36,24.5,403.69,403.69,0,0,1-38.6,20.1c-6.6,3-13.3,5.8-20,8.4-3.4,1.3-6.8,2.6-10.1,3.9s-6.8,2.5-10.2,3.7c-13.7,4.8-27.5,9.1-41.5,12.8s-28.2,6.8-42.5,9.2A622.61,622.61,0,0,1,694,492.2Zm0-1a499.13,499.13,0,0,0,86.3-7c14.2-2.5,28.4-5.6,42.3-9.3s27.8-8.1,41.4-12.9c27.3-9.5,53.8-21.3,78.5-36.3a381.88,381.88,0,0,0,35.7-24.5c5.7-4.4,11.2-9.1,16.7-13.8,2.7-2.4,5.4-4.8,8-7.3l4-3.7,3.9-3.8a418.79,418.79,0,0,0,54.9-66.8,517.77,517.77,0,0,0,41.7-75.9,527.71,527.71,0,0,0,29.2-81.5A411.56,411.56,0,0,0,1149.9,63a377.94,377.94,0,0,0-30.8-168.9,377.84,377.84,0,0,0-19.4-38.7c-1.8-3.1-3.5-6.3-5.4-9.4l-5.8-9.1-2.9-4.6-3.1-4.4-6.2-8.8c-1-1.5-2.2-2.9-3.3-4.3l-3.3-4.3-3.3-4.3-1.7-2.1c-.6-.7-1.2-1.4-1.7-2.1l-7-8.2c-1.2-1.4-2.3-2.8-3.6-4.1l-3.7-3.9-7.4-7.9-7.8-7.5c-5.1-5.1-10.6-9.8-16-14.6l-2-1.8c-.7-.6-1.4-1.1-2.1-1.7l-4.2-3.4c-2.8-2.2-5.6-4.6-8.5-6.7l-8.7-6.4-4.4-3.2-4.5-3-9-6c-1.5-1-3.1-1.9-4.6-2.8l-4.6-2.8-4.6-2.8c-1.5-.9-3.1-1.9-4.7-2.7l-9.5-5.1c-25.5-13.6-52.7-23.6-80.4-31.6a554.81,554.81,0,0,0-84.8-17.5,674.88,674.88,0,0,0-86.4-5.4,692.25,692.25,0,0,0-86.4,5.3,572,572,0,0,0-84.8,17.4c-3.5,1-6.9,2-10.4,3.1l-5.2,1.6-5.1,1.7c-6.9,2.2-13.6,4.8-20.4,7.3-3.4,1.2-6.7,2.7-10,4.1s-6.7,2.8-10,4.2l-9.8,4.7-4.9,2.3c-1.6.8-3.2,1.7-4.8,2.5l-9.5,5.1-2.4,1.3-2.3,1.4-4.6,2.8-4.6,2.8c-1.5.9-3.1,1.8-4.6,2.8l-9,6-4.5,3-4.4,3.2-8.7,6.4c-.7.5-1.5,1.1-2.1,1.6l-2.1,1.7-4.2,3.4-4.2,3.4-2.1,1.7-2,1.8c-5.4,4.8-10.9,9.4-16,14.6l-7.8,7.5-7.4,7.9-3.7,3.9c-1.3,1.3-2.4,2.7-3.6,4.1l-7,8.2-1.8,2.1-1.7,2.1-3.3,4.3-3.3,4.3c-1.1,1.4-2.3,2.8-3.3,4.3l-6.2,8.8-3.1,4.4-2.9,4.6-5.8,9.1c-1,1.5-1.8,3.1-2.8,4.7l-2.7,4.7c-3.6,6.2-7.1,12.6-10.3,19s-6.3,13-9.1,19.6a378.9,378.9,0,0,0-31,168.9,419.29,419.29,0,0,0,13.3,85.5,513.9,513.9,0,0,0,29.2,81.5,523,523,0,0,0,41.7,75.9,424,424,0,0,0,54.9,66.9l3.9,3.8,4,3.7c2.6,2.5,5.3,4.9,8,7.3,1.3,1.2,2.7,2.4,4.1,3.5l4.1,3.5c2.7,2.4,5.6,4.5,8.4,6.8a364.55,364.55,0,0,0,35.7,24.6c24.7,15,51.2,26.8,78.5,36.3,3.4,1.2,6.8,2.4,10.3,3.5s6.8,2.3,10.3,3.4c6.9,2,13.9,4.1,20.9,5.9q21,5.55,42.3,9.3c14.2,2.5,28.6,4.4,43,5.5,7.2.6,14.4,1,21.6,1.3C679.5,491,686.8,491.2,694,491.2Z" transform="translate(-1.6 587.2)"/><path class="cls-5" d="M694,400.1a403,403,0,0,1-68.5-5.3A425.68,425.68,0,0,1,558.8,378c-2.7-.9-5.4-1.9-8.1-2.8l-8.1-3c-2.7-1-5.3-2.1-8-3.1s-5.3-2.2-8-3.3a294.87,294.87,0,0,1-30.8-15.4A271.29,271.29,0,0,1,440.7,309a330.37,330.37,0,0,1-23.5-25.3c-7.4-8.9-14.3-18.1-20.8-27.6A428.45,428.45,0,0,1,362.3,196a450.68,450.68,0,0,1-24.8-64.6A329.71,329.71,0,0,1,325,63,294.94,294.94,0,0,1,347.5-73.9c2.3-5.4,4.7-10.7,7.3-16,1.3-2.6,2.6-5.2,4-7.8l4.3-7.7,2.2-3.8,2.3-3.7,4.7-7.5c1.6-2.5,3.3-4.8,5-7.3s3.3-4.9,5.1-7.2a288.78,288.78,0,0,1,48.4-51l6.8-5.6,7.1-5.3,3.5-2.6c1.2-.9,2.4-1.7,3.6-2.5l7.3-4.9c2.5-1.6,5-3.1,7.5-4.6s5-3.1,7.6-4.5l7.7-4.2,1.9-1.1,2-1,4-1.9a319.21,319.21,0,0,1,32.5-13.7c11-3.9,22.2-7.3,33.5-10.3,45.1-12,91.9-17.1,138.3-17.1,11.6.1,23.2.4,34.8,1s23.2,1.7,34.8,3.1,23.1,3.2,34.5,5.3,22.8,4.7,34.1,7.8,22.4,6.5,33.4,10.4l8.3,3.1,4.1,1.6c1.4.6,2.7,1.2,4.1,1.7l8.1,3.5c2.7,1.2,5.3,2.6,8,3.8,5.3,2.5,10.5,5.4,15.6,8.2l1.9,1.1a18.58,18.58,0,0,0,1.9,1.1l3.8,2.3,3.8,2.3c1.3.8,2.5,1.5,3.7,2.3l7.3,4.9c1.2.8,2.5,1.6,3.6,2.5l3.5,2.6,7.1,5.3,6.8,5.6,3.4,2.8L964-180l6.6,5.9c2.1,2,4.2,4.1,6.3,6.2s4.2,4.1,6.2,6.3l6,6.5c1,1.1,1.9,2.2,2.9,3.3l2.8,3.4,2.8,3.4,1.4,1.7,1.3,1.8,5.3,7c1.8,2.3,3.4,4.8,5.1,7.2s3.4,4.8,5,7.3l4.6,7.5c.8,1.2,1.6,2.5,2.3,3.7l2.1,3.8,4.3,7.7c1.4,2.6,2.7,5.2,4,7.8,2.6,5.2,5,10.6,7.3,16a292,292,0,0,1,19.4,67.2,301.29,301.29,0,0,1,3.1,69.7,329.71,329.71,0,0,1-12.5,68.4,441.78,441.78,0,0,1-24.8,64.6,418.24,418.24,0,0,1-34.2,60c-6.5,9.5-13.5,18.7-20.9,27.6a330.37,330.37,0,0,1-23.5,25.3,274.54,274.54,0,0,1-55.1,41.3,295.64,295.64,0,0,1-30.9,15.3c-10.6,4.5-21.3,8.5-32.2,12.2A412.53,412.53,0,0,1,762,395,403.39,403.39,0,0,1,694,400.1Zm0-1a421.23,421.23,0,0,0,68.3-5.3,419.91,419.91,0,0,0,66.4-17c10.8-3.7,21.5-7.8,32-12.3A292.59,292.59,0,0,0,891.3,349a274.34,274.34,0,0,0,54.4-41.4,306.39,306.39,0,0,0,23.1-25.3c7.2-8.8,14-18.1,20.4-27.6a427.61,427.61,0,0,0,33.2-60,435.33,435.33,0,0,0,23.8-64.3,322.07,322.07,0,0,0,11.5-67.5,287.46,287.46,0,0,0-23.6-133.7c-2.3-5.2-4.7-10.4-7.3-15.5-1.3-2.6-2.6-5.1-4-7.6l-4.3-7.4-2.1-3.7c-.7-1.2-1.5-2.4-2.3-3.6l-4.6-7.2c-1.6-2.4-3.3-4.7-4.9-7s-3.2-4.7-5-6.9l-5.3-6.8-1.3-1.7-1.4-1.6-2.8-3.3-2.8-3.3c-.9-1.1-1.8-2.2-2.8-3.2l-5.9-6.2c-1.9-2.1-4-4.1-6-6.1s-4.1-4-6.2-5.9l-6.4-5.7-3.2-2.8-3.3-2.7-6.7-5.4-6.9-5.1-3.5-2.5c-1.1-.8-2.4-1.6-3.6-2.4l-7.1-4.7c-1.2-.8-2.4-1.5-3.6-2.2l-3.7-2.2-3.7-2.2c-.6-.4-1.2-.7-1.8-1.1l-1.9-1c-5-2.7-10-5.5-15.2-7.9-2.6-1.2-5.1-2.5-7.7-3.7l-7.9-3.3c-1.3-.6-2.6-1.1-3.9-1.7l-4-1.5-8-3c-10.8-3.7-21.8-7-32.8-10s-22.2-5.4-33.4-7.5-22.5-3.8-33.9-5.1-22.8-2.3-34.2-2.9-22.9-.9-34.3-.9-22.9.3-34.3.9-22.8,1.6-34.2,2.9-22.7,3.1-33.9,5.1c-2.8.6-5.6,1-8.4,1.6l-8.4,1.8-8.3,2c-2.8.6-5.5,1.4-8.3,2.1-11.1,2.9-22,6.2-32.8,9.9a300.29,300.29,0,0,0-31.6,13.1l-3.9,1.9-1.9.9-1.9,1L479-208c-2.5,1.3-5,2.8-7.4,4.3s-4.9,2.9-7.3,4.4l-7.1,4.7-3.6,2.4-3.5,2.5-6.9,5.1-6.7,5.4A286.72,286.72,0,0,0,389-130.1c-1.8,2.2-3.4,4.6-5.1,6.9s-3.3,4.6-4.9,7l-4.6,7.2-2.3,3.6-2.1,3.7-4.3,7.4c-1.4,2.5-2.7,5-4,7.6-2.6,5.1-5,10.3-7.3,15.5A282.17,282.17,0,0,0,334.6-5.8a294.87,294.87,0,0,0-3.9,68.3A328.54,328.54,0,0,0,342.1,130c.7,2.8,1.6,5.5,2.4,8.2s1.7,5.5,2.6,8.2q2.7,8.1,5.7,16.2c4,10.7,8.4,21.3,13.1,31.7a437.41,437.41,0,0,0,33.1,60c6.3,9.5,13.1,18.7,20.3,27.6a306.39,306.39,0,0,0,23.1,25.3,271.07,271.07,0,0,0,54.4,41.5,292.59,292.59,0,0,0,30.6,15.5c10.5,4.6,21.2,8.6,32,12.4a422.4,422.4,0,0,0,66.4,16.9A379,379,0,0,0,694,399.1Z" transform="translate(-1.6 587.2)"/><path class="cls-2" d="M694,308.1a307,307,0,0,1-50.6-3.7c-8.4-1.3-16.7-3-24.9-4.9s-16.4-4.1-24.5-6.8c-4-1.3-8-2.7-12-4.1-2-.7-4-1.4-6-2.2s-4-1.5-5.9-2.3A218.83,218.83,0,0,1,547,273.5a185.46,185.46,0,0,1-41.3-29.8,245.34,245.34,0,0,1-32.9-39,340.16,340.16,0,0,1-25.5-44.2c-3.7-7.7-7.2-15.4-10.4-23.3-1.6-3.9-3.2-7.9-4.6-11.9-.7-2-1.5-4-2.2-6l-1-3-.9-3.1a239.93,239.93,0,0,1-10.8-50.3C414,28.6,418.9-6.9,432.6-39a202.39,202.39,0,0,1,64-81.7c1.8-1.3,3.5-2.6,5.3-3.9l5.5-3.7a65.35,65.35,0,0,1,5.6-3.5c1.9-1.1,3.7-2.3,5.6-3.4,3.9-2.1,7.7-4.3,11.6-6.1l3-1.4c1-.5,2-1,3-1.4l6-2.6,1.5-.7,1.5-.6,3.1-1.2c2-.8,4.1-1.6,6.2-2.3l6.1-2.1,6.2-2c8.3-2.6,16.6-4.8,25-6.7,33.7-7.8,68.2-11,102.5-11.1,34.3.1,68.8,3.3,102.5,11.1,8.4,1.9,16.8,4.2,25,6.8l6.2,2,6.1,2.1c2,.7,4.1,1.5,6.2,2.3s4.1,1.5,6.1,2.4l6,2.6c2,.9,4,1.9,5.9,2.8,4,1.9,7.8,4.1,11.6,6.2,1.9,1.1,3.8,2.3,5.6,3.4l2.8,1.7,2.7,1.8,5.5,3.7,5.3,3.9a202.33,202.33,0,0,1,63.8,81.9c13.7,32.1,18.6,67.5,15.2,101.9A237.24,237.24,0,0,1,960,113.5l-.9,3.1-1,3c-.7,2-1.4,4-2.2,6-1.5,4-3,8-4.6,11.9-3.2,7.9-6.7,15.7-10.4,23.3a339.66,339.66,0,0,1-25.6,44.1,249.75,249.75,0,0,1-33,38.9,205.29,205.29,0,0,1-19.7,16.3,173.52,173.52,0,0,1-21.7,13.4A219.67,219.67,0,0,1,817.7,284c-7.9,3.1-15.9,5.9-23.9,8.5s-16.2,4.9-24.4,6.9-16.5,3.6-24.9,4.9-16.8,2.2-25.2,2.8A237.79,237.79,0,0,1,694,308.1Zm0-1c8.4,0,16.9-.2,25.3-.8s16.8-1.5,25.1-2.8,16.6-3,24.8-4.9,16.3-4.3,24.3-6.9c16-5.3,31.8-11.3,46.6-19.3a182,182,0,0,0,21.3-13.5,186.94,186.94,0,0,0,19.3-16.3,239.75,239.75,0,0,0,32.1-38.9,333.21,333.21,0,0,0,24.6-44.1c3.6-7.6,6.9-15.4,9.9-23.2,1.5-3.9,3-7.9,4.4-11.8.7-2,1.4-4,2-6l1-3,.9-3a232.45,232.45,0,0,0,9.8-49.4c2.8-33.5-2.5-67.8-16.3-98.5a195.87,195.87,0,0,0-62.4-77.8l-5.1-3.7-5.3-3.5c-.9-.6-1.7-1.2-2.6-1.7l-2.7-1.6c-1.8-1.1-3.6-2.2-5.4-3.2-3.7-2-7.4-4.1-11.2-5.8-1.9-.9-3.8-1.9-5.7-2.7l-5.8-2.5c-1.9-.9-3.9-1.5-5.9-2.3s-3.9-1.5-5.9-2.1l-6-2-6-1.9c-8.1-2.4-16.2-4.6-24.4-6.4C761.8-160,728.1-163,694.4-163s-67.5,3-100.3,10.4c-8.2,1.8-16.4,4-24.4,6.4s-16,5.1-23.8,8.2l-5.8,2.5c-1,.4-1.9.8-2.9,1.3l-2.8,1.4c-3.8,1.7-7.5,3.8-11.2,5.8-1.9,1-3.6,2.1-5.4,3.2s-3.6,2.1-5.4,3.3l-5.3,3.5c-1.7,1.2-3.4,2.5-5.1,3.7l-2.5,1.9-2.5,2-4.9,4-4.7,4.2c-.8.7-1.6,1.4-2.3,2.1l-2.3,2.2a187.48,187.48,0,0,0-17,18.6l-3.9,5c-1.3,1.7-2.5,3.4-3.7,5.1-2.5,3.4-4.7,7-6.9,10.5-1.1,1.8-2.1,3.6-3.2,5.5l-1.6,2.7c-.5.9-1,1.9-1.5,2.8-2,3.7-3.7,7.5-5.5,11.3-13.8,30.7-19.2,65-16.4,98.5a238.28,238.28,0,0,0,9.7,49.5l.9,3,1,3c.7,2,1.3,4,2,6,1.4,4,2.9,7.9,4.4,11.9,3.1,7.9,6.4,15.6,9.9,23.2a333.21,333.21,0,0,0,24.6,44.1,239,239,0,0,0,32,39,184.85,184.85,0,0,0,40.5,29.8c14.8,8,30.6,14.1,46.6,19.3,8,2.6,16.1,4.8,24.3,6.8s16.5,3.7,24.8,5A348.93,348.93,0,0,0,694,307.1Z" transform="translate(-1.6 587.2)"/><path class="cls-2" d="M694,216.1a222.11,222.11,0,0,1-32.6-2,233.52,233.52,0,0,1-32-6.8l-3.9-1.1-3.9-1.2c-2.6-.8-5.2-1.7-7.8-2.6-5.2-1.8-10.3-3.7-15.3-5.9a119.05,119.05,0,0,1-14.6-7.6,93.08,93.08,0,0,1-13.1-10.1,155.13,155.13,0,0,1-21.5-25,251.7,251.7,0,0,1-16.9-28.3,300.45,300.45,0,0,1-13.5-30.1c-1-2.6-1.9-5.2-2.8-7.8s-1.7-5.3-2.5-8-1.5-5.4-2.1-8.1l-.9-4.1c-.3-1.4-.6-2.7-.8-4.1-.4-2.8-.9-5.6-1.1-8.4l-.4-4.2-.2-4.2a80.33,80.33,0,0,1,0-8.5c0-1.4.2-2.8.2-4.3s.2-2.8.4-4.3a111,111,0,0,1,8.8-33.2A97.3,97.3,0,0,1,525.8-19a107.66,107.66,0,0,1,10.6-13.8,110,110,0,0,1,27-21.9,126.24,126.24,0,0,1,15.7-7.6c1.4-.5,2.7-1.1,4.1-1.5l4-1.4c2.6-.9,5.3-1.7,8-2.6a262.31,262.31,0,0,1,32.6-7.9,393,393,0,0,1,132.8.1c5.5,1,11,2.1,16.4,3.5s10.8,2.8,16.2,4.5c2.7.9,5.3,1.7,8,2.6l4,1.4,4.1,1.6A133.45,133.45,0,0,1,825-54.4l3.7,2.3c1.2.7,2.4,1.6,3.6,2.4s2.4,1.7,3.5,2.6,2.3,1.7,3.4,2.7a119.13,119.13,0,0,1,12.6,12,100.42,100.42,0,0,1,10.5,13.8,112.51,112.51,0,0,1,8.2,15.3A116.52,116.52,0,0,1,876.2,13a122.41,122.41,0,0,1,3.1,16.9,128.18,128.18,0,0,1-1.1,33.9c-.2,1.4-.5,2.8-.8,4.1l-.8,4.1c-.6,2.7-1.4,5.4-2.1,8.1s-1.7,5.3-2.5,8-1.8,5.2-2.8,7.8A279.38,279.38,0,0,1,855.7,126a236.33,236.33,0,0,1-16.9,28.2,146.29,146.29,0,0,1-21.6,24.9,96.56,96.56,0,0,1-13.1,10,119.05,119.05,0,0,1-14.6,7.6,305.38,305.38,0,0,1-30.9,10.8,219.22,219.22,0,0,1-32,6.7A222,222,0,0,1,694,216.1Zm0-1a250.53,250.53,0,0,0,32.4-2,203.72,203.72,0,0,0,31.7-6.9c5.2-1.5,10.3-3.3,15.4-5.1s10.2-3.8,15.1-6a97.46,97.46,0,0,0,14.2-7.7,87.31,87.31,0,0,0,12.7-10,140.62,140.62,0,0,0,20.6-24.9,237.66,237.66,0,0,0,16-28.2,291.76,291.76,0,0,0,12.5-30c.9-2.6,1.8-5.1,2.6-7.7s1.5-5.2,2.2-7.8,1.3-5.3,1.8-7.9l.7-4c.2-1.3.5-2.7.6-4a120.48,120.48,0,0,0,.3-32.3,105.55,105.55,0,0,0-3.3-15.8A101.79,101.79,0,0,0,863.8-.3c-9-19.6-24.7-35.9-43.4-46.5a113.73,113.73,0,0,0-14.6-6.8L802-55l-3.9-1.3c-2.6-.9-5.2-1.6-7.8-2.4A314.16,314.16,0,0,0,758.7-66,378.2,378.2,0,0,0,694-71.2a388.5,388.5,0,0,0-64.7,5.1,308,308,0,0,0-31.6,7.3c-2.6.8-5.2,1.5-7.8,2.4L586-55.1c-1.3.4-2.5.9-3.8,1.4a113.73,113.73,0,0,0-14.6,6.8,103.22,103.22,0,0,0-52.5,77.3c-.2,1.3-.3,2.7-.4,4s-.3,2.7-.3,4c-.1,2.7-.3,5.4-.2,8.1l.1,4,.3,4c.1,2.7.5,5.4.8,8.1.1,1.3.4,2.7.6,4l.7,4c.5,2.7,1.2,5.3,1.8,7.9s1.5,5.2,2.2,7.8,1.7,5.2,2.5,7.7a301.34,301.34,0,0,0,12.5,30,238.93,238.93,0,0,0,16,28.3,141.29,141.29,0,0,0,20.6,25,82.24,82.24,0,0,0,12.7,10,97.46,97.46,0,0,0,14.2,7.7c4.9,2.2,10,4.2,15.1,6,2.6.9,5.1,1.8,7.7,2.7,1.3.4,2.6.9,3.9,1.3l3.9,1.1a229.67,229.67,0,0,0,31.7,6.9A220.84,220.84,0,0,0,694,215.1Z" transform="translate(-1.6 587.2)"/><g class="cls-1"><path class="cls-6" d="M694,722.2q-16.5,0-33-.6c-11-.4-22-1.1-33-2-21.9-1.9-43.8-4.8-65.4-8.8s-43.1-8.9-64.4-14.7l-15.9-4.5c-2.6-.7-5.3-1.6-7.9-2.3s-5.2-1.7-7.9-2.5c-5.2-1.8-10.5-3.4-15.7-5.3l-7.8-2.7-7.8-2.8c-10.4-3.7-20.6-7.8-30.8-12-5.1-2.1-10.1-4.3-15.2-6.5l-15-6.9a580.9,580.9,0,0,1-57.9-31.8,597.85,597.85,0,0,1-54-38.2c-4.4-3.3-8.6-6.9-12.8-10.4l-6.4-5.3c-2.1-1.8-4.1-3.6-6.2-5.4s-4.2-3.6-6.2-5.5l-6.1-5.6c-4.1-3.7-8-7.6-12-11.4a668.38,668.38,0,0,1-84.4-101.7q-18.6-27.45-34.5-56.5C83,359.5,73.3,339.6,64.3,319.5S47.1,278.8,39.8,258c-1.8-5.2-3.6-10.5-5.3-15.7l-4.9-15.8-1.2-4-1.1-4-2.2-8-2.2-8-2-8.1A638.84,638.84,0,0,1,2,63.1,615.27,615.27,0,0,1,11.6-69.7,609,609,0,0,1,49.8-197.1a637.73,637.73,0,0,1,29.1-60,601,601,0,0,1,35.3-56.6,607.76,607.76,0,0,1,88-100.2,652.65,652.65,0,0,1,51.6-42.4,639,639,0,0,1,55.9-36.6,629.89,629.89,0,0,1,59.6-30.4,620.32,620.32,0,0,1,62.4-23.8,792,792,0,0,1,129.8-30.5,895,895,0,0,1,132.8-9.6,908.79,908.79,0,0,1,132.8,9.7,799.06,799.06,0,0,1,129.7,30.6c5.3,1.8,10.6,3.5,15.8,5.3l7.9,2.8,3.9,1.4,3.9,1.5c5.2,2,10.4,4,15.5,6.2l7.7,3.2,7.6,3.4a616.4,616.4,0,0,1,59.5,30.4,624.3,624.3,0,0,1,55.9,36.6,618.26,618.26,0,0,1,51.6,42.4c8.3,7.5,16.2,15.3,24,23.2,3.9,4,7.7,8.1,11.5,12.1l5.6,6.2c1.9,2.1,3.7,4.1,5.5,6.2a651.46,651.46,0,0,1,41.2,52.5,628.12,628.12,0,0,1,64.2,116.7,632.32,632.32,0,0,1,22.5,62.7,605.06,605.06,0,0,1,25.1,197.2,638.84,638.84,0,0,1-18.9,131.3l-2,8.1-2.2,8-2.2,8-1.1,4-1.2,4-4.9,15.8-2.6,7.9-2.7,7.8c-7.3,20.8-15.6,41.4-24.6,61.5s-18.8,40-29.5,59.3-22.2,38.2-34.6,56.5A668.38,668.38,0,0,1,1174.8,537c-4,3.8-7.9,7.7-12,11.4l-6.1,5.6c-2,1.8-4.1,3.7-6.2,5.5s-4.1,3.7-6.2,5.4l-6.3,5.3c-4.2,3.5-8.4,7.1-12.8,10.4a584.06,584.06,0,0,1-54,38.2,580.9,580.9,0,0,1-57.9,31.8l-15,6.9c-5.1,2.2-10.1,4.4-15.2,6.5-10.2,4.2-20.4,8.3-30.8,12s-20.8,7.3-31.2,10.7l-3.9,1.3-3.9,1.2-7.9,2.4c-5.3,1.7-10.6,3.1-15.9,4.6-21.2,5.9-42.7,10.9-64.4,14.8a655.6,655.6,0,0,1-65.5,8.6l-8.2.6c-2.7.2-5.5.3-8.2.5-5.5.4-11,.6-16.5.8C716,722.1,705,722.2,694,722.2Zm0-1q16.5,0,33-.6c5.5-.3,11-.5,16.5-.8,2.7-.2,5.5-.3,8.2-.5l8.2-.7c21.9-1.8,43.7-4.8,65.3-8.7s43.1-8.9,64.2-14.8c5.3-1.5,10.6-2.9,15.8-4.6l7.9-2.4,3.9-1.2,3.9-1.3c10.4-3.5,20.9-7,31.2-10.8,20.6-7.6,41-15.9,60.8-25.5a598,598,0,0,0,57.6-31.9,561,561,0,0,0,53.6-38.3c4.4-3.3,8.5-6.9,12.7-10.5l6.3-5.3c2.1-1.8,4.1-3.6,6.2-5.4s4.1-3.6,6.1-5.5l6-5.6c4.1-3.7,7.9-7.6,11.9-11.4,2-1.9,3.9-3.9,5.8-5.8l5.8-5.9c3.8-4,7.5-8,11.3-12,3.6-4.1,7.3-8.2,10.9-12.3l5.3-6.3c1.8-2.1,3.6-4.2,5.3-6.3q20.85-25.5,39.2-53t34.1-56.4c10.5-19.3,20.1-39.1,29-59.2s16.9-40.6,24.1-61.4l2.6-7.8,2.6-7.8,4.8-15.8,1.2-3.9,1.1-4,2.2-8,2.2-8,1.9-8a630.08,630.08,0,0,0,18-130.4A600.13,600.13,0,0,0,1370.5-68a608.11,608.11,0,0,0-15.8-63.9,644.59,644.59,0,0,0-22.6-61.9A630.38,630.38,0,0,0,1268-308.7a614.33,614.33,0,0,0-87.2-98.5,613,613,0,0,0-51-41.6,643.62,643.62,0,0,0-55.2-35.9,623.5,623.5,0,0,0-120.3-53.1,782.47,782.47,0,0,0-128.2-30,923.1,923.1,0,0,0-262.8,0,782.47,782.47,0,0,0-128.2,30,624.37,624.37,0,0,0-120.4,53.1,644.18,644.18,0,0,0-55.3,35.8,598.38,598.38,0,0,0-51.1,41.6A609.44,609.44,0,0,0,121-308.9a606.21,606.21,0,0,0-35.1,55.7,622.41,622.41,0,0,0-29.1,59.1A589.16,589.16,0,0,0,18-68.5,601.67,601.67,0,0,0,7.6,62.7,630.88,630.88,0,0,0,25.5,193.1l1.9,8,2.1,8,2.2,8,1.1,4L34,225l4.8,15.8c1.7,5.2,3.4,10.5,5.2,15.6q10.8,31.2,24,61.4c8.9,20.1,18.5,39.9,28.9,59.2s21.9,38.2,34.1,56.4,25.3,36,39.2,53a639.16,639.16,0,0,0,44.3,48.8c3.9,3.8,7.8,7.7,11.9,11.4l6,5.6c2,1.9,4.1,3.7,6.1,5.5s4.1,3.7,6.2,5.5l6.3,5.3c4.2,3.5,8.4,7.1,12.7,10.5a579.27,579.27,0,0,0,53.6,38.3,598.86,598.86,0,0,0,57.6,32c19.8,9.6,40.1,18,60.7,25.6l7.7,2.8,7.8,2.7c5.2,1.8,10.4,3.5,15.6,5.3,2.6.9,5.2,1.7,7.8,2.5s5.3,1.6,7.9,2.4l15.8,4.6q31.8,8.85,64.2,14.8t65.3,8.8c11,.9,21.9,1.7,32.9,2C672,721,683,721.2,694,721.2Z" transform="translate(-1.6 587.2)"/></g><g class="cls-3"><path class="cls-6" d="M694,630.2c-9.5,0-19-.1-28.5-.5s-19-1-28.5-1.7c-18.9-1.6-37.8-4.1-56.5-7.4s-37.3-7.6-55.6-12.5c-2.3-.6-4.6-1.2-6.9-1.9l-6.9-2c-2.3-.7-4.6-1.3-6.8-2s-4.5-1.4-6.8-2.1L484,595.6c-4.5-1.6-9-3.1-13.5-4.7l-6.7-2.4-6.7-2.5c-4.5-1.7-8.8-3.5-13.3-5.3s-8.8-3.7-13.1-5.5-8.7-3.9-13-5.9a492.5,492.5,0,0,1-96.9-59.8c-1.9-1.5-3.8-2.9-5.6-4.4l-5.5-4.6c-3.7-3-7.3-6.1-10.9-9.2l-5.4-4.7-5.2-4.8c-3.5-3.2-6.9-6.5-10.3-9.9A568.43,568.43,0,0,1,205,384.1c-10.7-15.8-20.6-32.1-29.9-48.7s-17.7-33.8-25.5-51.2-15-35.1-21.4-53c-1.6-4.5-3.2-9-4.7-13.5-.8-2.3-1.5-4.5-2.2-6.8l-2.1-6.8-2.1-6.8-1.9-6.9c-1.3-4.6-2.6-9.2-3.7-13.8s-2.4-9.3-3.4-13.9l-3.1-14-2.7-14.1c-.5-2.3-.8-4.7-1.2-7.1l-1.1-7.1a546.28,546.28,0,0,1-5.6-57.1,518.07,518.07,0,0,1,7.7-114.6,523.2,523.2,0,0,1,32.8-110.2,495.85,495.85,0,0,1,25.3-51.8l7.1-12.6c1.1-2.1,2.5-4.1,3.7-6.2l3.8-6.1,3.8-6.1,1.9-3.1,1-1.5,1-1.5,8.2-11.9,4.1-5.9c1.4-2,2.9-3.8,4.4-5.8l8.8-11.5,2.2-2.9,2.3-2.8,4.7-5.5c3.1-3.7,6.2-7.4,9.3-11l9.8-10.6,4.9-5.3,1.2-1.3,1.3-1.3,2.6-2.5c6.9-6.7,13.6-13.6,21-19.9l10.8-9.6,11.2-9.1c7.4-6.2,15.3-11.8,23-17.5,3.8-2.9,7.9-5.6,11.9-8.2l12-8c4.1-2.6,8.2-5,12.4-7.5l6.2-3.7,3.1-1.9,3.2-1.7,12.7-6.9c2.1-1.1,4.2-2.3,6.4-3.4l6.5-3.2,13-6.3c2.1-1.1,4.4-2,6.6-2.9l6.6-2.9,6.6-2.9c2.2-.9,4.4-2,6.7-2.8l13.5-5.1,6.8-2.5c2.3-.8,4.6-1.5,6.8-2.3,4.6-1.5,9.1-3.1,13.7-4.5A708.68,708.68,0,0,1,579.4-487,827.69,827.69,0,0,1,809-487a696.67,696.67,0,0,1,112.3,25.5c4.6,1.4,9.1,3,13.7,4.5,2.3.8,4.6,1.5,6.8,2.3l6.8,2.5,13.5,5.1,1.7.6,1.7.7,3.3,1.4,6.6,2.9,6.6,2.9c2.2,1,4.4,1.9,6.6,3l13,6.3,6.5,3.2c2.1,1.1,4.2,2.3,6.4,3.4l12.7,6.9,3.2,1.7,3.1,1.9,6.2,3.7c4.1,2.5,8.3,5,12.3,7.5l12,8,6,4,1.5,1,1.5,1.1,2.9,2.1,11.6,8.6,2.9,2.1a31.12,31.12,0,0,1,2.8,2.3l5.6,4.6,11.2,9.1,10.8,9.6c7.3,6.3,14,13.2,21,19.9,3.5,3.3,6.7,6.9,10,10.4l9.8,10.6c3.1,3.7,6.2,7.4,9.3,11l4.7,5.5a31.12,31.12,0,0,1,2.3,2.8l2.2,2.9,8.8,11.5c1.4,1.9,3,3.8,4.3,5.8l4.1,5.9,8.2,11.9c.7,1,1.3,2,2,3l1.9,3.1,3.8,6.1,3.8,6.1c1.3,2,2.6,4.1,3.7,6.2l7.1,12.6a495.11,495.11,0,0,1,25.2,51.8,546,546,0,0,1,19.4,54.2,536.51,536.51,0,0,1,13.4,56,517.58,517.58,0,0,1,7.7,114.5,520.55,520.55,0,0,1-5.6,57.1,538.19,538.19,0,0,1-11.5,56.2l-.9,3.5c-.3,1.2-.6,2.3-.9,3.5l-1.9,6.9-1.9,6.9-2.1,6.8-2.1,6.8-1.1,3.4-1.1,3.4c-1.5,4.5-3.1,9-4.7,13.5-6.4,18-13.6,35.6-21.5,53a661.3,661.3,0,0,1-55.5,99.8,573,573,0,0,1-73,87.7l-5.1,5c-1.7,1.7-3.5,3.2-5.2,4.9l-5.2,4.8-5.4,4.7c-3.5,3.2-7.2,6.2-10.9,9.2l-5.5,4.6-5.6,4.4a502.76,502.76,0,0,1-46.8,32.7,505.68,505.68,0,0,1-50.2,27.1c-17.2,8.1-34.9,15.2-52.8,21.6a673.49,673.49,0,0,1-109.9,29.8C770,627.5,732,630.4,694,630.2Zm0-1a624.3,624.3,0,0,0,113.3-9.6A664.3,664.3,0,0,0,917,589.7c17.8-6.5,35.4-13.6,52.6-21.7a501.89,501.89,0,0,0,49.9-27.2,485.17,485.17,0,0,0,46.4-32.8l5.6-4.4,5.4-4.6c3.6-3.1,7.3-6.1,10.8-9.3l5.3-4.7,5.2-4.8c1.7-1.6,3.5-3.2,5.2-4.9l5.1-5a557.84,557.84,0,0,0,72.1-87.8,650.9,650.9,0,0,0,54.5-99.7q11.55-26.1,21-52.9,2.4-6.75,4.5-13.5l1.1-3.4,1-3.4,2.1-6.8,2.1-6.8,1.9-6.9,1.9-6.9c.3-1.1.6-2.3.9-3.4l.8-3.5a555.72,555.72,0,0,0,11-55.8,538.39,538.39,0,0,0,5.1-56.6,511.58,511.58,0,0,0-8.4-113.2,499.49,499.49,0,0,0-13.6-55.2,542.26,542.26,0,0,0-19.6-53.4,501.37,501.37,0,0,0-25.2-50.9l-7.1-12.3c-1.1-2.1-2.4-4.1-3.7-6.1l-3.8-6-3.8-6-1.9-3c-.6-1-1.3-2-2-3l-8.2-11.6-4.1-5.8c-1.4-1.9-2.9-3.8-4.3-5.6l-8.7-11.2-2.2-2.8c-.7-.9-1.5-1.8-2.3-2.7l-4.6-5.4-9.3-10.8-9.7-10.4c-3.3-3.4-6.4-7-9.9-10.2-6.8-6.6-13.5-13.3-20.7-19.5l-10.6-9.4-11.1-8.9-5.5-4.5c-.9-.7-1.8-1.5-2.8-2.2l-2.9-2.1-11.5-8.4-2.9-2.1-1.4-1-1.5-1-5.9-3.9-11.8-7.9c-4-2.5-8.1-4.9-12.2-7.3l-6.1-3.7-3-1.8-3.1-1.7-12.5-6.7c-2.1-1.1-4.2-2.3-6.3-3.3l-6.4-3.1-12.8-6.2c-2.1-1.1-4.3-1.9-6.5-2.9l-6.5-2.8-6.5-2.8-3.3-1.4-1.6-.7-1.7-.6-13.3-4.9L939-446c-2.2-.8-4.5-1.5-6.7-2.3-4.5-1.5-9-3-13.5-4.4a701.68,701.68,0,0,0-110.8-25,838.89,838.89,0,0,0-226.8,0,700.12,700.12,0,0,0-110.9,24.9c-4.5,1.4-9,2.9-13.5,4.4-2.2.8-4.5,1.5-6.7,2.3l-6.7,2.5-13.3,4.9c-2.2.8-4.4,1.8-6.6,2.7l-6.5,2.8-6.5,2.8c-2.2.9-4.4,1.8-6.5,2.9l-12.8,6.2-6.4,3.1-6.3,3.3L366-408.2l-3.1,1.7-3.1,1.8-6.1,3.7c-4.1,2.4-8.1,4.8-12.2,7.3l-11.8,7.9c-3.9,2.6-7.9,5.2-11.7,8.1-7.6,5.6-15.4,11.1-22.7,17.1l-11.1,8.9-10.6,9.4c-7.2,6.1-13.9,12.9-20.7,19.5l-2.5,2.5-1.3,1.2-1.2,1.3-4.9,5.2-9.7,10.4L224-291.4l-5,5.4-2.3,2.7-2.2,2.8-8.7,11.2c-1.4,1.9-2.9,3.7-4.3,5.6l-4.1,5.8-8.2,11.6-1,1.5-1,1.5-1.9,3-3.8,6-3.8,6c-1.3,2-2.6,4-3.7,6.1l-7.1,12.3A502.13,502.13,0,0,0,141.6-159,521.32,521.32,0,0,0,108.4-50.5,511.65,511.65,0,0,0,99.9,62.7a538.39,538.39,0,0,0,5.1,56.6l1.1,7c.3,2.3.7,4.7,1.1,7,.8,4.7,1.7,9.3,2.5,14l2.9,13.9c1,4.6,2.2,9.2,3.3,13.8s2.4,9.2,3.6,13.8l1.9,6.9,2.1,6.8,2.1,6.8c.7,2.3,1.4,4.5,2.1,6.8l4.5,13.5c6.2,17.9,13.3,35.5,20.9,52.9s16,34.4,25.1,51.1,18.9,32.9,29.4,48.7c21.1,31.5,45,61.2,72.1,87.8,3.4,3.3,6.8,6.7,10.3,9.9l5.2,4.9,5.3,4.7c3.5,3.2,7.2,6.2,10.8,9.3l5.4,4.6c1.8,1.5,3.7,2.9,5.6,4.4a485.17,485.17,0,0,0,46.4,32.8A524.13,524.13,0,0,0,418.6,568c17.1,8.1,34.7,15.3,52.5,21.8,4.4,1.7,8.9,3.2,13.4,4.7L498,599c2.3.7,4.5,1.5,6.8,2.1s4.5,1.3,6.8,2l6.8,2c2.3.7,4.6,1.3,6.9,1.9q27.45,7.5,55.5,12.6t56.4,7.5c9.5.8,18.9,1.4,28.4,1.7S684.5,629.2,694,629.2Z" transform="translate(-1.6 587.2)"/></g><g class="cls-7"><path class="cls-6" d="M694,538.2c-8,0-16-.1-24-.4s-16-.8-23.9-1.4c-15.9-1.3-31.8-3.4-47.6-6.1s-31.4-6.2-46.8-10.3l-5.8-1.5-5.8-1.6c-3.8-1.1-7.7-2.2-11.5-3.4-7.6-2.4-15.2-5-22.7-7.6s-15-5.5-22.4-8.5l-5.6-2.2-5.5-2.3c-1.8-.8-3.7-1.5-5.5-2.4l-5.5-2.5a430.51,430.51,0,0,1-42.5-22.4,427.13,427.13,0,0,1-39.6-27.2l-4.7-3.7c-1.6-1.2-3.1-2.5-4.6-3.8l-4.6-3.8-2.3-1.9-2.3-2-4.5-4c-1.5-1.3-3-2.7-4.4-4.1l-4.4-4.1-4.3-4.2A477,477,0,0,1,281.7,333a575.41,575.41,0,0,1-46.9-84c-6.7-14.6-12.8-29.5-18.3-44.5q-4.2-11.25-7.8-22.8l-1.8-5.8c-.6-1.9-1.2-3.8-1.7-5.8l-3.3-11.6a472,472,0,0,1-15.2-95.4,428.43,428.43,0,0,1,5.9-96.6,430.35,430.35,0,0,1,27.5-93,391.11,391.11,0,0,1,21.4-43.6l6-10.6L254-191c4.2-7,9-13.5,13.6-20.2,2.2-3.4,4.8-6.5,7.3-9.8s4.9-6.5,7.4-9.7l7.8-9.3,3.9-4.7c1.3-1.6,2.7-3,4.1-4.5l8.3-9,2.1-2.2,2.2-2.1,4.4-4.3c2.9-2.8,5.8-5.7,8.7-8.5l9.1-8.1,4.5-4.1c1.5-1.3,3.1-2.6,4.7-3.9l9.5-7.7c1.6-1.3,3.2-2.5,4.8-3.7l4.9-3.6,4.9-3.6c1.6-1.2,3.2-2.5,5-3.6l10.1-6.8,5.1-3.4,5.2-3.2,10.4-6.3c1.7-1.1,3.5-2,5.3-3l5.4-2.9,5.4-2.9c1.8-1,3.6-2,5.4-2.8l11-5.3,5.5-2.7,5.6-2.4,11.2-4.8c1.9-.8,3.8-1.5,5.7-2.2l5.7-2.2c3.8-1.4,7.6-2.9,11.5-4.2l11.5-3.8,11.6-3.6a631.64,631.64,0,0,1,94.9-20.4c16-2.2,32.2-3.8,48.3-4.8s32.3-1.6,48.4-1.6a727.1,727.1,0,0,1,96.7,6.4A638.77,638.77,0,0,1,886-376.1l11.6,3.6,11.5,3.9c3.8,1.3,7.6,2.8,11.4,4.3l5.7,2.2c1.9.7,3.8,1.4,5.7,2.3l11.2,4.8,5.6,2.4,5.5,2.7,11,5.3c1.8.9,3.6,1.9,5.4,2.8l5.4,2.9,5.4,2.9c1.8,1,3.6,1.9,5.3,3l10.4,6.3,5.2,3.2,5.1,3.4,10.1,6.8,1.3.9,1.2.9,2.5,1.8,4.9,3.6,4.9,3.6,2.5,1.8c.8.6,1.6,1.3,2.4,1.9l9.5,7.7c1.6,1.3,3.2,2.5,4.7,3.9l4.5,4.1,9.1,8.1c3,2.8,5.8,5.7,8.7,8.5l4.3,4.3c.7.7,1.5,1.4,2.2,2.2l2.1,2.2,8.3,9c2.8,2.9,5.4,6.1,8,9.2l7.8,9.3,7.4,9.7c2.4,3.2,5,6.4,7.2,9.8,4.6,6.7,9.4,13.3,13.6,20.2l6.5,10.3,6,10.6a391.85,391.85,0,0,1,21.3,43.7,426.19,426.19,0,0,1,27.4,93,428.78,428.78,0,0,1,5.9,96.6,473.12,473.12,0,0,1-15.2,95.4l-3.3,11.6c-1.1,3.9-2.4,7.7-3.5,11.5q-3.6,11.55-7.8,22.8c-5.5,15.1-11.7,29.9-18.3,44.5a560.79,560.79,0,0,1-47,83.9,477.61,477.61,0,0,1-61.6,73.8l-4.3,4.2-4.4,4.1c-2.9,2.8-5.9,5.4-9,8l-2.3,2-2.3,1.9-4.6,3.8c-1.6,1.3-3.1,2.6-4.6,3.8l-4.7,3.7a427.13,427.13,0,0,1-39.6,27.2,419.58,419.58,0,0,1-42.5,22.4q-21.9,9.9-44.5,17.9c-15.1,5.3-30.3,10.2-45.8,14.3s-31.1,7.6-46.8,10.3A567.92,567.92,0,0,1,694,538.2Zm0-1a533.8,533.8,0,0,0,95.3-7.9c15.7-2.8,31.3-6.3,46.7-10.4s30.6-9,45.7-14.3,29.9-11.3,44.3-18a415.74,415.74,0,0,0,42.2-22.5,423.8,423.8,0,0,0,39.3-27.3l4.7-3.7c1.6-1.2,3.1-2.5,4.6-3.8l4.6-3.8,2.3-1.9,2.2-2c3-2.6,6-5.3,8.9-8l4.4-4.1,4.3-4.2a471.92,471.92,0,0,0,60.7-73.8,568.13,568.13,0,0,0,46-83.8c6.5-14.6,12.5-29.4,17.8-44.4,2.7-7.5,5.2-15.1,7.5-22.7,1.1-3.8,2.4-7.6,3.4-11.5l3.1-11.5a464.18,464.18,0,0,0,14.2-94.4,421.54,421.54,0,0,0-6.6-95.2,428,428,0,0,0-27.8-91.3,388.26,388.26,0,0,0-21.4-42.8l-6-10.4-6.4-10.1c-4.1-6.8-8.9-13.2-13.5-19.7-2.2-3.3-4.8-6.4-7.2-9.5l-7.3-9.4-7.8-9.1c-2.6-3-5.1-6.1-7.9-8.9l-8.2-8.7-2-2.2-2.1-2.1-4.3-4.2c-2.9-2.8-5.7-5.6-8.6-8.3l-9-7.9-4.5-4c-1.5-1.3-3.1-2.5-4.6-3.8l-9.3-7.5c-.8-.6-1.5-1.3-2.3-1.9l-2.4-1.8-4.8-3.5-4.8-3.5-2.4-1.8-1.2-.9-1.2-.8-10-6.6-5-3.3-5.1-3.1-10.3-6.1c-1.7-1.1-3.5-2-5.2-2.9l-5.3-2.8-5.3-2.8c-1.8-.9-3.5-1.9-5.3-2.8l-10.8-5.2-5.4-2.6-5.5-2.3-11-4.7c-1.8-.8-3.7-1.5-5.6-2.2l-5.6-2.1c-3.7-1.4-7.5-2.8-11.2-4.1l-11.4-3.8L883.2-367a610.05,610.05,0,0,0-93.5-19.9,707.5,707.5,0,0,0-95.4-6.1,724.23,724.23,0,0,0-95.4,6.1A610.05,610.05,0,0,0,505.4-367L494-363.5l-11.4,3.8c-1.9.6-3.8,1.3-5.6,2l-5.6,2.1-5.6,2.1a54.22,54.22,0,0,0-5.6,2.2l-11,4.7-5.5,2.3-5.4,2.6-10.8,5.2c-1.8.8-3.6,1.8-5.3,2.7l-5.3,2.8-5.3,2.8c-1.7,1-3.5,1.8-5.2,2.9l-10.3,6.1-5.1,3.1-5,3.3-10,6.6c-1.7,1.1-3.3,2.3-4.9,3.5l-4.8,3.5-4.8,3.5c-1.6,1.2-3.2,2.3-4.8,3.6l-9.3,7.5c-1.5,1.3-3.1,2.5-4.6,3.8l-4.5,4-9,7.9c-2.9,2.7-5.7,5.5-8.6,8.3l-4.3,4.2-2.1,2.1-2,2.2-8.2,8.7c-1.3,1.5-2.8,2.9-4,4.4l-3.9,4.5-7.8,9.1c-2.5,3.1-4.9,6.3-7.4,9.4s-5,6.2-7.2,9.5c-4.6,6.5-9.3,12.9-13.5,19.7l-6.4,10.1-6,10.4a425.42,425.42,0,0,0-21.4,42.7,428.21,428.21,0,0,0-27.9,91.3,422,422,0,0,0-6.7,95.2,465.14,465.14,0,0,0,14.2,94.5l3.1,11.5c.5,1.9,1.1,3.8,1.7,5.7l1.7,5.7c2.3,7.6,4.8,15.2,7.5,22.7q8.1,22.5,17.8,44.4a559,559,0,0,0,46,83.8A466.74,466.74,0,0,0,344.5,405l4.3,4.2,4.4,4.1,4.4,4.1,4.5,4,2.2,2,2.3,1.9,4.6,3.8c1.5,1.3,3,2.6,4.6,3.8l4.7,3.7a392.12,392.12,0,0,0,39.2,27.3,437.52,437.52,0,0,0,42.2,22.6q21.75,10,44.3,18c7.5,2.6,15.1,5.2,22.7,7.7,3.8,1.2,7.6,2.3,11.5,3.4l5.7,1.7,5.8,1.5c15.4,4.1,31,7.6,46.7,10.4s31.5,4.9,47.4,6.2c8,.6,15.9,1.1,23.9,1.4S686,537.2,694,537.2Z" transform="translate(-1.6 587.2)"/></g><g class="cls-8"><path class="cls-6" d="M694,446.1a447.65,447.65,0,0,1-77.5-6.2q-19.2-3.3-38.1-8.1c-3.1-.8-6.3-1.6-9.4-2.5l-9.4-2.7c-3.1-.9-6.2-1.9-9.3-2.9s-6.2-2-9.2-3.1q-18.45-6.3-36.3-14.1a342.93,342.93,0,0,1-34.7-17.7,320.92,320.92,0,0,1-32.4-21.7c-5.2-3.9-10.2-8.1-15.2-12.3s-9.8-8.6-14.4-13.2a378.36,378.36,0,0,1-26.5-28.7c-8.3-10-16.2-20.4-23.5-31.2a478.62,478.62,0,0,1-38.4-68c-5.5-11.8-10.6-23.8-15.2-36-2.3-6.1-4.5-12.2-6.6-18.4s-4-12.5-5.7-18.8a367.87,367.87,0,0,1-13.4-77.4A338.77,338.77,0,0,1,305-91.4c2.6-6.1,5.3-12.1,8.2-18,1.4-3,3-5.9,4.5-8.8l4.8-8.7c3.1-5.8,6.7-11.4,10.2-17,1.7-2.8,3.7-5.5,5.5-8.2s3.7-5.5,5.7-8.1a345.66,345.66,0,0,1,54-58.1A357.38,357.38,0,0,1,464-262.4l8.9-4.4,4.5-2.2,4.6-2,9.1-3.9c3.1-1.3,6.2-2.4,9.3-3.6l4.7-1.8,2.3-.9,2.3-.8c3.1-1.1,6.2-2.1,9.4-3.1l9.4-2.9,9.5-2.7c50.8-14.2,103.6-20.2,156.1-20.3,52.5.1,105.3,6.1,156.1,20.4,12.7,3.6,25.2,7.5,37.6,12.3l4.7,1.8c1.5.6,3.1,1.1,4.6,1.8l9.1,3.9c1.5.7,3.1,1.3,4.6,2l4.5,2.2,8.9,4.4a358.29,358.29,0,0,1,66,44.1c2.5,2.2,5,4.4,7.4,6.6s5,4.4,7.3,6.7l7.1,7,1.8,1.7,1.7,1.8,3.4,3.7,3.4,3.7c1.1,1.2,2.3,2.4,3.3,3.7l6.4,7.6,3.2,3.8,3,3.9,6,7.9c1.9,2.7,3.8,5.4,5.7,8.2s3.8,5.4,5.5,8.3l5.2,8.4,1.3,2.1,1.2,2.2,2.4,4.3c1.6,2.9,3.3,5.7,4.8,8.7l2.3,4.4,2.2,4.4c2.9,5.9,5.7,11.9,8.2,18a339.8,339.8,0,0,1,26.1,154.5,369,369,0,0,1-13.4,77.4c-1.7,6.3-3.7,12.5-5.7,18.8s-4.3,12.3-6.6,18.5c-4.6,12.2-9.7,24.2-15.2,36a479.22,479.22,0,0,1-38.5,68c-7.4,10.8-15.2,21.2-23.5,31.2A360.07,360.07,0,0,1,979.6,342c-4.7,4.6-9.5,8.9-14.4,13.2-2.5,2.1-5,4.2-7.5,6.2-1.2,1.1-2.5,2-3.8,3l-3.9,3a332.6,332.6,0,0,1-32.4,21.7,323.44,323.44,0,0,1-34.7,17.7c-11.9,5.3-24,9.9-36.3,14.1a454.93,454.93,0,0,1-75.3,19.4A453.47,453.47,0,0,1,694,446.1Zm0-1a444.58,444.58,0,0,0,77.3-6.2,466,466,0,0,0,75.1-19.6c24.5-8.4,48.3-18.8,70.6-32a329.41,329.41,0,0,0,32.1-21.8l3.8-3c1.3-1,2.5-2,3.8-3,2.5-2.1,5-4.1,7.4-6.3,4.8-4.3,9.6-8.6,14.2-13.2a373,373,0,0,0,26.2-28.6c8.2-10,15.9-20.5,23.1-31.2a472.24,472.24,0,0,0,37.5-67.9c5.3-11.8,10.3-23.8,14.7-35.9,2.2-6.1,4.4-12.2,6.3-18.4s3.8-12.4,5.5-18.6A366.73,366.73,0,0,0,1104,62.9a332.87,332.87,0,0,0-27.2-151.3c-2.5-5.9-5.3-11.8-8.2-17.6l-2.2-4.3-2.3-4.3c-1.5-2.8-3.2-5.6-4.8-8.4l-2.4-4.2-1.2-2.1-1.3-2-5.2-8.2c-1.7-2.8-3.6-5.4-5.5-8s-3.7-5.3-5.6-7.9A341.05,341.05,0,0,0,985-211.7a350.4,350.4,0,0,0-64.6-42.6l-8.7-4.2-4.4-2.1c-1.5-.7-3-1.3-4.5-1.9l-8.9-3.8c-1.5-.7-3-1.2-4.5-1.8l-4.5-1.7c-12.1-4.6-24.5-8.4-36.9-11.9-49.9-13.9-101.8-19.7-153.5-19.6S590.9-295.6,541-281.7l-9.3,2.7-9.3,2.9-9.2,3-2.3.8-2.3.8-4.5,1.7c-3,1.1-6.1,2.2-9.1,3.4l-8.9,3.8-4.5,1.9-4.4,2.1-8.7,4.2a335.76,335.76,0,0,0-117.8,98.7c-1.9,2.6-3.7,5.3-5.6,7.9s-3.8,5.2-5.5,8c-3.5,5.5-7.1,10.8-10.2,16.5l-4.8,8.4c-1.5,2.8-3,5.7-4.5,8.6-2.9,5.8-5.7,11.6-8.2,17.6A331.12,331.12,0,0,0,284.4,62.7a367.8,367.8,0,0,0,12.4,76.5c1.6,6.3,3.6,12.4,5.4,18.6,2,6.2,4.1,12.3,6.3,18.4,4.4,12.2,9.4,24.1,14.7,35.9A481.54,481.54,0,0,0,360.6,280c7.2,10.8,14.9,21.2,23,31.2a373.12,373.12,0,0,0,26.1,28.7c4.6,4.6,9.4,8.9,14.2,13.2s9.9,8.4,15,12.3A317.73,317.73,0,0,0,471,387.2c22.2,13.2,46.1,23.7,70.5,32.1,3.1,1.1,6.1,2.1,9.2,3.1s6.1,2,9.2,2.9l9.3,2.7c3.1.9,6.3,1.7,9.4,2.5,12.5,3.2,25.2,6,37.9,8.2A439,439,0,0,0,694,445.1Z" transform="translate(-1.6 587.2)"/></g><path class="cls-6" d="M694,354.1a358.83,358.83,0,0,1-59.5-4.5c-9.8-1.6-19.6-3.6-29.3-6-2.4-.6-4.8-1.2-7.2-1.9s-4.8-1.3-7.2-2l-7.2-2.1-7.1-2.3-7.1-2.4c-2.3-.8-4.7-1.7-7-2.5-4.7-1.7-9.3-3.5-13.9-5.4a248,248,0,0,1-27-13,229.64,229.64,0,0,1-48.1-35.6,285.22,285.22,0,0,1-20.5-22c-6.4-7.7-12.5-15.7-18.1-24A389.39,389.39,0,0,1,405,178.3q-6.45-13.5-12-27.6c-1.9-4.7-3.6-9.4-5.3-14.1-.8-2.4-1.7-4.7-2.4-7.1l-2.2-7.2a278.77,278.77,0,0,1-11.6-59.4A251,251,0,0,1,390.4-56.5a247.36,247.36,0,0,1,30.7-52.9,245.81,245.81,0,0,1,20-23.3c3.7-3.6,7.2-7.3,11.1-10.7,1.9-1.7,3.8-3.5,5.8-5.1l6-4.9c2-1.7,4-3.2,6.1-4.7s4.1-3.1,6.2-4.6c4.3-2.8,8.5-5.8,12.9-8.4,2.2-1.3,4.4-2.7,6.6-4l6.8-3.7a36.52,36.52,0,0,1,3.4-1.8l3.5-1.7,6.9-3.4,7.1-3.1,3.5-1.5,3.6-1.4,7.2-2.7,7.2-2.5c9.6-3.2,19.4-6,29.2-8.5,39.4-9.9,80.1-13.9,120.4-14,40.3.1,81,4.2,120.4,14.1,9.9,2.5,19.6,5.4,29.2,8.6,2.4.8,4.8,1.6,7.2,2.5l7.2,2.7c1.2.5,2.4.9,3.6,1.4l3.5,1.5,7.1,3.1,6.9,3.4,3.5,1.7,3.4,1.8,6.8,3.7c2.2,1.3,4.4,2.7,6.6,4l3.3,2c1.1.7,2.1,1.4,3.2,2.1l6.4,4.3c2.1,1.5,4.1,3,6.2,4.6l3.1,2.3,3,2.4,6,4.9c2,1.6,3.8,3.4,5.8,5.1,3.9,3.4,7.4,7.1,11.1,10.7A246,246,0,0,1,968-109.1a247.65,247.65,0,0,1,30.6,53,250.92,250.92,0,0,1,18.8,119.4,291.74,291.74,0,0,1-11.6,59.4l-2.2,7.2c-.8,2.4-1.6,4.8-2.4,7.1-1.7,4.7-3.4,9.4-5.3,14.1q-5.55,14-12,27.6A373.58,373.58,0,0,1,954,230.8a297.72,297.72,0,0,1-38.7,45.9,232.88,232.88,0,0,1-48.2,35.6,267.21,267.21,0,0,1-27,12.9c-9.2,3.8-18.6,7.2-28.1,10.3a372.16,372.16,0,0,1-58,14.3c-9.8,1.6-19.8,2.7-29.7,3.4C713.9,353.9,703.9,354.1,694,354.1Zm0-1c9.9,0,19.9-.3,29.8-1s19.8-1.9,29.6-3.5a372.84,372.84,0,0,0,57.8-14.4c18.8-6.3,37.3-13.7,54.6-23.5A228.45,228.45,0,0,0,913.2,275,286.62,286.62,0,0,0,951,229.1a382.53,382.53,0,0,0,28.9-52c4.2-9,8-18.2,11.6-27.5,1.8-4.6,3.5-9.3,5-14,.8-2.3,1.6-4.7,2.3-7.1l2.1-7.2a282.09,282.09,0,0,0,10.7-58.4A244.66,244.66,0,0,0,991.7-53.2a240.91,240.91,0,0,0-30.3-51,244.23,244.23,0,0,0-19.6-22.3c-3.6-3.4-7-7-10.8-10.2-1.9-1.6-3.7-3.3-5.6-4.9l-5.8-4.7c-1-.8-1.9-1.6-2.9-2.3l-3-2.2c-2-1.4-4-2.9-6-4.4l-6.2-4.1c-1-.7-2.1-1.4-3.1-2l-3.2-1.9c-2.1-1.3-4.2-2.6-6.4-3.8l-6.6-3.5-3.3-1.7-3.4-1.6-6.7-3.2c-18.1-8.1-37.1-14-56.4-18.8-38.6-9.6-78.4-13.4-118.1-13.4s-79.5,3.8-118.1,13.4C557-191,537.9-185.1,519.8-177l-6.7,3.2-3.4,1.6c-1.1.5-2.2,1.2-3.3,1.7l-6.6,3.5c-2.2,1.2-4.3,2.5-6.4,3.8-4.3,2.5-8.4,5.3-12.5,8-2.1,1.4-4,2.9-6,4.3s-4,2.9-5.9,4.5l-5.8,4.7c-1.9,1.6-3.7,3.3-5.6,4.9-3.8,3.2-7.3,6.7-10.8,10.2a244.23,244.23,0,0,0-19.6,22.3,240.63,240.63,0,0,0-30.4,50.9,244.73,244.73,0,0,0-20,116.1,284.06,284.06,0,0,0,10.6,58.5l2.1,7.2c.7,2.4,1.5,4.7,2.3,7.1,1.6,4.7,3.3,9.4,5,14,3.5,9.3,7.4,18.4,11.5,27.5a382.53,382.53,0,0,0,28.9,52,281.69,281.69,0,0,0,37.7,45.9,225.84,225.84,0,0,0,47.4,35.7c17.3,9.8,35.8,17.3,54.6,23.6l7.1,2.3c2.4.7,4.8,1.4,7.1,2.1s4.8,1.4,7.2,2,4.8,1.3,7.2,1.9c9.6,2.4,19.4,4.4,29.2,6.1A366.6,366.6,0,0,0,694,353.1Z" transform="translate(-1.6 587.2)"/><path class="cls-6" d="M694,262.1c-6.9,0-13.9-.1-20.8-.6s-13.9-1.2-20.7-2.2-13.7-2.3-20.5-3.9-13.5-3.4-20.2-5.3c-13.2-4.3-26.5-8.7-39-14.9a142.68,142.68,0,0,1-18.1-10.6,138.25,138.25,0,0,1-16.3-13.2,202.81,202.81,0,0,1-27.2-32A285.35,285.35,0,0,1,490,143.2a330.18,330.18,0,0,1-16.4-38.7,200.33,200.33,0,0,1-9.8-41.3l-.4-2.6-.2-2.7-.4-5.3a48.74,48.74,0,0,1-.2-5.4l-.1-5.4c0-1.8.1-3.6.1-5.4s0-3.6.2-5.4c.3-3.6.5-7.2,1.1-10.7A142.27,142.27,0,0,1,468.2-.9a145.17,145.17,0,0,1,7.2-20.4,156.68,156.68,0,0,1,54.7-66.5A167.79,167.79,0,0,1,569-107.6c6.7-2.4,13.5-4.5,20.4-6.5s13.8-3.6,20.7-5a399.49,399.49,0,0,1,42.1-6.3c14.1-1.3,28.2-1.9,42.4-2,14.1.1,28.2.7,42.4,2a399.49,399.49,0,0,1,42.1,6.3,314.17,314.17,0,0,1,41.1,11.6,186.83,186.83,0,0,1,20.1,8.6c1.7.8,3.2,1.7,4.8,2.6s3.2,1.7,4.7,2.7l4.7,2.9,4.5,3.1A156.86,156.86,0,0,1,913.4-21,170,170,0,0,1,920.5-.6c.5,1.7.9,3.5,1.3,5.2l.6,2.6c.2.9.3,1.8.5,2.6l1,5.3c.3,1.8.5,3.6.8,5.3.6,3.5.7,7.1,1.1,10.7a24.37,24.37,0,0,1,.1,2.7l.1,2.7c0,1.8.1,3.6.1,5.4l-.1,5.4c0,1.8-.1,3.6-.2,5.4l-.4,5.3c-.1.9-.1,1.8-.2,2.7l-.4,2.6a214.12,214.12,0,0,1-9.8,41.3,330.18,330.18,0,0,1-16.4,38.7,298.52,298.52,0,0,1-21.3,36.2A202.7,202.7,0,0,1,850,211.4a139.29,139.29,0,0,1-16.4,13.2,150,150,0,0,1-18.1,10.6c-12.5,6.2-25.8,10.6-39,14.8a269.28,269.28,0,0,1-40.7,9.2A245.58,245.58,0,0,1,694,262.1Zm0-1a272.64,272.64,0,0,0,41.4-2.9,265.8,265.8,0,0,0,40.4-9.3c6.6-2.1,13.2-4.3,19.6-6.8s12.8-5.2,19-8.3a151.86,151.86,0,0,0,17.8-10.6A134.16,134.16,0,0,0,848.1,210a186.74,186.74,0,0,0,26.3-31.9,279.23,279.23,0,0,0,20.3-36.2,355.7,355.7,0,0,0,15.5-38.5A201,201,0,0,0,919,63l.3-2.6c.1-.9.1-1.7.2-2.6l.3-5.2c.1-1.7.1-3.4.1-5.2V42.2c0-1.7-.2-3.4-.2-5.2l-.1-2.6a22.75,22.75,0,0,0-.2-2.6c-.4-3.4-.6-6.9-1.2-10.3-.3-1.7-.5-3.4-.8-5.1l-1.1-5.1a22.68,22.68,0,0,0-.6-2.5L915,6.3c-.5-1.7-.8-3.3-1.4-5a167.22,167.22,0,0,0-7.2-19.4,151.46,151.46,0,0,0-9.8-18.2A146.92,146.92,0,0,0,870-67.8a142.54,142.54,0,0,0-16.3-12.7l-4.3-2.8L845-85.9c-1.5-.9-3-1.7-4.5-2.5s-3-1.7-4.6-2.4a166.93,166.93,0,0,0-19.1-7.9c-6.5-2.2-13.2-4.2-19.8-6.1s-13.4-3.4-20.2-4.8a376.74,376.74,0,0,0-41.1-6c-13.8-1.2-27.6-1.8-41.5-1.8s-27.7.6-41.5,1.8a380.06,380.06,0,0,0-41.1,5.9c-6.8,1.3-13.5,3-20.2,4.7s-13.3,3.8-19.8,6a155.56,155.56,0,0,0-37,18.3A142.54,142.54,0,0,0,518.3-68a143.78,143.78,0,0,0-14.4,14.8l-1.7,2-1.6,2c-1.1,1.4-2.2,2.7-3.2,4.1l-3,4.2c-1,1.4-1.9,2.9-2.8,4.3l-1.4,2.2a25.29,25.29,0,0,0-1.3,2.2c-.9,1.5-1.7,3-2.6,4.5l-2.4,4.6c-.8,1.5-1.5,3.1-2.2,4.7A152.07,152.07,0,0,0,470,21.2c-.6,3.4-.9,6.8-1.2,10.3-.2,1.7-.2,3.4-.3,5.2l-.2,5.2v5.2c0,1.7,0,3.5.1,5.2l.3,5.2.2,2.6.3,2.6a199.34,199.34,0,0,0,8.7,40.4,328.67,328.67,0,0,0,15.4,38.5,279.23,279.23,0,0,0,20.3,36.2,192.26,192.26,0,0,0,26.3,32A142.71,142.71,0,0,0,555.8,223a151.34,151.34,0,0,0,17.7,10.7c12.3,6.3,25.4,10.9,38.6,15.2q9.9,3,20.1,5.4,10,2.4,20.4,3.9c6.8,1,13.7,1.8,20.6,2.3S687.1,261.1,694,261.1Z" transform="translate(-1.6 587.2)"/><path class="cls-6" d="M834,39.1a66.55,66.55,0,0,0-6.1-25A65.64,65.64,0,0,0,812.1-6.7a67.5,67.5,0,0,0-10.7-7.7,26.94,26.94,0,0,0-2.9-1.6c-1-.5-2-1-2.9-1.5s-2-.9-3-1.3-2.1-.8-3-1.2a232.09,232.09,0,0,0-23.3-7.1c-2-.5-3.9-1-5.9-1.4s-4-.9-5.9-1.3-4-.8-6-1.1-4-.7-6-.9a341.94,341.94,0,0,0-96.2,0,213,213,0,0,0-23.8,4.7A232.09,232.09,0,0,0,599.2-20c-16.4,5.7-30.9,17.9-38.5,33.8a64.85,64.85,0,0,0-6.2,25,75.5,75.5,0,0,0,.4,12.6,97.2,97.2,0,0,0,2.2,12.2c.5,2,1.1,4,1.6,5.9s1.3,3.9,1.9,5.8c1.4,3.8,2.8,7.5,4.4,11.2,3.1,7.3,6.6,14.5,10.4,21.5a201,201,0,0,0,12.5,20.3,104.05,104.05,0,0,0,15.8,18,45.47,45.47,0,0,0,10.1,6.7,116.33,116.33,0,0,0,11,4.6c3.7,1.3,7.5,2.6,11.2,3.7l2.8.9,2.9.8c.8.2,1.6.5,2.4.7l.2-1.4c-6.4-1.8-12.6-3.9-18.8-6.3-7.2-2.9-14.5-6-20.2-11.3a95.78,95.78,0,0,1-14.9-18,194.93,194.93,0,0,1-11.6-20.4c-3.5-7-6.6-14.2-9.4-21.5a134.89,134.89,0,0,1-6.9-22.4,90.83,90.83,0,0,1-1.6-11.5,64.13,64.13,0,0,1,.1-11.6,57.76,57.76,0,0,1,6.3-22.2A56,56,0,0,1,581.9-.7a64.76,64.76,0,0,1,20.3-11.1,246.25,246.25,0,0,1,45.7-10.5,379.08,379.08,0,0,1,93.6,0,248.1,248.1,0,0,1,45.7,10.5A68.59,68.59,0,0,1,807-.6a55.85,55.85,0,0,1,14.5,17.9,59.43,59.43,0,0,1,6.2,22.2A75.58,75.58,0,0,1,826,62.7a165.16,165.16,0,0,1-6.9,22.4c-2.8,7.3-6,14.5-9.5,21.5A188.35,188.35,0,0,1,797.9,127,95.13,95.13,0,0,1,783,144.9c-5.7,5.2-13,8.4-20.3,11.2q-9.15,3.45-18.6,6.3l.2,1.4c6.4-1.8,12.8-3.7,19-6a94.89,94.89,0,0,0,11-4.6,48.09,48.09,0,0,0,10.2-6.6,100.57,100.57,0,0,0,15.9-18,201,201,0,0,0,12.5-20.3c3.8-7,7.3-14.2,10.4-21.5,1.6-3.7,3-7.4,4.4-11.2.7-1.9,1.3-3.8,2-5.8s1.2-3.9,1.6-5.9A79.1,79.1,0,0,0,834,39.1Z" transform="translate(-1.6 587.2)"/><path class="cls-6" d="M636.8,53.3l-2.8.8-.8,12.4-2,.5-.7,3,2.5-.6-.3,4.4,3.6-1,.3-4.4,5.2-1.3,2.2,3.7,4-1Zm3.5,11.4-3.4.9.4-6Z" transform="translate(-1.6 587.2)"/><path class="cls-6" d="M625.5,39.3c-.1-.4-.3-.8-.4-1.3l-1.8-5.2L619.2,34l2,5.3c.4.9.7,1.8,1,2.6,1.2,3.7.9,6-.8,6.8-.1,0-.2.1-.3.1-1,.3-1.9-.1-2.8-1.3a19.46,19.46,0,0,1-2.8-6.1l-1.8-5.5L609.9,37l1.8,5.2c2.3,6.9,5.2,10.4,8.7,10.4a5.66,5.66,0,0,0,1.8-.3c.2-.1.3-.1.5-.2C626.7,50.5,627.7,46.2,625.5,39.3Z" transform="translate(-1.6 587.2)"/><path class="cls-6" d="M715.2,77.7c17.5,1.6,33.3,5,45.6,9.7.7-1.3,1.4-2.6,2.1-4-13.7-5.4-31.5-9.1-51.6-10.5A22.76,22.76,0,0,1,715.2,77.7Z" transform="translate(-1.6 587.2)"/><path class="cls-6" d="M677,72.9c-20.1,1.3-38,5-51.8,10.4.7,1.4,1.4,2.7,2.1,4,12.4-4.7,28.2-8.1,45.8-9.6A22.76,22.76,0,0,1,677,72.9Z" transform="translate(-1.6 587.2)"/><path class="cls-6" d="M756.7,94.7h0c.7-1.2,1.5-2.4,2.3-3.8-.2-.1-.5-.2-.7-.3-11.5-4.3-25.6-7.3-40.9-8.8a23.2,23.2,0,0,1,1.3,4.5C732.9,87.9,745.9,90.7,756.7,94.7Z" transform="translate(-1.6 587.2)"/><path class="cls-6" d="M629.4,90.6c-.1,0-.1.1-.2.1.8,1.4,1.5,2.6,2.3,3.8,10.8-3.9,23.9-6.7,38.1-8.2a21.46,21.46,0,0,1,1.4-4.5C655.4,83.3,641.1,86.3,629.4,90.6Z" transform="translate(-1.6 587.2)"/><path class="cls-6" d="M719.2,94.8a154.3,154.3,0,0,1,31.9,6.7l.9.3c.8-1.1,1.7-2.3,2.6-3.7-.7-.2-1.4-.5-2.1-.7a159.89,159.89,0,0,0-33.3-7v4.4Z" transform="translate(-1.6 587.2)"/><path class="cls-6" d="M669.1,90.3a165.77,165.77,0,0,0-33.9,7.1,8.8,8.8,0,0,1-1.5.5c1,1.4,1.8,2.7,2.6,3.7.1,0,.2-.1.3-.1a153.71,153.71,0,0,1,32.5-6.8V90.3Z" transform="translate(-1.6 587.2)"/><path class="cls-6" d="M744.9,108.3a36.85,36.85,0,0,0,4.1-3l.2-.2a152.14,152.14,0,0,0-30-6.3v4.4A153.79,153.79,0,0,1,744.9,108.3Z" transform="translate(-1.6 587.2)"/><path class="cls-6" d="M639,104.9c.1.1.2.3.3.4a22.42,22.42,0,0,0,3.5,3,157,157,0,0,1,26.3-5.2V98.7A161.13,161.13,0,0,0,639,104.9Z" transform="translate(-1.6 587.2)"/><path class="cls-2" d="M722.8,110.2v21.9a28.53,28.53,0,0,1-24.9,28.4V150.1a19.42,19.42,0,0,0,8.7-4.1h0a4.35,4.35,0,0,1,.7-.6l.3-.3.3-.3.4-.4.3-.3a19.25,19.25,0,0,0,4.6-9.1h0a2.49,2.49,0,0,0,.1-.8v-.1c0-.3.1-.5.1-.8v-.2a1.7,1.7,0,0,1,.1-.7V111.2h0v-20a19.4,19.4,0,1,0-38.8,0v14.9c2.5-.4,5-.8,7.5-1.1V91.2a11.9,11.9,0,0,1,23.8-.1v20H674.7v20a19.5,19.5,0,0,0,15.7,19v10.4a28.66,28.66,0,0,1-24.9-28.2V110.2q-3.9.6-7.5,1.2v20.8A36.26,36.26,0,0,0,690.4,168v11.8c-7.1.1-14.1.5-20.9,1.2l.7,7.5a240.6,240.6,0,0,1,48,0l.7-7.5c-6.8-.7-13.8-1.1-20.9-1.2V168a36.29,36.29,0,0,0,32.4-36V111.4C727.8,111,725.3,110.6,722.8,110.2Z" transform="translate(-1.6 587.2)"/><polygon class="cls-2" points="648.1 638.3 650.9 656.2 654.8 656.3 651.9 637.7 648.1 638.3"/><path class="cls-2" d="M671.7,52.8v-.2c-.5-3.4-4.1-4.8-10.8-4.1l-.9.1,1.9,19.2,4-.4-1.1-7.7a5,5,0,0,0,1.3-.4l5.4,8.9.1.1,4-.7-6.4-9.8A5,5,0,0,0,671.7,52.8Zm-3.6.8c.2,1.5-1,2.4-3.6,2.8l-.5-4.9h.2c2.4-.3,3.6.4,3.9,1.9Z" transform="translate(-1.6 587.2)"/><polygon class="cls-2" points="688.9 647 687.8 644 691.2 634.2 687 634.3 685.9 638.4 684.5 634.3 680.8 634.4 684.2 644.4 683.4 647.2 679.1 634.5 675.3 634.5 681.8 653.3 684.7 653.3 686 649.5 687.2 653.1 690.1 653.2 696.6 634.1 692.5 634.2 688.9 647"/><path class="cls-2" d="M710.8,47.4h-2.9l-4.4,11.7-2.1-.1-1.5,2.7,2.6.1L700.9,66l3.8.2,1.5-4.1,5.4.3,1,4.2,4.1.2-5.9-19.2Zm-.1,11.9-3.6-.1,2.1-5.7Z" transform="translate(-1.6 587.2)"/><polygon class="cls-2" points="724.9 649.1 722.6 635.9 722.5 635.8 718.8 635.3 722.4 654.8 725.2 655.3 734.5 637.4 730.4 636.9 724.9 649.1"/><polygon class="cls-2" points="735.5 656.8 746.8 659.1 747.2 656 739.8 654.7 740.9 649.3 745.8 650.6 746.5 647.8 741.4 646.4 742.3 642 749 643 749.3 640.2 739.1 638.1 735.5 656.8"/><path class="cls-2" d="M765.7,57.4c-.2-.1-.5-.1-.7-.2-3.4-.9-5.7,0-6.7,2.6l-.1.2c-.7,2,.1,4.2,2.3,6.4,2,2.1,2.9,3.8,2.4,5.1,0,.1-.1.1-.1.2a2.15,2.15,0,0,1-2.5.3h-.1c-1.4-.5-1.8-1.6-1.4-3.5v-.2l-3.7-.3v.1c-.6,3.5.7,5.8,4,6.9h.1a9.1,9.1,0,0,0,2.6.5,4.89,4.89,0,0,0,4.4-2.6c.1-.2.2-.5.3-.7.7-2,0-4.1-2.1-6.2-2.2-2.3-3.2-3.9-3-4.9,0-.1,0-.1.1-.2.3-.8,1-1.1,2.4-.8a4.33,4.33,0,0,1,.5.1c1.2.4,1.6,1.3,1.3,2.9v.2l3.6.3v-.1C769.9,60.4,768.6,58.3,765.7,57.4Z" transform="translate(-1.6 587.2)"/><polygon class="cls-2" points="641.1 615.4 637.3 616.1 639.3 625.7 633.4 617.7 629.5 618.2 633.4 635.7 633.5 635.8 637.3 635.2 635.5 626.2 641.1 633.5 641.2 633.6 645.1 633.1 641.1 615.6 641.1 615.4"/><polygon class="cls-2" points="656.4 628.7 654.2 613.3 650.3 613.5 653 632.1 664.7 630.5 664 627.5 656.4 628.7"/><path class="cls-2" d="M683.3,32.5c-.6-5.9-3.2-8.8-7.7-8.5h-.1c-4.6.3-6.7,3.6-6.3,9.8v.1c.4,5.7,2.6,8.6,6.6,8.6h.5a2,2,0,0,0,.7-.1c4.6-.6,6.7-3.7,6.4-9.2A2,2,0,0,1,683.3,32.5Zm-7.6-5.4c2.1-.1,3.4,1.7,3.8,5.6,0,.3.1.6.1.9.2,3.3-.7,5.2-2.9,5.6-.2,0-.3.1-.5.1-2,.1-3.1-1.8-3.4-5.6v-.2c-.2-4.1.8-6.2,2.9-6.4Z" transform="translate(-1.6 587.2)"/><path class="cls-2" d="M700.7,35.4c-.4,2-1.4,3.1-3.1,3.3h-.5c-2,0-3-2-3-5.8v-.2c0-4,1.1-6.1,3.2-6.1h.1c1.6,0,2.7,1.1,3.1,3.4v.2l3.6-.9v-.1c-.9-3.7-3.1-5.6-6.7-5.6h-.1c-4.6,0-6.9,3.1-7,9.3V33c0,6,2.1,9,6.5,9.1h.7c3.7-.2,5.9-2.1,6.7-5.7v-.2l-3.6-.8Z" transform="translate(-1.6 587.2)"/><polygon class="cls-2" points="718 611.7 713.4 618.1 713.8 611.3 713.8 611.1 710.2 610.7 708.6 628.8 708.6 628.9 712.6 629.3 713.2 623.8 717.1 630.3 721.3 630.9 716 621.2 722.3 611.9 718 611.7"/><polygon class="cls-2" points="726.7 630.8 726.7 630.9 730.5 632.2 733.2 614 733.2 613.8 729.4 613.3 726.7 630.8"/><polygon class="cls-2" points="748.4 626.2 746.3 616.5 742.5 615.4 739 633.1 742.7 634.1 744.7 625.1 746.9 634.2 750.7 635.4 754.2 617.6 750.5 616.6 748.4 626.2"/><path class="cls-2" d="M767.8,44.3l3.4,1.2c-1.1,3.2-2.5,4.5-4.2,4h-.1c-2-.7-2.5-2.9-1.5-6.7l.3-.9c1.1-3.2,2.6-4.6,4.8-4.2a1.42,1.42,0,0,1,.6.2,1.8,1.8,0,0,1,1.4,1.4v.1l3.6.2v-.2c-.1-2.1-1.4-3.5-3.9-4.3a2.35,2.35,0,0,0-.8-.2c-4.4-1.1-7.6.9-9.3,6.2a1.85,1.85,0,0,0-.2.7c-1.7,5.7-.3,9.3,4,10.8h.1a6.8,6.8,0,0,0,1.9.3c3.3,0,5.9-3,7.8-8.9l.1-.2-6.9-2Z" transform="translate(-1.6 587.2)"/><path class="cls-2" d="M620.3,68.3l.8.2-.1,1.7,5.1.6-.4,1.3-4.9-.5-.2,1.8-.8-.1Z" transform="translate(-1.6 587.2)"/><path class="cls-2" d="M624.2,66.3l3,.4.1,1.4-3.1-.4.1,1.1-.8-.1-.1-1.1-2.5-.3-.1-1.4,2.5.3-.1-1.8-2.9-.4-.1-1.3,6.2.7.1,1.4-2.4-.3Z" transform="translate(-1.6 587.2)"/><path class="cls-2" d="M624.3,59.8l1.9.2.2-2.8h.9l-.4,4.2-6.1-.5.4-3.8h.8l-.1,2.5,1.6.1.3-2,.8.1Z" transform="translate(-1.6 587.2)"/><path class="cls-2" d="M775.9,21.7c-23.1-8-49.9-11.8-81.8-11.8s-58.6,3.9-81.8,11.9c-20,6.9-18.5,26-13.8,40.9,7.2,22.7,20.8,47.8,30.2,55.9,2.6,2.3,12.7,5.9,20.8,8.5v-5.9c-8-2.7-15.6-5.5-17.1-6.8-8.6-7.5-21.7-31.9-28.6-53.4-5.9-18.4-2.5-29.4,10.3-33.8,22.5-7.8,48.7-11.6,79.9-11.6s57.4,3.8,79.9,11.5c12.8,4.4,16.1,15.5,10.3,33.8-6.8,21.5-19.9,46-28.5,53.4-1.5,1.3-8.7,4-17.1,6.9v5.9c8.2-2.7,18.2-6.3,20.8-8.5,9.4-8.2,23-33.3,30.2-56C794.4,47.7,795.8,28.6,775.9,21.7Z" transform="translate(-1.6 587.2)"/></svg>